<svg xmlns="http://www.w3.org/2000/svg" width="820" height="1180" viewBox="0 0 820 1180"><defs><linearGradient id="spec" x1="0" y1="0" x2="0" y2="1"><stop offset="0" stop-color="#FFFFFF" stop-opacity="0.55" /><stop offset="0.32" stop-color="#FFFFFF" stop-opacity="0.10" /><stop offset="1" stop-color="#FFFFFF" stop-opacity="0" /></linearGradient><linearGradient id="edge" x1="0" y1="0" x2="0" y2="1"><stop offset="0" stop-color="#F0EFEA" stop-opacity="0" /><stop offset="1" stop-color="#F0EFEA" stop-opacity="0.95" /></linearGradient></defs><g id="d2" data-name="필사 화면 (세로)"><rect x="0" y="0" width="820" height="1180" rx="24" fill="#FAF9F6" /><text x="28" y="24" font-size="12" fill="#303B36" font-family="Noto Sans KR, Apple SD Gothic Neo, sans-serif">9:41</text><text x="792" y="24" font-size="12" fill="#303B36" font-family="Noto Sans KR, Apple SD Gothic Neo, sans-serif" text-anchor="end">Wi-Fi  100%</text><rect x="28" y="52" width="44" height="44" rx="12" fill="#F0EFEA" opacity="0.72" /><rect x="28" y="52" width="44" height="44" rx="12" fill="none" stroke="#FFFFFF" opacity="0.6" /><g transform="translate(38 62) scale(1)" fill="none" stroke="#303B36" stroke-width="1.7" stroke-linecap="round" stroke-linejoin="round"><title>서재</title><path d="M5 4h14a2 2 0 0 1 2 2v12a2 2 0 0 1-2 2H5a2 2 0 0 1-2-2V6a2 2 0 0 1 2-2zM10 4v16" /></g><rect x="282.0" y="50" width="256" height="68" rx="16" fill="#E4EBE2" /><text x="410.0" y="84" font-size="26" fill="#303B36" font-family="Noto Serif KR, AppleMyungjo, serif" text-anchor="middle">시편 23편 ⌄</text><text x="410.0" y="108" font-size="12" fill="#5F6862" font-family="Noto Sans KR, Apple SD Gothic Neo, sans-serif" text-anchor="middle">개역한글</text><rect x="640" y="52" width="44" height="44" rx="12" fill="#F0EFEA" opacity="0.72" /><rect x="640" y="52" width="44" height="44" rx="12" fill="none" stroke="#FFFFFF" opacity="0.6" /><g transform="translate(650 62) scale(1)" fill="none" stroke="#303B36" stroke-width="1.7" stroke-linecap="round" stroke-linejoin="round"><title>이전 장</title><path d="M19 12H5m6-6-6 6 6 6" /></g><rect x="688" y="52" width="44" height="44" rx="12" fill="#F0EFEA" opacity="0.72" /><rect x="688" y="52" width="44" height="44" rx="12" fill="none" stroke="#FFFFFF" opacity="0.6" /><g transform="translate(698 62) scale(1)" fill="none" stroke="#303B36" stroke-width="1.7" stroke-linecap="round" stroke-linejoin="round"><title>다음 장</title><path d="M5 12h14m-6-6 6 6-6 6" /></g><rect x="748" y="52" width="44" height="44" rx="12" fill="#F0EFEA" opacity="0.72" /><rect x="748" y="52" width="44" height="44" rx="12" fill="none" stroke="#FFFFFF" opacity="0.6" /><g transform="translate(758 62) scale(1)"><title>본문 설정</title><text x="0" y="19" font-size="16" fill="#303B36" font-family="Noto Serif KR, AppleMyungjo, serif">가</text><text x="15" y="19" font-size="10" fill="#303B36" font-family="Noto Serif KR, AppleMyungjo, serif">가</text></g><text x="38" y="166" font-size="13" fill="#5F6862" font-family="Noto Sans KR, Apple SD Gothic Neo, sans-serif">말씀</text><text x="430" y="166" font-size="13" fill="#5F6862" font-family="Noto Sans KR, Apple SD Gothic Neo, sans-serif">나의 필사</text><text x="38" y="222" font-size="13" fill="#476550" font-family="Noto Sans KR, Apple SD Gothic Neo, sans-serif">01</text><text x="72" y="222" font-size="20" fill="#303B36" font-family="Noto Serif KR, AppleMyungjo, serif">여호와는 나의 목자시니</text><path d="M430 235h350" stroke="#DFE2DB" /><text x="440" y="222" font-size="27.0" fill="#476550" font-family="Nanum Pen Script, Nanum Pen, cursive" data-role="handwriting">여호와는 나의 목자시니</text><text x="72" y="270" font-size="20" fill="#303B36" font-family="Noto Serif KR, AppleMyungjo, serif">내가 부족함이 없으리로다</text><path d="M430 283h350" stroke="#DFE2DB" /><text x="440" y="270" font-size="27.0" fill="#476550" font-family="Nanum Pen Script, Nanum Pen, cursive" data-role="handwriting">내가 부족함이 없으리로다</text><text x="38" y="342" font-size="13" fill="#476550" font-family="Noto Sans KR, Apple SD Gothic Neo, sans-serif">02</text><text x="72" y="342" font-size="20" fill="#303B36" font-family="Noto Serif KR, AppleMyungjo, serif">그가 나를 푸른 초장에</text><path d="M430 355h350" stroke="#DFE2DB" /><text x="72" y="390" font-size="20" fill="#303B36" font-family="Noto Serif KR, AppleMyungjo, serif">누이시며 쉴 만한 물 가으로</text><path d="M430 403h350" stroke="#DFE2DB" /><text x="72" y="438" font-size="20" fill="#303B36" font-family="Noto Serif KR, AppleMyungjo, serif">인도하시는도다</text><path d="M430 451h350" stroke="#DFE2DB" /><text x="38" y="510" font-size="13" fill="#476550" font-family="Noto Sans KR, Apple SD Gothic Neo, sans-serif">03</text><text x="72" y="510" font-size="20" fill="#303B36" font-family="Noto Serif KR, AppleMyungjo, serif">내 영혼을 소생시키시고</text><path d="M430 523h350" stroke="#DFE2DB" /><text x="72" y="558" font-size="20" fill="#303B36" font-family="Noto Serif KR, AppleMyungjo, serif">자기 이름을 위하여</text><path d="M430 571h350" stroke="#DFE2DB" /><text x="72" y="606" font-size="20" fill="#303B36" font-family="Noto Serif KR, AppleMyungjo, serif">의의 길로 인도하시는도다</text><path d="M430 619h350" stroke="#DFE2DB" /><text x="38" y="678" font-size="13" fill="#476550" font-family="Noto Sans KR, Apple SD Gothic Neo, sans-serif">04</text><text x="72" y="678" font-size="20" fill="#303B36" font-family="Noto Serif KR, AppleMyungjo, serif">내가 사망의 음침한</text><path d="M430 691h350" stroke="#DFE2DB" /><text x="72" y="726" font-size="20" fill="#303B36" font-family="Noto Serif KR, AppleMyungjo, serif">골짜기로 다닐지라도</text><path d="M430 739h350" stroke="#DFE2DB" /><text x="72" y="774" font-size="20" fill="#303B36" font-family="Noto Serif KR, AppleMyungjo, serif">해를 두려워하지 않을 것은</text><path d="M430 787h350" stroke="#DFE2DB" /><text x="38" y="846" font-size="13" fill="#476550" font-family="Noto Sans KR, Apple SD Gothic Neo, sans-serif">05</text><text x="72" y="846" font-size="20" fill="#303B36" font-family="Noto Serif KR, AppleMyungjo, serif">주께서 나와 함께 하심이라</text><path d="M430 859h350" stroke="#DFE2DB" /><text x="72" y="894" font-size="20" fill="#303B36" font-family="Noto Serif KR, AppleMyungjo, serif">주의 지팡이와 막대기가</text><path d="M430 907h350" stroke="#DFE2DB" /><text x="72" y="942" font-size="20" fill="#303B36" font-family="Noto Serif KR, AppleMyungjo, serif">나를 안위하시나이다</text><path d="M430 955h350" stroke="#DFE2DB" /></g><g id="도구 팔레트 (세로)" data-name="도구 팔레트 (세로)"><g id="surface-g3" data-name="표면 (불투명 · iOS 26 미만 폴백 · 유리로 쓰려면 채우기 80% + Background blur 20)"><path d="M178.0 1070h464a20 20 0 0 1 20 20v24a20 20 0 0 1 -20 20h-464a20 20 0 0 1 -20 -20v-24a20 20 0 0 1 20 -20z" fill="#F0EFEA" /></g><g id="hl-g3" data-name="유리 하이라이트 (iOS 26)"><path d="M178.0 1070h464a20 20 0 0 1 20 20v24a20 20 0 0 1 -20 20h-464a20 20 0 0 1 -20 -20v-24a20 20 0 0 1 20 -20z" fill="url(#spec)" /><path d="M178.0 1070h464a20 20 0 0 1 20 20v24a20 20 0 0 1 -20 20h-464a20 20 0 0 1 -20 -20v-24a20 20 0 0 1 20 -20z" fill="none" stroke="#FFFFFF" stroke-width="1" opacity="0.65" /><path d="M178.0 1070h464a20 20 0 0 1 20 20v24a20 20 0 0 1 -20 20h-464a20 20 0 0 1 -20 -20v-24a20 20 0 0 1 20 -20z" fill="none" stroke="#303B36" stroke-width="1" opacity="0.10" /></g><rect x="170.0" y="1080" width="44" height="44" rx="12" fill="#FAF9F6" opacity="0.75" /><g transform="translate(180.0 1090) scale(1)" fill="none" stroke="#303B36" stroke-width="1.7" stroke-linecap="round" stroke-linejoin="round"><title>펜</title><path d="m4 20 1-5L16 4a2.12 2.12 0 0 1 3 3L8 18l-4 2Zm10-14 4 4M5 15l3 3" /></g><g transform="translate(228.0 1090) scale(1)" fill="none" stroke="#303B36" stroke-width="1.7" stroke-linecap="round" stroke-linejoin="round"><title>지우개</title><path d="m9 19-5-5a2 2 0 0 1 0-3l8-8a2 2 0 0 1 3 0l6 6a2 2 0 0 1 0 3l-7 7H9Zm-2-11 9 9M9 19h12" /></g><g transform="translate(276.0 1090) scale(1)" fill="none" stroke="#303B36" stroke-width="1.7" stroke-linecap="round" stroke-linejoin="round"><title>올가미</title><path d="M7 16C0 14 0 3 12 3s14 14 0 14H9m0-2c-3 0-4 2-3 4s5 1 5-1c0-2-2-2-2 0v2c0 2 3 3 5 1" /></g><text x="334.0" y="1107" font-size="14" fill="#303B36" font-family="Noto Sans KR, Apple SD Gothic Neo, sans-serif">0.5 mm</text><circle cx="438.0" cy="1102" r="15" fill="none" stroke="#303B36" stroke-width="2" opacity="0.35" /><circle cx="438.0" cy="1102" r="10" fill="#303B36" /><circle cx="474.0" cy="1102" r="10" fill="#476550" /><circle cx="510.0" cy="1102" r="10" fill="#9D7967" /><g transform="translate(564.0 1090) scale(1)" fill="none" stroke="#303B36" stroke-width="1.7" stroke-linecap="round" stroke-linejoin="round"><title>실행 취소</title><path d="m8 4-5 5 5 5M3 9h11a6 6 0 0 1 0 12" /></g><g transform="translate(612.0 1090) scale(1)" fill="none" stroke="#303B36" stroke-width="1.7" stroke-linecap="round" stroke-linejoin="round"><title>다시 실행</title><path d="m16 4 5 5-5 5m5-5H10a6 6 0 0 0 0 12" /></g><text x="410.0" y="1160" font-size="12" fill="#5F6862" font-family="Noto Sans KR, Apple SD Gothic Neo, sans-serif" text-anchor="middle">두 손가락으로 스크롤 · Apple Pencil로 필사</text></g><g id="scrim (세로)" data-name="scrim (세로)"><rect x="0" y="0" width="820" height="1180" rx="24" fill="#303B36" opacity="0.14" /></g><g id="장 선택 팝오버" data-name="장 선택 팝오버"><path d="M410 138l-12 12h24z" fill="#F0EFEA" opacity="0.8" /><g id="surface-g4" data-name="표면 (불투명 · iOS 26 미만 폴백 · 유리로 쓰려면 채우기 80% + Background blur 20)"><path d="M144 150h532a24 24 0 0 1 24 24v582a24 24 0 0 1 -24 24h-532a24 24 0 0 1 -24 -24v-582a24 24 0 0 1 24 -24z" fill="#F0EFEA" /></g><g id="hl-g4" data-name="유리 하이라이트 (iOS 26)"><path d="M144 150h532a24 24 0 0 1 24 24v582a24 24 0 0 1 -24 24h-532a24 24 0 0 1 -24 -24v-582a24 24 0 0 1 24 -24z" fill="url(#spec)" /><path d="M144 150h532a24 24 0 0 1 24 24v582a24 24 0 0 1 -24 24h-532a24 24 0 0 1 -24 -24v-582a24 24 0 0 1 24 -24z" fill="none" stroke="#FFFFFF" stroke-width="1" opacity="0.65" /><path d="M144 150h532a24 24 0 0 1 24 24v582a24 24 0 0 1 -24 24h-532a24 24 0 0 1 -24 -24v-582a24 24 0 0 1 24 -24z" fill="none" stroke="#303B36" stroke-width="1" opacity="0.10" /></g><text x="150" y="190" font-size="15" fill="#303B36" font-family="Noto Sans KR, Apple SD Gothic Neo, sans-serif">시편 · 장 선택</text><text x="670" y="190" font-size="13" fill="#5F6862" font-family="Noto Sans KR, Apple SD Gothic Neo, sans-serif" text-anchor="end">150장</text><path d="M120 210h580" stroke="#303B36" stroke-width="1" opacity="0.10" /><clipPath id="g5"><path d="M144 150h532a24 24 0 0 1 24 24v582a24 24 0 0 1 -24 24h-532a24 24 0 0 1 -24 -24v-582a24 24 0 0 1 24 -24z" /></clipPath><g clip-path="url(#g5)" id="장 그리드 · 10열" data-name="장 그리드 · 10열"><rect x="150" y="228" width="44" height="44" rx="12" fill="#FAF9F6" opacity="0.8" /><text x="172.0" y="255.0" font-size="15" fill="#303B36" font-family="Noto Sans KR, Apple SD Gothic Neo, sans-serif" text-anchor="middle">1</text><rect x="203" y="228" width="44" height="44" rx="12" fill="#FAF9F6" opacity="0.8" /><text x="225.0" y="255.0" font-size="15" fill="#303B36" font-family="Noto Sans KR, Apple SD Gothic Neo, sans-serif" text-anchor="middle">2</text><rect x="256" y="228" width="44" height="44" rx="12" fill="#FAF9F6" opacity="0.8" /><text x="278.0" y="255.0" font-size="15" fill="#303B36" font-family="Noto Sans KR, Apple SD Gothic Neo, sans-serif" text-anchor="middle">3</text><rect x="309" y="228" width="44" height="44" rx="12" fill="#FAF9F6" opacity="0.8" /><text x="331.0" y="255.0" font-size="15" fill="#303B36" font-family="Noto Sans KR, Apple SD Gothic Neo, sans-serif" text-anchor="middle">4</text><rect x="362" y="228" width="44" height="44" rx="12" fill="#FAF9F6" opacity="0.8" /><text x="384.0" y="255.0" font-size="15" fill="#303B36" font-family="Noto Sans KR, Apple SD Gothic Neo, sans-serif" text-anchor="middle">5</text><rect x="415" y="228" width="44" height="44" rx="12" fill="#FAF9F6" opacity="0.8" /><text x="437.0" y="255.0" font-size="15" fill="#303B36" font-family="Noto Sans KR, Apple SD Gothic Neo, sans-serif" text-anchor="middle">6</text><rect x="468" y="228" width="44" height="44" rx="12" fill="#FAF9F6" opacity="0.8" /><text x="490.0" y="255.0" font-size="15" fill="#303B36" font-family="Noto Sans KR, Apple SD Gothic Neo, sans-serif" text-anchor="middle">7</text><rect x="521" y="228" width="44" height="44" rx="12" fill="#FAF9F6" opacity="0.8" /><text x="543.0" y="255.0" font-size="15" fill="#303B36" font-family="Noto Sans KR, Apple SD Gothic Neo, sans-serif" text-anchor="middle">8</text><rect x="574" y="228" width="44" height="44" rx="12" fill="#FAF9F6" opacity="0.8" /><text x="596.0" y="255.0" font-size="15" fill="#303B36" font-family="Noto Sans KR, Apple SD Gothic Neo, sans-serif" text-anchor="middle">9</text><rect x="627" y="228" width="44" height="44" rx="12" fill="#FAF9F6" opacity="0.8" /><text x="649.0" y="255.0" font-size="15" fill="#303B36" font-family="Noto Sans KR, Apple SD Gothic Neo, sans-serif" text-anchor="middle">10</text><rect x="150" y="281" width="44" height="44" rx="12" fill="#FAF9F6" opacity="0.8" /><text x="172.0" y="308.0" font-size="15" fill="#303B36" font-family="Noto Sans KR, Apple SD Gothic Neo, sans-serif" text-anchor="middle">11</text><rect x="203" y="281" width="44" height="44" rx="12" fill="#FAF9F6" opacity="0.8" /><text x="225.0" y="308.0" font-size="15" fill="#303B36" font-family="Noto Sans KR, Apple SD Gothic Neo, sans-serif" text-anchor="middle">12</text><rect x="256" y="281" width="44" height="44" rx="12" fill="#FAF9F6" opacity="0.8" /><text x="278.0" y="308.0" font-size="15" fill="#303B36" font-family="Noto Sans KR, Apple SD Gothic Neo, sans-serif" text-anchor="middle">13</text><rect x="309" y="281" width="44" height="44" rx="12" fill="#FAF9F6" opacity="0.8" /><text x="331.0" y="308.0" font-size="15" fill="#303B36" font-family="Noto Sans KR, Apple SD Gothic Neo, sans-serif" text-anchor="middle">14</text><rect x="362" y="281" width="44" height="44" rx="12" fill="#FAF9F6" opacity="0.8" /><text x="384.0" y="308.0" font-size="15" fill="#303B36" font-family="Noto Sans KR, Apple SD Gothic Neo, sans-serif" text-anchor="middle">15</text><rect x="415" y="281" width="44" height="44" rx="12" fill="#FAF9F6" opacity="0.8" /><text x="437.0" y="308.0" font-size="15" fill="#303B36" font-family="Noto Sans KR, Apple SD Gothic Neo, sans-serif" text-anchor="middle">16</text><rect x="468" y="281" width="44" height="44" rx="12" fill="#FAF9F6" opacity="0.8" /><text x="490.0" y="308.0" font-size="15" fill="#303B36" font-family="Noto Sans KR, Apple SD Gothic Neo, sans-serif" text-anchor="middle">17</text><rect x="521" y="281" width="44" height="44" rx="12" fill="#FAF9F6" opacity="0.8" /><text x="543.0" y="308.0" font-size="15" fill="#303B36" font-family="Noto Sans KR, Apple SD Gothic Neo, sans-serif" text-anchor="middle">18</text><rect x="574" y="281" width="44" height="44" rx="12" fill="#FAF9F6" opacity="0.8" /><text x="596.0" y="308.0" font-size="15" fill="#303B36" font-family="Noto Sans KR, Apple SD Gothic Neo, sans-serif" text-anchor="middle">19</text><rect x="627" y="281" width="44" height="44" rx="12" fill="#FAF9F6" opacity="0.8" /><text x="649.0" y="308.0" font-size="15" fill="#303B36" font-family="Noto Sans KR, Apple SD Gothic Neo, sans-serif" text-anchor="middle">20</text><rect x="150" y="334" width="44" height="44" rx="12" fill="#FAF9F6" opacity="0.8" /><text x="172.0" y="361.0" font-size="15" fill="#303B36" font-family="Noto Sans KR, Apple SD Gothic Neo, sans-serif" text-anchor="middle">21</text><rect x="203" y="334" width="44" height="44" rx="12" fill="#FAF9F6" opacity="0.8" /><text x="225.0" y="361.0" font-size="15" fill="#303B36" font-family="Noto Sans KR, Apple SD Gothic Neo, sans-serif" text-anchor="middle">22</text><rect x="256" y="334" width="44" height="44" rx="12" fill="#476550" /><text x="278.0" y="361.0" font-size="15" fill="#FAF9F6" font-family="Noto Sans KR, Apple SD Gothic Neo, sans-serif" text-anchor="middle">23</text><rect x="309" y="334" width="44" height="44" rx="12" fill="#FAF9F6" opacity="0.8" /><text x="331.0" y="361.0" font-size="15" fill="#303B36" font-family="Noto Sans KR, Apple SD Gothic Neo, sans-serif" text-anchor="middle">24</text><rect x="362" y="334" width="44" height="44" rx="12" fill="#FAF9F6" opacity="0.8" /><text x="384.0" y="361.0" font-size="15" fill="#303B36" font-family="Noto Sans KR, Apple SD Gothic Neo, sans-serif" text-anchor="middle">25</text><rect x="415" y="334" width="44" height="44" rx="12" fill="#FAF9F6" opacity="0.8" /><text x="437.0" y="361.0" font-size="15" fill="#303B36" font-family="Noto Sans KR, Apple SD Gothic Neo, sans-serif" text-anchor="middle">26</text><rect x="468" y="334" width="44" height="44" rx="12" fill="#FAF9F6" opacity="0.8" /><text x="490.0" y="361.0" font-size="15" fill="#303B36" font-family="Noto Sans KR, Apple SD Gothic Neo, sans-serif" text-anchor="middle">27</text><rect x="521" y="334" width="44" height="44" rx="12" fill="#FAF9F6" opacity="0.8" /><text x="543.0" y="361.0" font-size="15" fill="#303B36" font-family="Noto Sans KR, Apple SD Gothic Neo, sans-serif" text-anchor="middle">28</text><rect x="574" y="334" width="44" height="44" rx="12" fill="#FAF9F6" opacity="0.8" /><text x="596.0" y="361.0" font-size="15" fill="#303B36" font-family="Noto Sans KR, Apple SD Gothic Neo, sans-serif" text-anchor="middle">29</text><rect x="627" y="334" width="44" height="44" rx="12" fill="#FAF9F6" opacity="0.8" /><text x="649.0" y="361.0" font-size="15" fill="#303B36" font-family="Noto Sans KR, Apple SD Gothic Neo, sans-serif" text-anchor="middle">30</text><rect x="150" y="387" width="44" height="44" rx="12" fill="#FAF9F6" opacity="0.8" /><text x="172.0" y="414.0" font-size="15" fill="#303B36" font-family="Noto Sans KR, Apple SD Gothic Neo, sans-serif" text-anchor="middle">31</text><rect x="203" y="387" width="44" height="44" rx="12" fill="#FAF9F6" opacity="0.8" /><text x="225.0" y="414.0" font-size="15" fill="#303B36" font-family="Noto Sans KR, Apple SD Gothic Neo, sans-serif" text-anchor="middle">32</text><rect x="256" y="387" width="44" height="44" rx="12" fill="#FAF9F6" opacity="0.8" /><text x="278.0" y="414.0" font-size="15" fill="#303B36" font-family="Noto Sans KR, Apple SD Gothic Neo, sans-serif" text-anchor="middle">33</text><rect x="309" y="387" width="44" height="44" rx="12" fill="#FAF9F6" opacity="0.8" /><text x="331.0" y="414.0" font-size="15" fill="#303B36" font-family="Noto Sans KR, Apple SD Gothic Neo, sans-serif" text-anchor="middle">34</text><rect x="362" y="387" width="44" height="44" rx="12" fill="#FAF9F6" opacity="0.8" /><text x="384.0" y="414.0" font-size="15" fill="#303B36" font-family="Noto Sans KR, Apple SD Gothic Neo, sans-serif" text-anchor="middle">35</text><rect x="415" y="387" width="44" height="44" rx="12" fill="#FAF9F6" opacity="0.8" /><text x="437.0" y="414.0" font-size="15" fill="#303B36" font-family="Noto Sans KR, Apple SD Gothic Neo, sans-serif" text-anchor="middle">36</text><rect x="468" y="387" width="44" height="44" rx="12" fill="#FAF9F6" opacity="0.8" /><text x="490.0" y="414.0" font-size="15" fill="#303B36" font-family="Noto Sans KR, Apple SD Gothic Neo, sans-serif" text-anchor="middle">37</text><rect x="521" y="387" width="44" height="44" rx="12" fill="#FAF9F6" opacity="0.8" /><text x="543.0" y="414.0" font-size="15" fill="#303B36" font-family="Noto Sans KR, Apple SD Gothic Neo, sans-serif" text-anchor="middle">38</text><rect x="574" y="387" width="44" height="44" rx="12" fill="#FAF9F6" opacity="0.8" /><text x="596.0" y="414.0" font-size="15" fill="#303B36" font-family="Noto Sans KR, Apple SD Gothic Neo, sans-serif" text-anchor="middle">39</text><rect x="627" y="387" width="44" height="44" rx="12" fill="#FAF9F6" opacity="0.8" /><text x="649.0" y="414.0" font-size="15" fill="#303B36" font-family="Noto Sans KR, Apple SD Gothic Neo, sans-serif" text-anchor="middle">40</text><rect x="150" y="440" width="44" height="44" rx="12" fill="#FAF9F6" opacity="0.8" /><text x="172.0" y="467.0" font-size="15" fill="#303B36" font-family="Noto Sans KR, Apple SD Gothic Neo, sans-serif" text-anchor="middle">41</text><rect x="203" y="440" width="44" height="44" rx="12" fill="#FAF9F6" opacity="0.8" /><text x="225.0" y="467.0" font-size="15" fill="#303B36" font-family="Noto Sans KR, Apple SD Gothic Neo, sans-serif" text-anchor="middle">42</text><rect x="256" y="440" width="44" height="44" rx="12" fill="#FAF9F6" opacity="0.8" /><text x="278.0" y="467.0" font-size="15" fill="#303B36" font-family="Noto Sans KR, Apple SD Gothic Neo, sans-serif" text-anchor="middle">43</text><rect x="309" y="440" width="44" height="44" rx="12" fill="#FAF9F6" opacity="0.8" /><text x="331.0" y="467.0" font-size="15" fill="#303B36" font-family="Noto Sans KR, Apple SD Gothic Neo, sans-serif" text-anchor="middle">44</text><rect x="362" y="440" width="44" height="44" rx="12" fill="#FAF9F6" opacity="0.8" /><text x="384.0" y="467.0" font-size="15" fill="#303B36" font-family="Noto Sans KR, Apple SD Gothic Neo, sans-serif" text-anchor="middle">45</text><rect x="415" y="440" width="44" height="44" rx="12" fill="#FAF9F6" opacity="0.8" /><text x="437.0" y="467.0" font-size="15" fill="#303B36" font-family="Noto Sans KR, Apple SD Gothic Neo, sans-serif" text-anchor="middle">46</text><rect x="468" y="440" width="44" height="44" rx="12" fill="#FAF9F6" opacity="0.8" /><text x="490.0" y="467.0" font-size="15" fill="#303B36" font-family="Noto Sans KR, Apple SD Gothic Neo, sans-serif" text-anchor="middle">47</text><rect x="521" y="440" width="44" height="44" rx="12" fill="#FAF9F6" opacity="0.8" /><text x="543.0" y="467.0" font-size="15" fill="#303B36" font-family="Noto Sans KR, Apple SD Gothic Neo, sans-serif" text-anchor="middle">48</text><rect x="574" y="440" width="44" height="44" rx="12" fill="#FAF9F6" opacity="0.8" /><text x="596.0" y="467.0" font-size="15" fill="#303B36" font-family="Noto Sans KR, Apple SD Gothic Neo, sans-serif" text-anchor="middle">49</text><rect x="627" y="440" width="44" height="44" rx="12" fill="#FAF9F6" opacity="0.8" /><text x="649.0" y="467.0" font-size="15" fill="#303B36" font-family="Noto Sans KR, Apple SD Gothic Neo, sans-serif" text-anchor="middle">50</text><rect x="150" y="493" width="44" height="44" rx="12" fill="#FAF9F6" opacity="0.8" /><text x="172.0" y="520.0" font-size="15" fill="#303B36" font-family="Noto Sans KR, Apple SD Gothic Neo, sans-serif" text-anchor="middle">51</text><rect x="203" y="493" width="44" height="44" rx="12" fill="#FAF9F6" opacity="0.8" /><text x="225.0" y="520.0" font-size="15" fill="#303B36" font-family="Noto Sans KR, Apple SD Gothic Neo, sans-serif" text-anchor="middle">52</text><rect x="256" y="493" width="44" height="44" rx="12" fill="#FAF9F6" opacity="0.8" /><text x="278.0" y="520.0" font-size="15" fill="#303B36" font-family="Noto Sans KR, Apple SD Gothic Neo, sans-serif" text-anchor="middle">53</text><rect x="309" y="493" width="44" height="44" rx="12" fill="#FAF9F6" opacity="0.8" /><text x="331.0" y="520.0" font-size="15" fill="#303B36" font-family="Noto Sans KR, Apple SD Gothic Neo, sans-serif" text-anchor="middle">54</text><rect x="362" y="493" width="44" height="44" rx="12" fill="#FAF9F6" opacity="0.8" /><text x="384.0" y="520.0" font-size="15" fill="#303B36" font-family="Noto Sans KR, Apple SD Gothic Neo, sans-serif" text-anchor="middle">55</text><rect x="415" y="493" width="44" height="44" rx="12" fill="#FAF9F6" opacity="0.8" /><text x="437.0" y="520.0" font-size="15" fill="#303B36" font-family="Noto Sans KR, Apple SD Gothic Neo, sans-serif" text-anchor="middle">56</text><rect x="468" y="493" width="44" height="44" rx="12" fill="#FAF9F6" opacity="0.8" /><text x="490.0" y="520.0" font-size="15" fill="#303B36" font-family="Noto Sans KR, Apple SD Gothic Neo, sans-serif" text-anchor="middle">57</text><rect x="521" y="493" width="44" height="44" rx="12" fill="#FAF9F6" opacity="0.8" /><text x="543.0" y="520.0" font-size="15" fill="#303B36" font-family="Noto Sans KR, Apple SD Gothic Neo, sans-serif" text-anchor="middle">58</text><rect x="574" y="493" width="44" height="44" rx="12" fill="#FAF9F6" opacity="0.8" /><text x="596.0" y="520.0" font-size="15" fill="#303B36" font-family="Noto Sans KR, Apple SD Gothic Neo, sans-serif" text-anchor="middle">59</text><rect x="627" y="493" width="44" height="44" rx="12" fill="#FAF9F6" opacity="0.8" /><text x="649.0" y="520.0" font-size="15" fill="#303B36" font-family="Noto Sans KR, Apple SD Gothic Neo, sans-serif" text-anchor="middle">60</text><rect x="150" y="546" width="44" height="44" rx="12" fill="#FAF9F6" opacity="0.8" /><text x="172.0" y="573.0" font-size="15" fill="#303B36" font-family="Noto Sans KR, Apple SD Gothic Neo, sans-serif" text-anchor="middle">61</text><rect x="203" y="546" width="44" height="44" rx="12" fill="#FAF9F6" opacity="0.8" /><text x="225.0" y="573.0" font-size="15" fill="#303B36" font-family="Noto Sans KR, Apple SD Gothic Neo, sans-serif" text-anchor="middle">62</text><rect x="256" y="546" width="44" height="44" rx="12" fill="#FAF9F6" opacity="0.8" /><text x="278.0" y="573.0" font-size="15" fill="#303B36" font-family="Noto Sans KR, Apple SD Gothic Neo, sans-serif" text-anchor="middle">63</text><rect x="309" y="546" width="44" height="44" rx="12" fill="#FAF9F6" opacity="0.8" /><text x="331.0" y="573.0" font-size="15" fill="#303B36" font-family="Noto Sans KR, Apple SD Gothic Neo, sans-serif" text-anchor="middle">64</text><rect x="362" y="546" width="44" height="44" rx="12" fill="#FAF9F6" opacity="0.8" /><text x="384.0" y="573.0" font-size="15" fill="#303B36" font-family="Noto Sans KR, Apple SD Gothic Neo, sans-serif" text-anchor="middle">65</text><rect x="415" y="546" width="44" height="44" rx="12" fill="#FAF9F6" opacity="0.8" /><text x="437.0" y="573.0" font-size="15" fill="#303B36" font-family="Noto Sans KR, Apple SD Gothic Neo, sans-serif" text-anchor="middle">66</text><rect x="468" y="546" width="44" height="44" rx="12" fill="#FAF9F6" opacity="0.8" /><text x="490.0" y="573.0" font-size="15" fill="#303B36" font-family="Noto Sans KR, Apple SD Gothic Neo, sans-serif" text-anchor="middle">67</text><rect x="521" y="546" width="44" height="44" rx="12" fill="#FAF9F6" opacity="0.8" /><text x="543.0" y="573.0" font-size="15" fill="#303B36" font-family="Noto Sans KR, Apple SD Gothic Neo, sans-serif" text-anchor="middle">68</text><rect x="574" y="546" width="44" height="44" rx="12" fill="#FAF9F6" opacity="0.8" /><text x="596.0" y="573.0" font-size="15" fill="#303B36" font-family="Noto Sans KR, Apple SD Gothic Neo, sans-serif" text-anchor="middle">69</text><rect x="627" y="546" width="44" height="44" rx="12" fill="#FAF9F6" opacity="0.8" /><text x="649.0" y="573.0" font-size="15" fill="#303B36" font-family="Noto Sans KR, Apple SD Gothic Neo, sans-serif" text-anchor="middle">70</text><rect x="150" y="599" width="44" height="44" rx="12" fill="#FAF9F6" opacity="0.8" /><text x="172.0" y="626.0" font-size="15" fill="#303B36" font-family="Noto Sans KR, Apple SD Gothic Neo, sans-serif" text-anchor="middle">71</text><rect x="203" y="599" width="44" height="44" rx="12" fill="#FAF9F6" opacity="0.8" /><text x="225.0" y="626.0" font-size="15" fill="#303B36" font-family="Noto Sans KR, Apple SD Gothic Neo, sans-serif" text-anchor="middle">72</text><rect x="256" y="599" width="44" height="44" rx="12" fill="#FAF9F6" opacity="0.8" /><text x="278.0" y="626.0" font-size="15" fill="#303B36" font-family="Noto Sans KR, Apple SD Gothic Neo, sans-serif" text-anchor="middle">73</text><rect x="309" y="599" width="44" height="44" rx="12" fill="#FAF9F6" opacity="0.8" /><text x="331.0" y="626.0" font-size="15" fill="#303B36" font-family="Noto Sans KR, Apple SD Gothic Neo, sans-serif" text-anchor="middle">74</text><rect x="362" y="599" width="44" height="44" rx="12" fill="#FAF9F6" opacity="0.8" /><text x="384.0" y="626.0" font-size="15" fill="#303B36" font-family="Noto Sans KR, Apple SD Gothic Neo, sans-serif" text-anchor="middle">75</text><rect x="415" y="599" width="44" height="44" rx="12" fill="#FAF9F6" opacity="0.8" /><text x="437.0" y="626.0" font-size="15" fill="#303B36" font-family="Noto Sans KR, Apple SD Gothic Neo, sans-serif" text-anchor="middle">76</text><rect x="468" y="599" width="44" height="44" rx="12" fill="#FAF9F6" opacity="0.8" /><text x="490.0" y="626.0" font-size="15" fill="#303B36" font-family="Noto Sans KR, Apple SD Gothic Neo, sans-serif" text-anchor="middle">77</text><rect x="521" y="599" width="44" height="44" rx="12" fill="#FAF9F6" opacity="0.8" /><text x="543.0" y="626.0" font-size="15" fill="#303B36" font-family="Noto Sans KR, Apple SD Gothic Neo, sans-serif" text-anchor="middle">78</text><rect x="574" y="599" width="44" height="44" rx="12" fill="#FAF9F6" opacity="0.8" /><text x="596.0" y="626.0" font-size="15" fill="#303B36" font-family="Noto Sans KR, Apple SD Gothic Neo, sans-serif" text-anchor="middle">79</text><rect x="627" y="599" width="44" height="44" rx="12" fill="#FAF9F6" opacity="0.8" /><text x="649.0" y="626.0" font-size="15" fill="#303B36" font-family="Noto Sans KR, Apple SD Gothic Neo, sans-serif" text-anchor="middle">80</text><rect x="150" y="652" width="44" height="44" rx="12" fill="#FAF9F6" opacity="0.8" /><text x="172.0" y="679.0" font-size="15" fill="#303B36" font-family="Noto Sans KR, Apple SD Gothic Neo, sans-serif" text-anchor="middle">81</text><rect x="203" y="652" width="44" height="44" rx="12" fill="#FAF9F6" opacity="0.8" /><text x="225.0" y="679.0" font-size="15" fill="#303B36" font-family="Noto Sans KR, Apple SD Gothic Neo, sans-serif" text-anchor="middle">82</text><rect x="256" y="652" width="44" height="44" rx="12" fill="#FAF9F6" opacity="0.8" /><text x="278.0" y="679.0" font-size="15" fill="#303B36" font-family="Noto Sans KR, Apple SD Gothic Neo, sans-serif" text-anchor="middle">83</text><rect x="309" y="652" width="44" height="44" rx="12" fill="#FAF9F6" opacity="0.8" /><text x="331.0" y="679.0" font-size="15" fill="#303B36" font-family="Noto Sans KR, Apple SD Gothic Neo, sans-serif" text-anchor="middle">84</text><rect x="362" y="652" width="44" height="44" rx="12" fill="#FAF9F6" opacity="0.8" /><text x="384.0" y="679.0" font-size="15" fill="#303B36" font-family="Noto Sans KR, Apple SD Gothic Neo, sans-serif" text-anchor="middle">85</text><rect x="415" y="652" width="44" height="44" rx="12" fill="#FAF9F6" opacity="0.8" /><text x="437.0" y="679.0" font-size="15" fill="#303B36" font-family="Noto Sans KR, Apple SD Gothic Neo, sans-serif" text-anchor="middle">86</text><rect x="468" y="652" width="44" height="44" rx="12" fill="#FAF9F6" opacity="0.8" /><text x="490.0" y="679.0" font-size="15" fill="#303B36" font-family="Noto Sans KR, Apple SD Gothic Neo, sans-serif" text-anchor="middle">87</text><rect x="521" y="652" width="44" height="44" rx="12" fill="#FAF9F6" opacity="0.8" /><text x="543.0" y="679.0" font-size="15" fill="#303B36" font-family="Noto Sans KR, Apple SD Gothic Neo, sans-serif" text-anchor="middle">88</text><rect x="574" y="652" width="44" height="44" rx="12" fill="#FAF9F6" opacity="0.8" /><text x="596.0" y="679.0" font-size="15" fill="#303B36" font-family="Noto Sans KR, Apple SD Gothic Neo, sans-serif" text-anchor="middle">89</text><rect x="627" y="652" width="44" height="44" rx="12" fill="#FAF9F6" opacity="0.8" /><text x="649.0" y="679.0" font-size="15" fill="#303B36" font-family="Noto Sans KR, Apple SD Gothic Neo, sans-serif" text-anchor="middle">90</text><rect x="150" y="705" width="44" height="44" rx="12" fill="#FAF9F6" opacity="0.8" /><text x="172.0" y="732.0" font-size="15" fill="#303B36" font-family="Noto Sans KR, Apple SD Gothic Neo, sans-serif" text-anchor="middle">91</text><rect x="203" y="705" width="44" height="44" rx="12" fill="#FAF9F6" opacity="0.8" /><text x="225.0" y="732.0" font-size="15" fill="#303B36" font-family="Noto Sans KR, Apple SD Gothic Neo, sans-serif" text-anchor="middle">92</text><rect x="256" y="705" width="44" height="44" rx="12" fill="#FAF9F6" opacity="0.8" /><text x="278.0" y="732.0" font-size="15" fill="#303B36" font-family="Noto Sans KR, Apple SD Gothic Neo, sans-serif" text-anchor="middle">93</text><rect x="309" y="705" width="44" height="44" rx="12" fill="#FAF9F6" opacity="0.8" /><text x="331.0" y="732.0" font-size="15" fill="#303B36" font-family="Noto Sans KR, Apple SD Gothic Neo, sans-serif" text-anchor="middle">94</text><rect x="362" y="705" width="44" height="44" rx="12" fill="#FAF9F6" opacity="0.8" /><text x="384.0" y="732.0" font-size="15" fill="#303B36" font-family="Noto Sans KR, Apple SD Gothic Neo, sans-serif" text-anchor="middle">95</text><rect x="415" y="705" width="44" height="44" rx="12" fill="#FAF9F6" opacity="0.8" /><text x="437.0" y="732.0" font-size="15" fill="#303B36" font-family="Noto Sans KR, Apple SD Gothic Neo, sans-serif" text-anchor="middle">96</text><rect x="468" y="705" width="44" height="44" rx="12" fill="#FAF9F6" opacity="0.8" /><text x="490.0" y="732.0" font-size="15" fill="#303B36" font-family="Noto Sans KR, Apple SD Gothic Neo, sans-serif" text-anchor="middle">97</text><rect x="521" y="705" width="44" height="44" rx="12" fill="#FAF9F6" opacity="0.8" /><text x="543.0" y="732.0" font-size="15" fill="#303B36" font-family="Noto Sans KR, Apple SD Gothic Neo, sans-serif" text-anchor="middle">98</text><rect x="574" y="705" width="44" height="44" rx="12" fill="#FAF9F6" opacity="0.8" /><text x="596.0" y="732.0" font-size="15" fill="#303B36" font-family="Noto Sans KR, Apple SD Gothic Neo, sans-serif" text-anchor="middle">99</text><rect x="627" y="705" width="44" height="44" rx="12" fill="#FAF9F6" opacity="0.8" /><text x="649.0" y="732.0" font-size="15" fill="#303B36" font-family="Noto Sans KR, Apple SD Gothic Neo, sans-serif" text-anchor="middle">100</text><rect x="150" y="758" width="44" height="44" rx="12" fill="#FAF9F6" opacity="0.8" /><text x="172.0" y="785.0" font-size="15" fill="#303B36" font-family="Noto Sans KR, Apple SD Gothic Neo, sans-serif" text-anchor="middle">101</text><rect x="203" y="758" width="44" height="44" rx="12" fill="#FAF9F6" opacity="0.8" /><text x="225.0" y="785.0" font-size="15" fill="#303B36" font-family="Noto Sans KR, Apple SD Gothic Neo, sans-serif" text-anchor="middle">102</text><rect x="256" y="758" width="44" height="44" rx="12" fill="#FAF9F6" opacity="0.8" /><text x="278.0" y="785.0" font-size="15" fill="#303B36" font-family="Noto Sans KR, Apple SD Gothic Neo, sans-serif" text-anchor="middle">103</text><rect x="309" y="758" width="44" height="44" rx="12" fill="#FAF9F6" opacity="0.8" /><text x="331.0" y="785.0" font-size="15" fill="#303B36" font-family="Noto Sans KR, Apple SD Gothic Neo, sans-serif" text-anchor="middle">104</text><rect x="362" y="758" width="44" height="44" rx="12" fill="#FAF9F6" opacity="0.8" /><text x="384.0" y="785.0" font-size="15" fill="#303B36" font-family="Noto Sans KR, Apple SD Gothic Neo, sans-serif" text-anchor="middle">105</text><rect x="415" y="758" width="44" height="44" rx="12" fill="#FAF9F6" opacity="0.8" /><text x="437.0" y="785.0" font-size="15" fill="#303B36" font-family="Noto Sans KR, Apple SD Gothic Neo, sans-serif" text-anchor="middle">106</text><rect x="468" y="758" width="44" height="44" rx="12" fill="#FAF9F6" opacity="0.8" /><text x="490.0" y="785.0" font-size="15" fill="#303B36" font-family="Noto Sans KR, Apple SD Gothic Neo, sans-serif" text-anchor="middle">107</text><rect x="521" y="758" width="44" height="44" rx="12" fill="#FAF9F6" opacity="0.8" /><text x="543.0" y="785.0" font-size="15" fill="#303B36" font-family="Noto Sans KR, Apple SD Gothic Neo, sans-serif" text-anchor="middle">108</text><rect x="574" y="758" width="44" height="44" rx="12" fill="#FAF9F6" opacity="0.8" /><text x="596.0" y="785.0" font-size="15" fill="#303B36" font-family="Noto Sans KR, Apple SD Gothic Neo, sans-serif" text-anchor="middle">109</text><rect x="627" y="758" width="44" height="44" rx="12" fill="#FAF9F6" opacity="0.8" /><text x="649.0" y="785.0" font-size="15" fill="#303B36" font-family="Noto Sans KR, Apple SD Gothic Neo, sans-serif" text-anchor="middle">110</text></g></g></svg>