<svg xmlns="http://www.w3.org/2000/svg" width="1180" height="320" viewBox="0 0 1180 320"><defs><linearGradient id="spec" x1="0" y1="0" x2="0" y2="1"><stop offset="0" stop-color="#FFFFFF" stop-opacity="0.55" /><stop offset="0.32" stop-color="#FFFFFF" stop-opacity="0.10" /><stop offset="1" stop-color="#FFFFFF" stop-opacity="0" /></linearGradient><linearGradient id="edge" x1="0" y1="0" x2="0" y2="1"><stop offset="0" stop-color="#F0EFEA" stop-opacity="0" /><stop offset="1" stop-color="#F0EFEA" stop-opacity="0.95" /></linearGradient></defs><rect x="0" y="0" width="1180" height="320" rx="24" fill="#F0EFEA" /><rect x="100" y="40" width="460" height="240" rx="20" fill="#FAF9F6" /><rect x="100" y="40" width="460" height="240" rx="20" fill="none" stroke="#303B36" stroke-width="1" opacity="0.10" /><text x="124" y="74" font-size="15" fill="#303B36" font-family="Noto Sans KR, Apple SD Gothic Neo, sans-serif" font-weight="600">1절 · 이전 필사</text><text x="536" y="74" font-size="13" fill="#5F6862" font-family="Noto Sans KR, Apple SD Gothic Neo, sans-serif" text-anchor="end">0회</text><path d="M100 96h460" stroke="#303B36" stroke-width="1" opacity="0.10" /><text x="330" y="168" font-size="15" fill="#303B36" font-family="Noto Sans KR, Apple SD Gothic Neo, sans-serif" text-anchor="middle">아직 이 절의 이전 필사가 없어요.</text><text x="330" y="194" font-size="12" fill="#5F6862" font-family="Noto Sans KR, Apple SD Gothic Neo, sans-serif" text-anchor="middle">이전 필사 기록이 생기면 여기에 보여요.</text><rect x="620" y="40" width="460" height="240" rx="20" fill="#FAF9F6" /><rect x="620" y="40" width="460" height="240" rx="20" fill="none" stroke="#303B36" stroke-width="1" opacity="0.10" /><text x="644" y="74" font-size="15" fill="#303B36" font-family="Noto Sans KR, Apple SD Gothic Neo, sans-serif" font-weight="600">1절 · 이전 필사</text><text x="1056" y="74" font-size="13" fill="#5F6862" font-family="Noto Sans KR, Apple SD Gothic Neo, sans-serif" text-anchor="end">3회</text><path d="M620 96h460" stroke="#303B36" stroke-width="1" opacity="0.10" /><rect x="644" y="116" width="412" height="60" rx="10" fill="#FAF9F6" stroke="#DFE2DB" /><text x="850" y="152" font-size="13" fill="#A4453C" font-family="Noto Sans KR, Apple SD Gothic Neo, sans-serif" text-anchor="middle">불러올 수 없는 필사 데이터</text><text x="644" y="208" font-size="13" fill="#303B36" font-family="Noto Sans KR, Apple SD Gothic Neo, sans-serif">불러올 수 없는 회차가 하나 있어요.</text><text x="644" y="230" font-size="12" fill="#5F6862" font-family="Noto Sans KR, Apple SD Gothic Neo, sans-serif">다른 회차는 정상이고 이 회차만 건너뛰어요.</text></svg>