<svg xmlns="http://www.w3.org/2000/svg" width="1180" height="820" viewBox="0 0 1180 820"><defs><linearGradient id="spec" x1="0" y1="0" x2="0" y2="1"><stop offset="0" stop-color="#FFFFFF" stop-opacity="0.55" /><stop offset="0.32" stop-color="#FFFFFF" stop-opacity="0.10" /><stop offset="1" stop-color="#FFFFFF" stop-opacity="0" /></linearGradient><linearGradient id="dspec" x1="0" y1="0" x2="0" y2="1"><stop offset="0" stop-color="#FFFFFF" stop-opacity="0.10" /><stop offset="0.4" stop-color="#FFFFFF" stop-opacity="0.02" /><stop offset="1" stop-color="#FFFFFF" stop-opacity="0" /></linearGradient><linearGradient id="edge" x1="0" y1="0" x2="0" y2="1"><stop offset="0" stop-color="#F0EFEA" stop-opacity="0" /><stop offset="1" stop-color="#F0EFEA" stop-opacity="0.95" /></linearGradient><linearGradient id="dedge" x1="0" y1="0" x2="0" y2="1"><stop offset="0" stop-color="#2A302D" stop-opacity="0" /><stop offset="1" stop-color="#2A302D" stop-opacity="0.95" /></linearGradient></defs><g id="k3" data-name="필사 화면 · 다크"><rect x="0" y="0" width="1180" height="820" rx="24" fill="#1B1F1D" /><text x="28" y="24" font-size="12" fill="#E8EAE7" font-family="Noto Sans KR, Apple SD Gothic Neo, sans-serif">9:41</text><text x="1152" y="24" font-size="12" fill="#E8EAE7" font-family="Noto Sans KR, Apple SD Gothic Neo, sans-serif" text-anchor="end">Wi-Fi  100%</text><rect x="28" y="52" width="44" height="44" rx="12" fill="#2A302D" opacity="0.92" /><rect x="28" y="52" width="44" height="44" rx="12" fill="none" stroke="#FFFFFF" opacity="0.08" /><g transform="translate(38 62) scale(1)" fill="none" stroke="#E8EAE7" stroke-width="1.7" stroke-linecap="round" stroke-linejoin="round"><title>서재</title><path d="M5 4h14a2 2 0 0 1 2 2v12a2 2 0 0 1-2 2H5a2 2 0 0 1-2-2V6a2 2 0 0 1 2-2zM10 4v16" /></g><text x="590.0" y="84" font-size="26" fill="#E8EAE7" font-family="Noto Serif KR, AppleMyungjo, serif" text-anchor="middle">시편 23편</text><text x="590.0" y="108" font-size="12" fill="#A3ABA5" font-family="Noto Sans KR, Apple SD Gothic Neo, sans-serif" text-anchor="middle">개역한글</text><rect x="1000" y="52" width="44" height="44" rx="12" fill="#2A302D" opacity="0.92" /><rect x="1000" y="52" width="44" height="44" rx="12" fill="none" stroke="#FFFFFF" opacity="0.08" /><g transform="translate(1010 62) scale(1)" fill="none" stroke="#E8EAE7" stroke-width="1.7" stroke-linecap="round" stroke-linejoin="round"><title>이전 장</title><path d="M19 12H5m6-6-6 6 6 6" /></g><rect x="1048" y="52" width="44" height="44" rx="12" fill="#2A302D" opacity="0.92" /><rect x="1048" y="52" width="44" height="44" rx="12" fill="none" stroke="#FFFFFF" opacity="0.08" /><g transform="translate(1058 62) scale(1)" fill="none" stroke="#E8EAE7" stroke-width="1.7" stroke-linecap="round" stroke-linejoin="round"><title>다음 장</title><path d="M5 12h14m-6-6 6 6-6 6" /></g><rect x="1108" y="52" width="44" height="44" rx="12" fill="#37443C" /><rect x="1108" y="52" width="44" height="44" rx="12" fill="none" stroke="#8FB79A" opacity="0.5" /><g transform="translate(1118 62) scale(1)"><title>본문 설정</title><text x="0" y="19" font-size="16" fill="#8FB79A" font-family="Noto Serif KR, AppleMyungjo, serif">가</text><text x="15" y="19" font-size="10" fill="#8FB79A" font-family="Noto Serif KR, AppleMyungjo, serif">가</text></g><g id="paper-k3" data-name="종이 (배경 · 열 위치 불변)"><path d="M36 124h1108a20 20 0 0 1 20 20v628a20 20 0 0 1 -20 20h-1108a20 20 0 0 1 -20 -20v-628a20 20 0 0 1 20 -20z" fill="#FAF9F6" /></g><text x="44" y="166" font-size="13" fill="#5F6862" font-family="Noto Sans KR, Apple SD Gothic Neo, sans-serif">말씀</text><text x="620" y="166" font-size="13" fill="#5F6862" font-family="Noto Sans KR, Apple SD Gothic Neo, sans-serif">나의 필사</text><text x="44" y="222" font-size="13" fill="#476550" font-family="Noto Sans KR, Apple SD Gothic Neo, sans-serif">01</text><text x="78" y="222" font-size="20" fill="#303B36" font-family="Noto Serif KR, AppleMyungjo, serif">여호와는 나의 목자시니</text><path d="M620 235h516" stroke="#DFE2DB" /><text x="630" y="222" font-size="27.0" fill="#476550" font-family="Nanum Pen Script, Nanum Pen, cursive" data-role="handwriting">여호와는 나의 목자시니</text><text x="78" y="270" font-size="20" fill="#303B36" font-family="Noto Serif KR, AppleMyungjo, serif">내가 부족함이 없으리로다</text><path d="M620 283h516" stroke="#DFE2DB" /><text x="630" y="270" font-size="27.0" fill="#476550" font-family="Nanum Pen Script, Nanum Pen, cursive" data-role="handwriting">내가 부족함이 없으리로다</text><text x="44" y="342" font-size="13" fill="#476550" font-family="Noto Sans KR, Apple SD Gothic Neo, sans-serif">02</text><text x="78" y="342" font-size="20" fill="#303B36" font-family="Noto Serif KR, AppleMyungjo, serif">그가 나를 푸른 초장에 누이시며</text><path d="M620 355h516" stroke="#DFE2DB" /><text x="78" y="390" font-size="20" fill="#303B36" font-family="Noto Serif KR, AppleMyungjo, serif">쉴 만한 물 가으로 인도하시는도다</text><path d="M620 403h516" stroke="#DFE2DB" /><text x="44" y="462" font-size="13" fill="#476550" font-family="Noto Sans KR, Apple SD Gothic Neo, sans-serif">03</text><text x="78" y="462" font-size="20" fill="#303B36" font-family="Noto Serif KR, AppleMyungjo, serif">내 영혼을 소생시키시고 자기 이름을</text><path d="M620 475h516" stroke="#DFE2DB" /><text x="78" y="510" font-size="20" fill="#303B36" font-family="Noto Serif KR, AppleMyungjo, serif">위하여 의의 길로 인도하시는도다</text><path d="M620 523h516" stroke="#DFE2DB" /><text x="44" y="582" font-size="13" fill="#476550" font-family="Noto Sans KR, Apple SD Gothic Neo, sans-serif">04</text><text x="78" y="582" font-size="20" fill="#303B36" font-family="Noto Serif KR, AppleMyungjo, serif">내가 사망의 음침한 골짜기로 다닐지라도</text><path d="M620 595h516" stroke="#DFE2DB" /><text x="78" y="630" font-size="20" fill="#303B36" font-family="Noto Serif KR, AppleMyungjo, serif">해를 두려워하지 않을 것은 주께서 나와</text><path d="M620 643h516" stroke="#DFE2DB" /><text x="78" y="678" font-size="20" fill="#303B36" font-family="Noto Serif KR, AppleMyungjo, serif">함께 하심이라 주의 지팡이와 막대기가</text><path d="M620 691h516" stroke="#DFE2DB" /></g><g id="축소 팔레트 · 다크" data-name="축소 팔레트 · 다크"><g id="surface-g1204" data-name="어두운 표면 (불투명 · iOS 26 미만 폴백 · 유리로 쓰려면 채우기 86% + Background blur 20)"><path d="M56 742a32 32 0 1 0 64 0a32 32 0 1 0 -64 0z" fill="#2A302D" /></g><g id="rim-g1204" data-name="유리 림 (iOS 26)"><path d="M56 742a32 32 0 1 0 64 0a32 32 0 1 0 -64 0z" fill="none" stroke="#FFFFFF" stroke-width="1" opacity="0.10" /></g><g transform="translate(76 730) scale(1)" fill="none" stroke="#E8EAE7" stroke-width="1.7" stroke-linecap="round" stroke-linejoin="round"><title>펜</title><path d="m4 20 1-5L16 4a2.12 2.12 0 0 1 3 3L8 18l-4 2Zm10-14 4 4M5 15l3 3" /></g><g id="접힘 상태 실행 취소" data-name="실행 취소 · 44pt"><rect x="132" y="720" width="44" height="44" rx="14" fill="#2A302D" /><g transform="translate(142 730)" fill="none" stroke="#E8EAE7" stroke-width="1.7" stroke-linecap="round" stroke-linejoin="round"><title>실행 취소</title><path d="m8 4-5 5 5 5M3 9h11a6 6 0 0 1 0 12" /></g></g></g><g id="scrim" data-name="scrim"><rect x="0" y="0" width="1180" height="820" rx="24" fill="#000000" opacity="0.22" /></g><g id="본문 설정 팝오버 · 다크" data-name="본문 설정 팝오버 · 다크"><path d="M1098 104l-12 12h24z" fill="#2A302D" /><g id="surface-g1205" data-name="어두운 표면 (불투명 · iOS 26 미만 폴백 · 유리로 쓰려면 채우기 86% + Background blur 20)"><path d="M764 116h352a24 24 0 0 1 24 24v560a24 24 0 0 1 -24 24h-352a24 24 0 0 1 -24 -24v-560a24 24 0 0 1 24 -24z" fill="#2A302D" /></g><g id="rim-g1205" data-name="유리 림 (iOS 26)"><path d="M764 116h352a24 24 0 0 1 24 24v560a24 24 0 0 1 -24 24h-352a24 24 0 0 1 -24 -24v-560a24 24 0 0 1 24 -24z" fill="none" stroke="#FFFFFF" stroke-width="1" opacity="0.10" /></g><text x="764" y="152" font-size="16" fill="#E8EAE7" font-family="Noto Sans KR, Apple SD Gothic Neo, sans-serif" font-weight="600">본문 설정</text><path d="M740 172h400" stroke="#FFFFFF" stroke-width="1" opacity="0.08" /><text x="764" y="200" font-size="12" fill="#A3ABA5" font-family="Noto Sans KR, Apple SD Gothic Neo, sans-serif">글꼴</text><rect x="764" y="212" width="352" height="44" rx="12" fill="#FFFFFF" opacity="0.06" /><rect x="768.0" y="216" width="114.66666666666667" height="36" rx="9" fill="#37443C" /><text x="825.3333333333334" y="239" font-size="13" fill="#E8EAE7" font-family="Noto Sans KR, Apple SD Gothic Neo, sans-serif" text-anchor="middle">나눔바른고딕</text><text x="940.0" y="239" font-size="13" fill="#A3ABA5" font-family="Noto Serif KR, AppleMyungjo, serif" text-anchor="middle">나눔명조</text><text x="1054.6666666666667" y="239" font-size="13" fill="#A3ABA5" font-family="Noto Sans KR, Apple SD Gothic Neo, sans-serif" text-anchor="middle">나눔꽃향기</text><text x="764" y="286" font-size="13" fill="#E8EAE7" font-family="Noto Sans KR, Apple SD Gothic Neo, sans-serif">글자 크기</text><text x="1116" y="286" font-size="13" fill="#8FB79A" font-family="Noto Sans KR, Apple SD Gothic Neo, sans-serif" text-anchor="end">20 pt</text><rect x="764" y="306" width="352" height="4" rx="2" fill="#FFFFFF" opacity="0.16" /><rect x="764" y="306" width="70.39999999999998" height="4" rx="2" fill="#8FB79A" /><circle cx="834.4" cy="308" r="11" fill="#E8EAE7" /><text x="764" y="358" font-size="13" fill="#E8EAE7" font-family="Noto Sans KR, Apple SD Gothic Neo, sans-serif">줄 간격</text><text x="1116" y="358" font-size="13" fill="#8FB79A" font-family="Noto Sans KR, Apple SD Gothic Neo, sans-serif" text-anchor="end">30</text><rect x="764" y="378" width="352" height="4" rx="2" fill="#FFFFFF" opacity="0.16" /><rect x="764" y="378" width="135.38461538461536" height="4" rx="2" fill="#8FB79A" /><circle cx="899.3846153846154" cy="380" r="11" fill="#E8EAE7" /><text x="764" y="430" font-size="13" fill="#E8EAE7" font-family="Noto Sans KR, Apple SD Gothic Neo, sans-serif">자간</text><text x="1116" y="430" font-size="13" fill="#8FB79A" font-family="Noto Sans KR, Apple SD Gothic Neo, sans-serif" text-anchor="end">1</text><rect x="764" y="450" width="352" height="4" rx="2" fill="#FFFFFF" opacity="0.16" /><rect x="764" y="450" width="0.0" height="4" rx="2" fill="#8FB79A" /><circle cx="764.0" cy="452" r="11" fill="#E8EAE7" /><path d="M740 488h400" stroke="#FFFFFF" stroke-width="1" opacity="0.08" /><text x="764" y="514" font-size="12" fill="#A3ABA5" font-family="Noto Sans KR, Apple SD Gothic Neo, sans-serif">화면과 필기</text><text x="764" y="542" font-size="15" fill="#E8EAE7" font-family="Noto Sans KR, Apple SD Gothic Neo, sans-serif">왼손 사용자용 화면</text><rect x="1065" y="533" width="51" height="31" rx="15.5" fill="#FFFFFF" opacity="0.18" /><circle cx="1080.5" cy="548.5" r="13.5" fill="#FFFFFF" /><text x="764" y="560" font-size="11" fill="#A3ABA5" font-family="Noto Sans KR, Apple SD Gothic Neo, sans-serif">필기 열이 왼쪽으로 가요</text><text x="764" y="598" font-size="15" fill="#E8EAE7" font-family="Noto Sans KR, Apple SD Gothic Neo, sans-serif">손가락 필사 허용</text><rect x="1065" y="589" width="51" height="31" rx="15.5" fill="#FFFFFF" opacity="0.18" /><circle cx="1080.5" cy="604.5" r="13.5" fill="#FFFFFF" /><text x="764" y="616" font-size="11" fill="#A3ABA5" font-family="Noto Sans KR, Apple SD Gothic Neo, sans-serif">끄면 Apple Pencil로만 필사할 수 있어요</text><path d="M740 640h400" stroke="#FFFFFF" stroke-width="1" opacity="0.08" /><rect x="764" y="656" width="352" height="44" rx="12" fill="#FFFFFF" opacity="0.06" /><text x="940.0" y="684" font-size="14" fill="#8FB79A" font-family="Noto Sans KR, Apple SD Gothic Neo, sans-serif" text-anchor="middle">본문 모양 초기화</text></g></svg>