<svg xmlns="http://www.w3.org/2000/svg" width="1180" height="820" viewBox="0 0 1180 820"><defs><linearGradient id="spec" x1="0" y1="0" x2="0" y2="1"><stop offset="0" stop-color="#FFFFFF" stop-opacity="0.55" /><stop offset="0.32" stop-color="#FFFFFF" stop-opacity="0.10" /><stop offset="1" stop-color="#FFFFFF" stop-opacity="0" /></linearGradient><linearGradient id="edge" x1="0" y1="0" x2="0" y2="1"><stop offset="0" stop-color="#F0EFEA" stop-opacity="0" /><stop offset="1" stop-color="#F0EFEA" stop-opacity="0.95" /></linearGradient></defs><rect x="0" y="0" width="1180" height="820" rx="24" fill="#F0EFEA" /><text x="28" y="24" font-size="12" fill="#303B36" font-family="Noto Sans KR, Apple SD Gothic Neo, sans-serif">9:41</text><text x="1152" y="24" font-size="12" fill="#303B36" font-family="Noto Sans KR, Apple SD Gothic Neo, sans-serif" text-anchor="end">Wi-Fi  100%</text><rect x="28" y="52" width="44" height="44" rx="12" fill="#F0EFEA" opacity="0.72" /><rect x="28" y="52" width="44" height="44" rx="12" fill="none" stroke="#FFFFFF" opacity="0.6" /><g transform="translate(38 62) scale(1)" fill="none" stroke="#303B36" stroke-width="1.7" stroke-linecap="round" stroke-linejoin="round"><title>이전 장</title><path d="M19 12H5m6-6-6 6 6 6" /></g><text x="590" y="84" font-size="20" fill="#303B36" font-family="Noto Sans KR, Apple SD Gothic Neo, sans-serif" text-anchor="middle" font-weight="600">차트</text><g id="주 이동" data-name="주 이동"><rect x="388" y="128" width="44" height="44" rx="12" fill="#F0EFEA" opacity="0.72" /><rect x="388" y="128" width="44" height="44" rx="12" fill="none" stroke="#FFFFFF" opacity="0.6" /><g transform="translate(398 138) scale(1)" fill="none" stroke="#303B36" stroke-width="1.7" stroke-linecap="round" stroke-linejoin="round"><title>왼쪽</title><path d="M15 5l-7 7 7 7" /></g><rect x="748" y="128" width="44" height="44" rx="12" fill="#F0EFEA" opacity="0.72" /><rect x="748" y="128" width="44" height="44" rx="12" fill="none" stroke="#FFFFFF" opacity="0.6" /><g transform="translate(758 138) scale(1)" fill="none" stroke="#303B36" stroke-width="1.7" stroke-linecap="round" stroke-linejoin="round"><title>오른쪽</title><path d="M9 5l7 7-7 7" /></g><text x="590" y="158" font-size="15" fill="#303B36" font-family="Noto Sans KR, Apple SD Gothic Neo, sans-serif" text-anchor="middle">9월 4일 – 9월 10일</text><text x="590" y="178" font-size="11" fill="#5F6862" font-family="Noto Sans KR, Apple SD Gothic Neo, sans-serif" text-anchor="middle">이번 주</text></g><g id="주간 필사량" data-name="주간 필사량"><rect x="40" y="196" width="1100" height="300" rx="20" fill="#FAF9F6" /><rect x="40" y="196" width="1100" height="300" rx="20" fill="none" stroke="#303B36" stroke-width="1" opacity="0.08" /><text x="92" y="441.0" font-size="12" fill="#5F6862" font-family="Noto Sans KR, Apple SD Gothic Neo, sans-serif" text-anchor="end">0</text><path d="M104 436.0h1016" stroke="#303B36" stroke-width="1" opacity="0.07" /><text x="92" y="356.0" font-size="12" fill="#5F6862" font-family="Noto Sans KR, Apple SD Gothic Neo, sans-serif" text-anchor="end">2</text><path d="M104 351.0h1016" stroke="#303B36" stroke-width="1" opacity="0.07" /><text x="92" y="271.0" font-size="12" fill="#5F6862" font-family="Noto Sans KR, Apple SD Gothic Neo, sans-serif" text-anchor="end">4</text><path d="M104 266.0h1016" stroke="#303B36" stroke-width="1" opacity="0.07" /><text x="174.0" y="428" font-size="12" fill="#DFE2DB" font-family="Noto Sans KR, Apple SD Gothic Neo, sans-serif" text-anchor="middle">0</text><text x="174.0" y="466" font-size="12" fill="#DFE2DB" font-family="Noto Sans KR, Apple SD Gothic Neo, sans-serif" text-anchor="middle">9. 4 목</text><rect x="288.0" y="351.0" width="52" height="85.0" rx="10" fill="#476550" /><rect x="298.0" y="319.0" width="32" height="24" rx="12" fill="#E4EBE2" /><text x="314.0" y="336.0" font-size="12" fill="#476550" font-family="Noto Sans KR, Apple SD Gothic Neo, sans-serif" text-anchor="middle">2</text><text x="314.0" y="466" font-size="12" fill="#5F6862" font-family="Noto Sans KR, Apple SD Gothic Neo, sans-serif" text-anchor="middle">9. 5 금</text><rect x="428.0" y="308.5" width="52" height="127.5" rx="10" fill="#476550" /><rect x="438.0" y="276.5" width="32" height="24" rx="12" fill="#E4EBE2" /><text x="454.0" y="293.5" font-size="12" fill="#476550" font-family="Noto Sans KR, Apple SD Gothic Neo, sans-serif" text-anchor="middle">3</text><text x="454.0" y="466" font-size="12" fill="#5F6862" font-family="Noto Sans KR, Apple SD Gothic Neo, sans-serif" text-anchor="middle">9. 6 토</text><text x="594.0" y="428" font-size="12" fill="#DFE2DB" font-family="Noto Sans KR, Apple SD Gothic Neo, sans-serif" text-anchor="middle">0</text><text x="594.0" y="466" font-size="12" fill="#DFE2DB" font-family="Noto Sans KR, Apple SD Gothic Neo, sans-serif" text-anchor="middle">9. 7 일</text><rect x="708.0" y="393.5" width="52" height="42.5" rx="10" fill="#476550" /><rect x="718.0" y="361.5" width="32" height="24" rx="12" fill="#E4EBE2" /><text x="734.0" y="378.5" font-size="12" fill="#476550" font-family="Noto Sans KR, Apple SD Gothic Neo, sans-serif" text-anchor="middle">1</text><text x="734.0" y="466" font-size="12" fill="#5F6862" font-family="Noto Sans KR, Apple SD Gothic Neo, sans-serif" text-anchor="middle">9. 8 월</text><rect x="848.0" y="308.5" width="52" height="127.5" rx="10" fill="#476550" /><rect x="858.0" y="276.5" width="32" height="24" rx="12" fill="#E4EBE2" /><text x="874.0" y="293.5" font-size="12" fill="#476550" font-family="Noto Sans KR, Apple SD Gothic Neo, sans-serif" text-anchor="middle">3</text><text x="874.0" y="466" font-size="12" fill="#5F6862" font-family="Noto Sans KR, Apple SD Gothic Neo, sans-serif" text-anchor="middle">9. 9 화</text><rect x="988.0" y="308.5" width="52" height="127.5" rx="10" fill="#476550" /><rect x="998.0" y="276.5" width="32" height="24" rx="12" fill="#E4EBE2" /><text x="1014.0" y="293.5" font-size="12" fill="#476550" font-family="Noto Sans KR, Apple SD Gothic Neo, sans-serif" text-anchor="middle">3</text><text x="1014.0" y="466" font-size="12" fill="#5F6862" font-family="Noto Sans KR, Apple SD Gothic Neo, sans-serif" text-anchor="middle">9. 10 수</text><text x="64" y="226" font-size="12" fill="#5F6862" font-family="Noto Sans KR, Apple SD Gothic Neo, sans-serif">하루에 필사한 절</text></g><g id="요약 타일" data-name="요약 타일"><rect x="40" y="524" width="263" height="236" rx="16" fill="#FAF9F6" /><rect x="40" y="524" width="263" height="236" rx="16" fill="none" stroke="#303B36" stroke-width="1" opacity="0.08" /><text x="60" y="554" font-size="12" fill="#5F6862" font-family="Noto Sans KR, Apple SD Gothic Neo, sans-serif">한 주 동안</text><text x="60" y="590" font-size="26" fill="#303B36" font-family="Noto Sans KR, Apple SD Gothic Neo, sans-serif">12절</text><text x="60" y="624" font-size="11" fill="#5F6862" font-family="Noto Sans KR, Apple SD Gothic Neo, sans-serif">최근</text><text x="60" y="650" font-size="13" fill="#303B36" font-family="Noto Sans KR, Apple SD Gothic Neo, sans-serif">· 시편 23편 1절</text><text x="60" y="674" font-size="13" fill="#303B36" font-family="Noto Sans KR, Apple SD Gothic Neo, sans-serif">· 시편 22편 31절</text><text x="60" y="698" font-size="13" fill="#303B36" font-family="Noto Sans KR, Apple SD Gothic Neo, sans-serif">· 시편 22편 30절</text><rect x="319" y="524" width="263" height="236" rx="16" fill="#FAF9F6" /><rect x="319" y="524" width="263" height="236" rx="16" fill="none" stroke="#303B36" stroke-width="1" opacity="0.08" /><text x="339" y="554" font-size="12" fill="#5F6862" font-family="Noto Sans KR, Apple SD Gothic Neo, sans-serif">하루 평균</text><text x="339" y="590" font-size="26" fill="#303B36" font-family="Noto Sans KR, Apple SD Gothic Neo, sans-serif">1.7절</text><text x="339" y="624" font-size="11" fill="#5F6862" font-family="Noto Sans KR, Apple SD Gothic Neo, sans-serif">최근 장</text><text x="339" y="650" font-size="13" fill="#303B36" font-family="Noto Sans KR, Apple SD Gothic Neo, sans-serif">· 시편 23편</text><text x="339" y="674" font-size="13" fill="#303B36" font-family="Noto Sans KR, Apple SD Gothic Neo, sans-serif">· 시편 22편</text><text x="339" y="698" font-size="13" fill="#303B36" font-family="Noto Sans KR, Apple SD Gothic Neo, sans-serif">· 시편 21편</text><rect x="598" y="524" width="263" height="236" rx="16" fill="#FAF9F6" /><rect x="598" y="524" width="263" height="236" rx="16" fill="none" stroke="#303B36" stroke-width="1" opacity="0.08" /><text x="618" y="554" font-size="12" fill="#5F6862" font-family="Noto Sans KR, Apple SD Gothic Neo, sans-serif">가장 많이 쓴 장</text><text x="618" y="590" font-size="22" fill="#303B36" font-family="Noto Sans KR, Apple SD Gothic Neo, sans-serif">시편 23편</text><text x="618" y="618" font-size="13" fill="#5F6862" font-family="Noto Sans KR, Apple SD Gothic Neo, sans-serif">6절</text><text x="618" y="664" font-size="13" fill="#476550" font-family="Noto Sans KR, Apple SD Gothic Neo, sans-serif">이어서 쓰기</text><rect x="877" y="524" width="263" height="236" rx="16" fill="#FAF9F6" /><rect x="877" y="524" width="263" height="236" rx="16" fill="none" stroke="#303B36" stroke-width="1" opacity="0.08" /><text x="897" y="554" font-size="12" fill="#5F6862" font-family="Noto Sans KR, Apple SD Gothic Neo, sans-serif">스폰서</text><rect x="897" y="570" width="223" height="150" rx="12" fill="#F0EFEA" /><text x="1008" y="650" font-size="13" fill="#5F6862" font-family="Noto Sans KR, Apple SD Gothic Neo, sans-serif" text-anchor="middle">광고 자리</text><rect x="1086" y="540" width="34" height="18" rx="6" fill="#E4EBE2" /><text x="1103" y="553" font-size="10" fill="#5F6862" font-family="Noto Sans KR, Apple SD Gothic Neo, sans-serif" text-anchor="middle">Ad</text></g></svg>