<svg xmlns="http://www.w3.org/2000/svg" width="820" height="1180" viewBox="0 0 820 1180"><defs><linearGradient id="spec" x1="0" y1="0" x2="0" y2="1"><stop offset="0" stop-color="#FFFFFF" stop-opacity="0.55" /><stop offset="0.32" stop-color="#FFFFFF" stop-opacity="0.10" /><stop offset="1" stop-color="#FFFFFF" stop-opacity="0" /></linearGradient><linearGradient id="edge" x1="0" y1="0" x2="0" y2="1"><stop offset="0" stop-color="#F0EFEA" stop-opacity="0" /><stop offset="1" stop-color="#F0EFEA" stop-opacity="0.95" /></linearGradient></defs><g id="M1" data-name="기본 필사 · 세로"><rect x="0" y="0" width="820" height="1180" rx="24" fill="#FAF9F6" /><text x="28" y="24" font-size="12" fill="#303B36" font-family="Noto Sans KR, Apple SD Gothic Neo, sans-serif">9:41</text><text x="792" y="24" font-size="12" fill="#303B36" font-family="Noto Sans KR, Apple SD Gothic Neo, sans-serif" text-anchor="end">Wi-Fi  100%</text><rect x="28" y="52" width="44" height="44" rx="12" fill="#F0EFEA" opacity="0.72" /><rect x="28" y="52" width="44" height="44" rx="12" fill="none" stroke="#FFFFFF" opacity="0.6" /><g transform="translate(38 62) scale(1)" fill="none" stroke="#303B36" stroke-width="1.7" stroke-linecap="round" stroke-linejoin="round"><title>서재</title><path d="M5 4h14a2 2 0 0 1 2 2v12a2 2 0 0 1-2 2H5a2 2 0 0 1-2-2V6a2 2 0 0 1 2-2zM10 4v16" /></g><text x="410.0" y="84" font-size="26" fill="#303B36" font-family="Noto Serif KR, AppleMyungjo, serif" text-anchor="middle">시편 23편</text><text x="410.0" y="108" font-size="12" fill="#5F6862" font-family="Noto Sans KR, Apple SD Gothic Neo, sans-serif" text-anchor="middle">개역한글 · 구약 / 시편</text><rect x="640" y="52" width="44" height="44" rx="12" fill="#F0EFEA" opacity="0.72" /><rect x="640" y="52" width="44" height="44" rx="12" fill="none" stroke="#FFFFFF" opacity="0.6" /><g transform="translate(650 62) scale(1)" fill="none" stroke="#303B36" stroke-width="1.7" stroke-linecap="round" stroke-linejoin="round"><title>이전 장</title><path d="M19 12H5m6-6-6 6 6 6" /></g><rect x="688" y="52" width="44" height="44" rx="12" fill="#F0EFEA" opacity="0.72" /><rect x="688" y="52" width="44" height="44" rx="12" fill="none" stroke="#FFFFFF" opacity="0.6" /><g transform="translate(698 62) scale(1)" fill="none" stroke="#303B36" stroke-width="1.7" stroke-linecap="round" stroke-linejoin="round"><title>다음 장</title><path d="M5 12h14m-6-6 6 6-6 6" /></g><rect x="748" y="52" width="44" height="44" rx="12" fill="#F0EFEA" opacity="0.72" /><rect x="748" y="52" width="44" height="44" rx="12" fill="none" stroke="#FFFFFF" opacity="0.6" /><g transform="translate(758 62) scale(1)"><title>본문 설정</title><text x="0" y="19" font-size="16" fill="#303B36" font-family="Noto Serif KR, AppleMyungjo, serif">가</text><text x="15" y="19" font-size="10" fill="#303B36" font-family="Noto Serif KR, AppleMyungjo, serif">가</text></g><text x="38" y="166" font-size="13" fill="#5F6862" font-family="Noto Sans KR, Apple SD Gothic Neo, sans-serif">말씀</text><text x="780" y="166" font-size="13" fill="#5F6862" font-family="Noto Sans KR, Apple SD Gothic Neo, sans-serif" text-anchor="end">나의 필사 · 절을 길게 눌러 더 보기</text><text x="38" y="204" font-size="11" fill="#476550" font-family="Noto Sans KR, Apple SD Gothic Neo, sans-serif">01</text><text x="72" y="222" font-size="20" fill="#303B36" font-family="Noto Serif KR, AppleMyungjo, serif">여호와는 나의 목자시니</text><path d="M430 235h350" stroke="#DFE2DB" /><g fill="#476550" data-role="handwriting" data-name="필기 · 여호와는 나의 목자시니" aria-label="여호와는 나의 목자시니"><title>여호와는 나의 목자시니</title><path d="M468 533Q469 541 475.0 550.5Q481 560 495 560Q513 557 523.5 539.0Q534 521 531 500Q526 471 523.5 432.0Q521 393 520.0 353.0Q519 313 519.0 276.5Q519 240 520 216Q520 194 512.0 180.5Q504 167 495 167Q486 167 479.0 172.5Q472 178 466.5 186.5Q461 195 458.0 205.0Q455 215 455 223Q453 254 452.5 295.0Q452 336 454 381Q416 352 370.0 327.0Q324 302 273 285Q253 278 233.5 284.5Q214 291 212 304Q211 311 215.0 317.0Q219 323 224.0 327.5Q229 332 235.0 334.5Q241 337 244 339Q271 351 301.5 364.5Q332 378 361.5 394.0Q391 410 416.5 427.0Q442 444 459 463Q462 501 468 533ZM159 270Q145 260 125.5 256.0Q106 252 86 257Q57 265 47.5 291.5Q38 318 41 350Q43 368 48.5 386.0Q54 404 61.5 420.0Q69 436 79.0 447.5Q89 459 100 465Q108 469 114.5 468.0Q121 467 125.5 464.0Q130 461 133.5 457.0Q137 453 140 450Q149 461 160.0 469.5Q171 478 190 486Q237 503 288.5 510.0Q340 517 389 499Q397 496 399.0 490.0Q401 484 400 480Q398 469 389.0 464.5Q380 460 369 459Q342 460 314.5 457.5Q287 455 261.5 449.5Q236 444 213.0 436.0Q190 428 172 420Q184 402 188.0 380.0Q192 358 189.5 336.5Q187 315 179.0 297.0Q171 279 159 270ZM149 362Q150 369 149.0 377.5Q148 386 146.5 393.0Q145 400 142.5 405.0Q140 410 139 410Q130 404 122.5 391.5Q115 379 110.5 364.5Q106 350 105.0 336.0Q104 322 107 314Q110 312 115.5 313.0Q121 314 127.5 318.5Q134 323 140.0 333.5Q146 344 149 362Z" transform="translate(440.0000 222.0) scale(0.025650 -0.025650)" /><path d="M147 591Q135 583 126.0 588.5Q117 594 114 602Q102 630 86.5 661.5Q71 693 42 726Q35 736 40 747Q45 756 57 756Q71 756 83.0 750.0Q95 744 106 735Q115 727 123.5 714.5Q132 702 139.5 687.0Q147 672 152.0 656.0Q157 640 160 626Q162 618 159.0 609.0Q156 600 147 591ZM132 557Q160 559 186 552Q208 547 213.5 531.0Q219 515 211 498Q205 485 191.0 467.5Q177 450 162.5 430.0Q148 410 137.0 388.5Q126 367 128 346Q135 343 150.0 346.5Q165 350 181.0 359.5Q197 369 208.5 382.5Q220 396 220 412Q220 420 221.0 429.0Q222 438 233 441Q243 443 250.0 434.5Q257 426 259 418Q264 398 259.0 377.5Q254 357 233 337Q236 306 237.5 279.0Q239 252 237.0 226.5Q235 201 229.0 175.0Q223 149 210 121Q261 132 317.0 135.0Q373 138 425 134Q440 131 447.5 121.5Q455 112 454 103Q452 87 440.5 79.5Q429 72 412 72Q359 74 300.0 70.0Q241 66 184 60Q176 59 165.0 59.5Q154 60 143.0 63.0Q132 66 124.5 72.5Q117 79 117 91Q117 98 119.5 104.0Q122 110 126.5 117.0Q131 124 136.0 132.0Q141 140 147 151Q158 174 167.5 210.5Q177 247 177 292Q172 289 163.0 284.5Q154 280 141.5 277.0Q129 274 115.0 275.0Q101 276 87 284Q59 305 59.0 335.5Q59 366 72.5 397.0Q86 428 106.0 456.0Q126 484 139 499Q121 497 95.0 493.0Q69 489 51 485Q44 484 37.0 486.5Q30 489 24.5 493.0Q19 497 15.5 502.0Q12 507 12 511Q11 533 40 542Q58 548 83.5 552.0Q109 556 132 557Z" transform="translate(454.9796 222.0) scale(0.025650 -0.025650)" /><path d="M324 261Q331 262 339.5 262.5Q348 263 355.5 262.0Q363 261 367.5 257.5Q372 254 372 248Q370 233 356.0 221.5Q342 210 320 204Q298 198 269.5 189.5Q241 181 210.5 172.0Q180 163 149.5 154.0Q119 145 94 136Q76 129 57.5 131.5Q39 134 35 148Q32 156 42.0 170.0Q52 184 84 198Q93 202 106.0 206.0Q119 210 133 215Q136 251 137.5 287.0Q139 323 141 361H131Q108 361 91.5 370.5Q75 380 65.0 394.5Q55 409 51.5 427.0Q48 445 52 463Q60 498 82.5 523.5Q105 549 128 568Q144 581 154.5 579.5Q165 578 171 570Q180 559 178 544Q188 547 200.5 549.0Q213 551 224 547Q239 541 246.5 527.5Q254 514 256.0 498.5Q258 483 256.0 468.0Q254 453 250 444Q234 406 200 383Q200 344 199.0 307.0Q198 270 196 233Q236 244 272.0 251.5Q308 259 324 261ZM481 181Q481 170 473.0 164.5Q465 159 456 161Q447 163 440.0 169.5Q433 176 428.5 185.0Q424 194 421.5 203.5Q419 213 419 220Q417 256 417.0 296.0Q417 336 418.0 376.5Q419 417 421.0 455.5Q423 494 426 527Q427 541 441.0 547.5Q455 554 466 550Q476 546 484.5 537.0Q493 528 492 514Q489 486 487.0 456.0Q485 426 483 394Q516 405 556.5 411.0Q597 417 642 414Q654 413 661.0 407.0Q668 401 669 396Q670 391 666.0 385.0Q662 379 650 375Q618 364 573.0 351.5Q528 339 481 333Q478 252 481 181ZM160 510Q143 496 130.5 475.5Q118 455 123 429Q145 430 164.5 444.5Q184 459 195 477Q203 489 205.0 502.0Q207 515 193 517Q178 518 162 511Q160 510 160 510Z" transform="translate(466.7786 222.0) scale(0.025650 -0.025650)" /><path d="M125 483Q153 489 183.5 496.0Q214 503 244.5 508.0Q275 513 305.5 515.0Q336 517 364 512Q375 509 379.5 501.5Q384 494 381 485Q378 475 363.5 471.0Q349 467 334 464Q305 459 281.5 454.5Q258 450 237.0 445.5Q216 441 195.5 436.0Q175 431 151 425Q120 417 102.0 424.5Q84 432 79 437Q69 447 65.5 458.5Q62 470 60 484Q58 501 58.5 522.0Q59 543 62.0 564.0Q65 585 69.0 603.5Q73 622 78 634Q81 643 90.0 646.0Q99 649 110 645Q122 640 129.5 625.5Q137 611 135 603Q128 574 125.0 543.0Q122 512 125 483ZM78 262Q59 261 41.0 267.0Q23 273 19 293Q19 306 33.0 314.5Q47 323 70 327Q159 341 233.0 347.0Q307 353 379 347Q398 342 398 328Q398 317 391.0 309.5Q384 302 364 300Q328 295 296.5 291.0Q265 287 232.0 283.0Q199 279 161.5 274.0Q124 269 78 262ZM186 243Q190 243 196.5 240.0Q203 237 209.0 231.0Q215 225 219.0 217.5Q223 210 223 201Q222 190 220.0 177.0Q218 164 215.5 150.5Q213 137 211.5 124.0Q210 111 209 101Q265 106 316.5 120.5Q368 135 413 149Q421 152 430.0 147.0Q439 142 444 135Q450 126 445.0 115.0Q440 104 434 101Q410 87 380.5 75.0Q351 63 319.5 54.5Q288 46 257.0 40.0Q226 34 200 32Q178 30 165.5 35.5Q153 41 147.0 50.0Q141 59 139.5 71.0Q138 83 140 95Q145 130 149.0 160.5Q153 191 161 222Q163 233 170.0 238.0Q177 243 186 243Z" transform="translate(483.9641 222.0) scale(0.025650 -0.025650)" /><path d="M582 423Q550 412 523.0 403.0Q496 394 461 382Q447 377 434.0 379.0Q421 381 410 386Q412 321 420.0 272.5Q428 224 436 186Q438 178 433.5 169.5Q429 161 416 163Q405 165 393.0 173.5Q381 182 376 197Q362 235 354.5 279.5Q347 324 345.0 370.0Q343 416 345.0 460.0Q347 504 352 542Q355 563 362.0 572.0Q369 581 376 581Q399 581 408.0 559.0Q417 537 415 512Q413 490 412.0 470.0Q411 450 410 430Q442 446 486.5 457.5Q531 469 579 476Q620 482 621 465Q623 451 611.0 439.5Q599 428 582 423ZM116 448Q111 425 108.0 400.0Q105 375 104.0 351.0Q103 327 104.0 305.0Q105 283 107 267Q141 278 181.5 307.5Q222 337 256 371Q265 381 273.5 386.5Q282 392 290 387Q291 386 291.0 380.0Q291 374 289.5 366.0Q288 358 284.5 349.0Q281 340 275 333Q242 288 208.0 258.0Q174 228 134 206Q118 197 101.5 196.0Q85 195 74 206Q53 228 46.0 265.5Q39 303 40.0 342.0Q41 381 47.5 414.5Q54 448 59 463Q63 474 70.0 478.0Q77 482 85 483Q99 484 109.0 473.0Q119 462 116 448Z" transform="translate(501.9191 222.0) scale(0.025650 -0.025650)" /><path d="M214 501Q229 495 236.5 481.5Q244 468 246.0 452.5Q248 437 246.0 422.0Q244 407 240 398Q226 364 193.5 339.5Q161 315 121 315Q98 315 81.5 324.5Q65 334 55.0 348.5Q45 363 41.5 381.0Q38 399 42 417Q50 452 72.5 477.5Q95 503 118 522Q134 535 144.5 533.5Q155 532 161 524Q170 513 168 498Q178 501 190.5 503.0Q203 505 214 501ZM455 194Q455 183 447.0 177.5Q439 172 430 174Q421 176 414.0 182.5Q407 189 402.5 198.0Q398 207 395.5 216.5Q393 226 393 233Q390 305 392.5 380.0Q395 455 401 522Q403 536 415.5 542.5Q428 549 439 545Q449 541 457.5 532.0Q466 523 465 509Q457 433 455.5 352.0Q454 271 455 194ZM314 280Q321 281 329.5 281.5Q338 282 345.5 281.0Q353 280 357.5 276.5Q362 273 362 267Q360 252 346.0 240.5Q332 229 310 223Q288 217 259.5 208.5Q231 200 200.5 191.0Q170 182 139.5 173.0Q109 164 84 155Q66 148 47.5 150.5Q29 153 25 167Q22 175 32.0 189.0Q42 203 74 217Q94 225 129.0 235.5Q164 246 200.0 255.5Q236 265 268.0 272.0Q300 279 314 280ZM150 464Q133 450 120.5 429.5Q108 409 113 383Q135 384 154.5 398.5Q174 413 185 431Q193 443 195.0 456.0Q197 469 183 471Q168 472 152 465Q150 464 150 464Z" transform="translate(518.0530 222.0) scale(0.025650 -0.025650)" /><path d="M287 475Q273 426 256.0 362.0Q239 298 229 239Q271 250 312.0 262.0Q353 274 376 281Q383 283 392.5 284.0Q402 285 411.5 283.5Q421 282 428.0 277.0Q435 272 436 262Q438 242 415 232Q395 223 360.5 211.0Q326 199 288.0 188.0Q250 177 215.0 168.5Q180 160 160 158Q143 156 125.5 158.0Q108 160 103 174Q99 185 108.5 197.0Q118 209 137 214Q144 215 155 219Q166 281 185.0 347.0Q204 413 224 468Q207 462 189.0 455.0Q171 448 154 443Q135 438 118.0 437.0Q101 436 95 452Q88 469 96.0 478.5Q104 488 116 503Q154 551 191.0 596.0Q228 641 259 698Q250 698 232.5 693.5Q215 689 195.5 683.0Q176 677 158.0 670.5Q140 664 131 661Q120 657 107.0 656.5Q94 656 85 667Q83 637 84.5 609.0Q86 581 93 543Q95 520 89.5 514.5Q84 509 79 507Q72 505 65.5 509.0Q59 513 53.0 520.0Q47 527 42.5 535.0Q38 543 37 549Q22 607 22.0 655.0Q22 703 29 741Q33 763 41.5 770.5Q50 778 55 778Q77 778 84.0 760.5Q91 743 89 723Q88 719 88 711Q90 713 92 714Q106 721 129.0 730.0Q152 739 178.0 746.0Q204 753 229.0 758.0Q254 763 272 763Q309 763 322.5 743.0Q336 723 328 693Q324 679 309.5 654.0Q295 629 276.5 603.0Q258 577 240.5 554.5Q223 532 213 524Q256 538 277.0 525.5Q298 513 287 475ZM388 -82Q386 -89 375.0 -100.5Q364 -112 347 -109Q338 -107 330.5 -97.5Q323 -88 326 -73Q331 -44 334.0 -14.0Q337 16 338 45Q314 39 286.0 28.5Q258 18 235 9Q222 4 209.5 7.5Q197 11 192 24Q189 35 195.0 45.5Q201 56 209 61Q218 67 235.0 75.0Q252 83 271.0 90.5Q290 98 308.0 103.5Q326 109 338 110Q372 112 387.5 96.0Q403 80 402 51Q401 20 398.0 -17.0Q395 -54 388 -82Z" transform="translate(538.5729 222.0) scale(0.025650 -0.025650)" /><path d="M297 155Q302 144 303.5 132.5Q305 121 297 116Q286 111 273.5 115.5Q261 120 253 127Q238 142 224.5 164.0Q211 186 199.5 210.0Q188 234 179.0 258.5Q170 283 165 303Q164 303 164 304Q153 279 142.0 253.5Q131 228 122 201Q117 189 112.0 181.0Q107 173 99 172Q89 171 83.0 176.0Q77 181 74.0 188.0Q71 195 70.5 202.5Q70 210 70 214Q71 236 81.5 265.5Q92 295 107.0 326.5Q122 358 139.5 388.5Q157 419 173 443Q147 433 120.5 416.5Q94 400 71 380Q54 366 40.5 365.5Q27 365 20 374Q3 399 33 431Q61 457 97.0 479.5Q133 502 176 508Q195 511 213.5 504.5Q232 498 239 479Q246 454 220 408Q212 394 203.5 378.5Q195 363 187 347Q197 345 206.0 338.5Q215 332 218 324Q232 276 253.0 234.5Q274 193 297 155ZM371 532Q371 555 375.0 573.5Q379 592 396 594Q413 596 423.0 586.0Q433 576 434 560Q435 515 437.5 467.5Q440 420 444 372Q473 392 509.5 412.5Q546 433 579 437Q595 439 606.5 436.0Q618 433 620 422Q621 415 617.5 407.0Q614 399 604 393Q572 375 530.0 349.5Q488 324 451 297Q454 271 457.0 246.0Q460 221 464 198Q469 171 460.0 162.0Q451 153 437 151Q429 150 422.5 157.5Q416 165 411.0 176.0Q406 187 402.5 200.0Q399 213 397 224Q385 295 379.0 377.5Q373 460 371 532Z" transform="translate(550.1411 222.0) scale(0.025650 -0.025650)" /><path d="M223 521Q205 504 184.5 479.5Q164 455 144.5 426.0Q125 397 108.0 364.0Q91 331 81 296Q79 291 78.5 283.5Q78 276 74.5 269.5Q71 263 63.5 260.0Q56 257 41 262Q21 269 18.5 283.0Q16 297 18 308Q24 337 39.0 372.5Q54 408 75.5 443.0Q97 478 122.0 509.0Q147 540 173 560Q178 564 192.5 570.0Q207 576 221 570Q233 565 237.5 551.5Q242 538 223 521ZM234 389Q236 367 240.0 339.5Q244 312 249.5 283.5Q255 255 261.0 227.5Q267 200 273 179Q278 166 274.5 155.0Q271 144 259 140Q248 137 236.0 145.0Q224 153 219 164Q210 183 203.0 210.0Q196 237 190.0 266.0Q184 295 180.0 323.5Q176 352 174 373Q174 379 174.0 388.0Q174 397 176.0 405.0Q178 413 182.0 418.5Q186 424 194 425Q202 426 215.0 419.5Q228 413 234 389ZM440 157Q423 160 415.0 179.0Q407 198 405 220Q402 259 400.0 304.0Q398 349 398.0 395.0Q398 441 399.5 486.5Q401 532 405 573Q407 596 417.5 612.0Q428 628 443 628Q457 628 464.0 616.5Q471 605 471 594Q464 497 464.5 392.5Q465 288 470 195Q471 175 462.5 165.0Q454 155 440 157Z" transform="translate(566.1467 222.0) scale(0.025650 -0.025650)" /><path d="M172 231Q157 221 140.0 218.0Q123 215 106 225Q82 240 67.5 269.0Q53 298 46.5 335.0Q40 372 40.5 413.0Q41 454 47 493Q49 501 57.0 510.5Q65 520 79 519Q90 518 103.0 505.5Q116 493 114 473Q110 428 113.0 381.0Q116 334 125 299Q128 287 138.0 290.0Q148 293 155 299Q181 320 209.0 349.0Q237 378 264.0 412.5Q291 447 316.5 484.5Q342 522 363 561Q365 592 388 597Q398 598 405.0 593.5Q412 589 416.5 581.5Q421 574 423.5 566.0Q426 558 427 553Q431 521 436.0 476.0Q441 431 444.5 381.0Q448 331 449.5 281.5Q451 232 450 193Q449 176 441.5 167.5Q434 159 426 159Q408 159 399.0 169.5Q390 180 390 194Q390 253 386.0 323.0Q382 393 374 465Q357 437 333.5 403.5Q310 370 283.5 338.0Q257 306 228.0 277.5Q199 249 172 231Z" transform="translate(579.7412 222.0) scale(0.025650 -0.025650)" /></g><text x="72" y="270" font-size="20" fill="#303B36" font-family="Noto Serif KR, AppleMyungjo, serif">내가 부족함이 없으리로다</text><path d="M430 283h350" stroke="#DFE2DB" /><g fill="#476550" data-role="handwriting" data-name="필기 · 내가 부족함이 없으리로다" aria-label="내가 부족함이 없으리로다"><title>내가 부족함이 없으리로다</title><path d="M406 215Q397 215 390.0 221.5Q383 228 377.0 237.5Q371 247 366.5 258.0Q362 269 360 279Q346 341 345 398Q322 363 294.0 331.5Q266 300 238.5 275.0Q211 250 185.5 233.0Q160 216 143 210Q111 199 89.5 209.5Q68 220 60 251Q48 295 43.5 345.0Q39 395 41 438Q42 453 48.5 458.5Q55 464 63 465Q76 467 89.0 459.0Q102 451 102 437Q102 418 103.5 395.5Q105 373 107.5 351.0Q110 329 113.5 309.0Q117 289 122 274Q148 286 179.5 308.0Q211 330 242.0 358.5Q273 387 301.0 419.0Q329 451 348 482Q349 492 350.0 502.5Q351 513 353 524Q355 541 361.5 553.5Q368 566 383 561Q397 556 408.0 539.5Q419 523 415 504Q412 482 410.0 461.5Q408 441 408 420Q437 433 476.0 447.5Q515 462 545 473Q546 490 546.0 507.0Q546 524 548 541Q549 553 553.0 568.0Q557 583 567 583Q580 583 589.0 575.5Q598 568 602.5 557.5Q607 547 608.5 536.0Q610 525 610 517Q605 447 610.0 371.0Q615 295 622 226Q624 207 615.0 199.5Q606 192 601 192Q592 192 585.0 199.5Q578 207 573.0 218.0Q568 229 564.5 241.5Q561 254 560 263Q554 301 550.5 338.0Q547 375 546 413Q515 400 480.5 383.5Q446 367 409 347Q411 321 413.5 293.0Q416 265 420 235Q421 224 418.0 219.5Q415 215 406 215Z" transform="translate(440.0000 270.0) scale(0.025650 -0.025650)" /><path d="M461 599Q459 557 459.5 517.0Q460 477 462 435Q474 438 492.0 441.0Q510 444 530.0 446.0Q550 448 570.0 449.0Q590 450 607 449Q627 447 641.5 439.0Q656 431 656 419Q656 407 637.5 401.0Q619 395 603 394Q590 393 572.5 391.0Q555 389 536.0 385.5Q517 382 498.5 377.5Q480 373 466 368Q469 337 473.0 306.5Q477 276 482 245Q483 237 481.0 228.5Q479 220 475.0 213.0Q471 206 466.0 201.0Q461 196 457 195Q449 193 443.5 196.0Q438 199 434.0 204.0Q430 209 427.5 215.5Q425 222 424 227Q416 258 409.0 302.0Q402 346 398.5 397.0Q395 448 394.5 502.5Q394 557 399 610Q402 639 422 644Q429 645 436.5 641.0Q444 637 449.5 629.5Q455 622 458.0 613.5Q461 605 461 599ZM264 423Q260 406 254.0 372.5Q248 339 243.5 299.5Q239 260 237.0 221.5Q235 183 238 157Q240 136 227.0 130.0Q214 124 205 126Q197 127 191.5 132.5Q186 138 183.0 145.0Q180 152 178.5 159.0Q177 166 176 172Q174 190 175.0 223.0Q176 256 179.5 294.0Q183 332 188.5 368.0Q194 404 201 428Q188 425 170.0 419.0Q152 413 133.5 405.5Q115 398 98.0 390.0Q81 382 70 377Q58 371 47.0 380.0Q36 389 32 397Q29 403 28.5 413.0Q28 423 42 431Q52 437 71.0 447.0Q90 457 112.5 467.0Q135 477 159.0 484.0Q183 491 203 491Q240 491 256.0 471.5Q272 452 264 423Z" transform="translate(457.1855 270.0) scale(0.025650 -0.025650)" /><path d="M262 662Q262 681 267.0 694.0Q272 707 279.5 715.0Q287 723 295.0 726.5Q303 730 308 730Q322 730 327.5 716.0Q333 702 333 680Q333 641 331.0 599.0Q329 557 325.0 517.0Q321 477 314.5 441.5Q308 406 298 379Q288 349 265.0 334.5Q242 320 215 326Q199 329 187.0 340.5Q175 352 167.0 367.5Q159 383 155.5 400.0Q152 417 154 432Q159 468 182.0 495.0Q205 522 257 541Q259 567 260.0 597.5Q261 628 262 662ZM310 -50Q300 -50 293.0 -45.5Q286 -41 281.5 -35.0Q277 -29 274.5 -22.5Q272 -16 272 -12Q264 39 263.0 91.5Q262 144 264 186Q236 173 210.5 160.5Q185 148 163 137Q143 127 124.5 134.5Q106 142 101 157Q97 170 106.5 179.5Q116 189 133 199Q144 206 170.5 219.0Q197 232 231.0 246.0Q265 260 302.0 272.0Q339 284 372 289Q386 291 396.5 283.0Q407 275 412 266Q418 254 408.5 246.0Q399 238 382 231Q350 222 319 210Q325 200 327 187Q326 168 325.5 142.0Q325 116 325.0 87.5Q325 59 325.0 31.0Q325 3 325 -20Q325 -32 321.5 -41.0Q318 -50 310 -50ZM108 627Q103 562 105.5 490.0Q108 418 121 343Q122 337 123.0 327.0Q124 317 123.0 307.5Q122 298 118.0 291.0Q114 284 106 283Q95 281 86.5 289.0Q78 297 72.0 308.5Q66 320 62.0 332.0Q58 344 57 351Q44 424 41.0 495.0Q38 566 43 639Q45 650 50.5 660.0Q56 670 69 672Q82 673 90.0 669.0Q98 665 102.0 658.0Q106 651 107.0 642.5Q108 634 108 627ZM203 418Q203 410 207.0 399.5Q211 389 219 388Q229 387 235 403Q245 434 251 480Q244 477 236.0 472.0Q228 467 220.5 459.5Q213 452 208.0 441.5Q203 431 203 418Z" transform="translate(481.4248 270.0) scale(0.025650 -0.025650)" /><path d="M47 470Q71 526 95.5 574.0Q120 622 140 681Q120 676 97.5 665.5Q75 655 55 645Q39 638 28.0 645.0Q17 652 12 662Q3 682 25 695Q48 712 76.0 723.5Q104 735 139 740Q152 742 165.0 737.0Q178 732 188 723Q198 714 203.0 701.5Q208 689 205 675Q190 622 164 565Q184 567 212.5 569.5Q241 572 273 574Q313 575 351.5 573.0Q390 571 412 563Q449 550 444 531Q442 523 430.5 515.0Q419 507 402 509Q351 514 300.5 512.5Q250 511 202 509Q182 509 169.0 514.0Q156 519 147 528Q137 509 127.0 490.0Q117 471 106 453Q97 439 86.0 432.0Q75 425 60 433Q38 445 47 470ZM243 450Q246 461 254.0 468.5Q262 476 277 477Q309 480 306 451Q304 438 301.0 420.0Q298 402 295.5 381.5Q293 361 290.5 340.5Q288 320 287 301Q321 310 351.5 319.0Q382 328 401 334Q415 339 437 337Q446 335 453.0 330.0Q460 325 461 315Q462 295 440 285Q420 276 385.5 264.0Q351 252 313 241Q275 230 240.0 221.5Q205 213 185 211Q168 209 150.5 211.0Q133 213 128 227Q124 238 133.5 250.0Q143 262 162 267Q173 270 188.5 274.0Q204 278 221 283Q224 324 230.0 368.0Q236 412 243 450ZM420 -34Q418 -41 407.0 -52.5Q396 -64 379 -61Q370 -59 362.5 -49.5Q355 -40 358 -25Q368 33 370 93Q346 87 318.0 76.5Q290 66 267 57Q254 52 241.5 55.5Q229 59 224 72Q221 83 227.0 93.5Q233 104 241 109Q250 115 267.0 123.0Q284 131 303 139Q322 146 340.0 151.5Q358 157 370 158Q404 160 419.5 144.0Q435 128 434 99Q433 68 430.0 31.0Q427 -6 420 -34Z" transform="translate(492.4799 270.0) scale(0.025650 -0.025650)" /><path d="M353 87Q353 77 345.0 72.0Q337 67 331 67Q320 67 312.0 70.0Q304 73 302 83Q297 105 296.0 132.0Q295 159 297.0 185.5Q299 212 304.5 236.5Q310 261 318 278Q322 283 330.0 285.0Q338 287 347 285Q356 283 363.0 277.5Q370 272 370 262Q370 261 369.5 260.5Q369 260 369 259Q394 268 427.5 273.0Q461 278 489 276Q508 274 522.5 266.5Q537 259 539 241Q541 227 537.0 206.5Q533 186 525.5 164.5Q518 143 507.5 122.0Q497 101 486 88Q520 94 551.0 103.5Q582 113 612 128Q617 130 623.5 130.5Q630 131 635 126Q638 123 637.5 115.0Q637 107 632.5 97.5Q628 88 620.0 77.5Q612 67 600 60Q571 44 533.0 31.5Q495 19 460 15Q447 13 434.0 16.0Q421 19 411.5 26.0Q402 33 399.0 43.0Q396 53 402 64Q409 75 420.0 95.5Q431 116 441.0 138.0Q451 160 458.5 180.0Q466 200 467 211Q467 216 456.5 215.5Q446 215 432.0 212.5Q418 210 405.0 206.0Q392 202 386 201Q371 198 360 203Q356 174 354.5 144.5Q353 115 353 87ZM196 351Q209 346 214.0 336.0Q219 326 219.5 315.0Q220 304 217.5 293.5Q215 283 212 277Q195 244 172.5 217.0Q150 190 133 179Q124 173 114.5 169.0Q105 165 96 166Q85 167 77.0 173.5Q69 180 64.5 189.5Q60 199 58.5 209.5Q57 220 57 230Q58 255 65.0 281.0Q72 307 81.0 332.0Q90 357 100.0 379.5Q110 402 119 421Q105 421 84.0 416.0Q63 411 49 408Q40 406 25.5 410.5Q11 415 7 430Q4 445 21 456Q35 464 52.5 469.5Q70 475 88.0 478.0Q106 481 122.5 482.0Q139 483 150 482Q171 480 182.5 463.0Q194 446 184 420Q178 406 171.0 390.5Q164 375 156 358Q176 358 196 351ZM655 531Q655 527 650.0 522.5Q645 518 638.0 514.5Q631 511 624.0 509.0Q617 507 613 507Q583 505 542.5 502.5Q502 500 469 495Q470 460 471.5 426.5Q473 393 476 358Q478 330 464 330Q460 330 453.0 332.5Q446 335 439.5 340.0Q433 345 427.5 352.5Q422 360 421 369Q411 438 408.5 507.0Q406 576 408 645Q408 664 419.5 669.5Q431 675 438 675Q449 675 458.5 664.0Q468 653 468 645Q468 621 467.5 597.5Q467 574 468 550Q506 555 545.0 557.5Q584 560 619 555Q633 552 644.0 545.5Q655 539 655 531ZM196 494Q183 489 174.5 497.5Q166 506 160 516Q154 526 143.0 541.5Q132 557 119.0 575.0Q106 593 93.5 610.0Q81 627 72 640Q68 645 67.5 657.5Q67 670 73 674Q78 677 90.0 675.0Q102 673 113 664Q123 656 137.0 642.0Q151 628 164.5 610.0Q178 592 188.5 570.0Q199 548 203 524Q205 516 204.5 506.0Q204 496 196 494ZM126 260Q135 268 145.0 277.5Q155 287 164 301Q166 304 167.0 310.0Q168 316 161 321L146 333Q139 314 133.5 295.5Q128 277 126 260Z" transform="translate(504.7919 270.0) scale(0.025650 -0.025650)" /><path d="M224 324Q218 301 200.0 281.0Q182 261 159.5 248.5Q137 236 112.5 233.5Q88 231 68 243Q46 256 41 289Q39 313 45.5 338.5Q52 364 63.5 387.5Q75 411 91.5 431.5Q108 452 128 465Q142 473 156.5 474.0Q171 475 182 465Q189 457 187.5 448.0Q186 439 179 431Q198 418 208.0 403.0Q218 388 222.5 373.5Q227 359 226.5 346.0Q226 333 224 324ZM434 574Q433 523 433.0 478.5Q433 434 434.5 392.5Q436 351 439.0 309.0Q442 267 446 221Q448 204 442.5 191.5Q437 179 427 175Q419 173 412.5 175.5Q406 178 401.0 183.5Q396 189 392.5 195.5Q389 202 388 208Q365 305 363.5 399.0Q362 493 370 577Q372 594 377.5 604.5Q383 615 397 615Q411 615 423.0 603.5Q435 592 434 574ZM107 287Q113 287 122.5 291.5Q132 296 141.0 302.5Q150 309 157.5 318.0Q165 327 167 336Q172 356 164.5 369.5Q157 383 143 396Q104 348 107 287Z" transform="translate(521.7209 270.0) scale(0.025650 -0.025650)" /><path d="M589 321Q576 295 565.0 269.5Q554 244 545.0 217.0Q536 190 528.5 159.5Q521 129 516 93Q514 84 504.0 78.0Q494 72 484 73Q476 74 469.0 77.5Q462 81 462 91Q462 159 482.5 224.0Q503 289 537 346Q542 354 552.0 358.0Q562 362 572 360Q587 357 591.5 346.0Q596 335 589 321ZM683 109Q691 99 694.0 85.0Q697 71 691 65Q688 62 681.5 62.5Q675 63 668.0 66.0Q661 69 654.5 73.5Q648 78 644 82Q625 101 609.5 124.5Q594 148 578 178Q575 184 572.0 190.5Q569 197 568.5 203.5Q568 210 570.5 215.5Q573 221 582 226Q590 231 605.5 223.5Q621 216 629 202Q633 194 639.0 182.5Q645 171 652.0 158.0Q659 145 667.0 132.0Q675 119 683 109ZM189 562Q235 582 273.0 595.5Q311 609 344.0 619.5Q377 630 406.5 638.0Q436 646 467 654Q474 656 478.0 669.5Q482 683 489 685Q498 687 506.5 683.5Q515 680 521.5 673.0Q528 666 531.5 658.0Q535 650 534 644Q530 615 528.5 586.0Q527 557 526.5 529.5Q526 502 527.0 478.5Q528 455 529 437Q530 425 523.5 412.0Q517 399 504 398Q495 397 485.5 402.5Q476 408 474 419Q471 435 469.0 456.5Q467 478 466.5 501.5Q466 525 467.0 549.0Q468 573 471 595Q443 589 410.0 580.0Q377 571 342.5 560.0Q308 549 274.5 537.0Q241 525 213 514Q209 512 210 507Q213 482 215.0 447.0Q217 412 204 374Q198 355 182.5 339.0Q167 323 147 315Q128 307 107.5 309.5Q87 312 69 328Q47 353 43.0 385.0Q39 417 45.0 448.5Q51 480 65.0 509.0Q79 538 93 559Q103 573 114.0 582.5Q125 592 143 585Q154 580 160.0 568.5Q166 557 158 545Q140 519 129.5 496.5Q119 474 111 451Q108 443 105.5 431.0Q103 419 102.5 407.0Q102 395 104.0 385.5Q106 376 113 375Q122 373 129.0 378.0Q136 383 141.0 391.5Q146 400 150.0 410.5Q154 421 156 430Q161 448 161.5 467.5Q162 487 160 504Q157 524 164.5 539.5Q172 555 189 562ZM277 255Q269 204 272.0 150.0Q275 96 295 42Q300 30 292.0 22.5Q284 15 279 14Q272 12 264.5 14.0Q257 16 251 24Q231 54 221.5 87.0Q212 120 210.0 154.0Q208 188 212.5 220.5Q217 253 226 281Q227 285 229.0 290.0Q231 295 234.0 299.5Q237 304 242.0 306.0Q247 308 254 306Q266 302 273.0 287.0Q280 272 277 255ZM424 34Q414 4 389 -1Q378 -3 368.0 3.0Q358 9 349.5 20.0Q341 31 334.0 45.0Q327 59 324 73Q309 136 325.5 176.5Q342 217 369 233Q367 261 364.5 284.5Q362 308 359 336Q357 343 364.5 355.5Q372 368 385 367Q393 366 401.5 358.0Q410 350 413 339Q421 299 425.5 255.0Q430 211 431.5 169.5Q433 128 431.5 92.0Q430 56 424 34ZM375 117Q376 133 376.0 149.5Q376 166 374 180Q362 170 357.0 147.5Q352 125 354 98Q355 90 358.0 79.5Q361 69 365 69Q368 69 371.5 85.5Q375 102 375 117Z" transform="translate(541.7536 270.0) scale(0.025650 -0.025650)" /><path d="M229 420Q212 394 183.5 376.5Q155 359 121 357Q86 355 66.0 375.5Q46 396 48 425Q50 448 62.5 472.0Q75 496 93 516Q102 525 112.0 530.5Q122 536 133 541Q146 546 158.5 546.0Q171 546 177 541Q181 536 180.5 530.0Q180 524 172 515Q164 505 156.0 495.0Q148 485 144 480Q138 471 132.0 461.0Q126 451 122.5 441.5Q119 432 119.5 424.5Q120 417 127 415Q133 413 142.0 417.0Q151 421 160.0 428.5Q169 436 177.0 445.5Q185 455 188 464Q178 475 173.0 483.5Q168 492 179 502Q186 508 195.0 508.5Q204 509 210 507Q222 503 229.5 493.5Q237 484 239.5 471.5Q242 459 239.5 445.5Q237 432 229 420ZM81 169Q73 168 63.0 168.5Q53 169 43.0 171.5Q33 174 26.0 179.0Q19 184 18 193Q17 206 29.5 216.0Q42 226 59 228Q93 233 134.0 243.0Q175 253 214.0 264.0Q253 275 286.0 285.0Q319 295 338 300Q345 302 355.0 303.5Q365 305 374.0 304.0Q383 303 389.5 299.0Q396 295 397 285Q398 280 395.0 270.0Q392 260 383 254Q376 249 346.0 237.5Q316 226 273.0 212.5Q230 199 179.5 187.0Q129 175 81 169Z" transform="translate(558.4261 270.0) scale(0.025650 -0.025650)" /><path d="M172 551Q181 532 180.5 514.0Q180 496 173.5 480.0Q167 464 156.5 449.5Q146 435 135 424Q159 433 172.5 429.0Q186 425 192.0 414.0Q198 403 197.5 388.5Q197 374 193 362Q190 352 183.5 334.0Q177 316 169.5 296.5Q162 277 153.5 258.5Q145 240 139 229Q151 234 170.5 244.0Q190 254 211.5 265.5Q233 277 253.5 288.5Q274 300 288 308Q293 311 300.0 313.0Q307 315 314.0 315.5Q321 316 326.0 314.5Q331 313 332 310Q334 307 331.0 299.5Q328 292 322.5 283.0Q317 274 310.0 265.5Q303 257 297 252Q276 237 250.5 221.5Q225 206 198.5 192.5Q172 179 148.5 169.0Q125 159 109 155Q92 150 79.5 159.0Q67 168 63 177Q58 190 60.5 199.0Q63 208 66 214Q74 230 83.0 250.0Q92 270 100.0 290.5Q108 311 114.5 330.5Q121 350 125 366Q115 364 103.0 361.0Q91 358 80 355Q66 352 55.5 358.0Q45 364 40 375Q35 386 36.5 397.0Q38 408 50 419Q62 430 77.0 445.0Q92 460 104.0 474.5Q116 489 123.0 501.5Q130 514 126 520Q123 525 114.5 525.5Q106 526 95.5 523.5Q85 521 73.0 517.5Q61 514 51 510Q43 507 33.0 510.0Q23 513 18 524Q16 529 15.5 537.5Q15 546 20 550Q34 564 53.5 572.0Q73 580 93 582Q116 584 138.0 577.5Q160 571 172 551ZM454 192Q453 161 429 165Q421 167 408.0 175.0Q395 183 393 199Q389 298 393.5 381.5Q398 465 405 534Q405 543 414.0 551.5Q423 560 434 559Q442 559 448.0 554.0Q454 549 458.0 541.5Q462 534 464.0 526.0Q466 518 466 512Q458 428 455.0 351.5Q452 275 454 192Z" transform="translate(568.8913 270.0) scale(0.025650 -0.025650)" /><path d="M174 546Q166 531 154.5 512.0Q143 493 131 473Q140 475 152.5 476.5Q165 478 176 479Q205 481 212.0 464.5Q219 448 208 427Q196 404 179.5 379.0Q163 354 151 321Q165 323 181.0 324.5Q197 326 211 325Q238 323 251.5 304.5Q265 286 258 258Q249 223 229.5 193.5Q210 164 187 141Q221 143 249.0 145.0Q277 147 302.5 150.0Q328 153 354.0 157.0Q380 161 410 166Q430 168 436.0 163.5Q442 159 445 149Q445 132 436.0 122.5Q427 113 408 108Q275 71 136 74Q111 75 100.0 86.5Q89 98 91 110Q91 118 95.5 125.0Q100 132 108 138Q119 147 133.0 161.0Q147 175 159.5 192.0Q172 209 182.5 227.5Q193 246 197 264Q182 262 155.5 257.0Q129 252 106 260Q95 265 89.5 278.0Q84 291 87 308Q92 332 108.5 363.0Q125 394 144 418Q132 416 115.0 412.0Q98 408 85 404Q70 401 59.5 407.0Q49 413 44 422Q34 443 47 461Q70 493 86.0 518.0Q102 543 113 567Q100 572 79.0 572.5Q58 573 41 573Q33 573 24.5 580.5Q16 588 15 597Q15 608 23.0 617.0Q31 626 45 628Q65 630 89.5 628.0Q114 626 137 617Q166 606 175.5 587.0Q185 568 174 546Z" transform="translate(582.1523 270.0) scale(0.025650 -0.025650)" /><path d="M245 474Q240 466 223.5 461.5Q207 457 186.0 455.0Q165 453 143.5 452.5Q122 452 108 453Q121 443 119 430Q113 385 110.5 335.0Q108 285 113 240Q146 249 198.0 272.5Q250 296 303 341Q323 359 332 353Q339 348 335.5 337.5Q332 327 326 317Q314 296 293.0 273.5Q272 251 245.5 230.5Q219 210 188.5 192.5Q158 175 126 164Q109 159 95.5 163.0Q82 167 72.5 176.5Q63 186 56.5 199.5Q50 213 49 228Q43 285 46.0 344.5Q49 404 57 455Q36 457 24.5 467.5Q13 478 13 491Q13 495 15.5 499.5Q18 504 29 507Q36 509 58.0 512.0Q80 515 108.0 516.0Q136 517 165.5 516.0Q195 515 217 509Q234 504 242.0 493.5Q250 483 245 474ZM460 207Q460 190 448.0 184.0Q436 178 423 180Q415 182 406.0 190.0Q397 198 395 213Q392 262 390.5 313.0Q389 364 389.0 412.0Q389 460 390.0 503.5Q391 547 393 581Q393 590 400.5 598.0Q408 606 419 606Q438 606 448.5 590.0Q459 574 459 560Q457 528 456.0 495.0Q455 462 454 428Q491 441 535.0 446.5Q579 452 637 447Q653 445 667.5 437.0Q682 429 682 417Q677 400 663.0 395.0Q649 390 633 391Q623 391 607.5 390.0Q592 389 574.0 386.5Q556 384 536.0 380.0Q516 376 498 372Q485 369 474.0 372.0Q463 375 454 381Q454 289 460 207Z" transform="translate(593.1818 270.0) scale(0.025650 -0.025650)" /></g><text x="38" y="330" font-size="11" fill="#476550" font-family="Noto Sans KR, Apple SD Gothic Neo, sans-serif">02</text><text x="72" y="348" font-size="20" fill="#303B36" font-family="Noto Serif KR, AppleMyungjo, serif">그가 나를 푸른 초장에 누이시며</text><path d="M430 361h350" stroke="#DFE2DB" /><g fill="#476550" data-role="handwriting" data-name="필기 · 그가 나를 푸른 초장에 누이시며" aria-label="그가 나를 푸른 초장에 누이시며"><title>그가 나를 푸른 초장에 누이시며</title><path d="M449 242Q413 233 368.0 222.0Q323 211 275.5 199.5Q228 188 181.0 178.0Q134 168 94 160Q68 155 57.0 160.5Q46 166 43 176Q40 186 45.5 193.5Q51 201 59.5 206.5Q68 212 76.5 215.0Q85 218 88 219Q108 226 134.5 234.0Q161 242 192 250Q197 314 205.5 378.0Q214 442 229 498Q234 515 212 513Q192 511 159.5 497.0Q127 483 79 460Q43 444 27 471Q20 483 24.5 496.0Q29 509 43 517Q58 526 78.5 537.0Q99 548 122.0 557.5Q145 567 168.5 573.5Q192 580 214 580Q256 580 278.5 557.0Q301 534 293 496Q287 463 281.5 434.0Q276 405 272.5 378.0Q269 351 266.0 324.0Q263 297 261 267Q296 275 332.0 281.0Q368 287 401 292Q405 292 415.0 292.0Q425 292 436.0 290.5Q447 289 456.0 285.0Q465 281 467 275Q469 267 467.5 257.0Q466 247 449 242Z" transform="translate(440.0000 348.0) scale(0.025650 -0.025650)" /><path d="M461 599Q459 557 459.5 517.0Q460 477 462 435Q474 438 492.0 441.0Q510 444 530.0 446.0Q550 448 570.0 449.0Q590 450 607 449Q627 447 641.5 439.0Q656 431 656 419Q656 407 637.5 401.0Q619 395 603 394Q590 393 572.5 391.0Q555 389 536.0 385.5Q517 382 498.5 377.5Q480 373 466 368Q469 337 473.0 306.5Q477 276 482 245Q483 237 481.0 228.5Q479 220 475.0 213.0Q471 206 466.0 201.0Q461 196 457 195Q449 193 443.5 196.0Q438 199 434.0 204.0Q430 209 427.5 215.5Q425 222 424 227Q416 258 409.0 302.0Q402 346 398.5 397.0Q395 448 394.5 502.5Q394 557 399 610Q402 639 422 644Q429 645 436.5 641.0Q444 637 449.5 629.5Q455 622 458.0 613.5Q461 605 461 599ZM264 423Q260 406 254.0 372.5Q248 339 243.5 299.5Q239 260 237.0 221.5Q235 183 238 157Q240 136 227.0 130.0Q214 124 205 126Q197 127 191.5 132.5Q186 138 183.0 145.0Q180 152 178.5 159.0Q177 166 176 172Q174 190 175.0 223.0Q176 256 179.5 294.0Q183 332 188.5 368.0Q194 404 201 428Q188 425 170.0 419.0Q152 413 133.5 405.5Q115 398 98.0 390.0Q81 382 70 377Q58 371 47.0 380.0Q36 389 32 397Q29 403 28.5 413.0Q28 423 42 431Q52 437 71.0 447.0Q90 457 112.5 467.0Q135 477 159.0 484.0Q183 491 203 491Q240 491 256.0 471.5Q272 452 264 423Z" transform="translate(452.0555 348.0) scale(0.025650 -0.025650)" /><path d="M582 423Q550 412 523.0 403.0Q496 394 461 382Q447 377 434.0 379.0Q421 381 410 386Q412 321 420.0 272.5Q428 224 436 186Q438 178 433.5 169.5Q429 161 416 163Q405 165 393.0 173.5Q381 182 376 197Q362 235 354.5 279.5Q347 324 345.0 370.0Q343 416 345.0 460.0Q347 504 352 542Q355 563 362.0 572.0Q369 581 376 581Q399 581 408.0 559.0Q417 537 415 512Q413 490 412.0 470.0Q411 450 410 430Q442 446 486.5 457.5Q531 469 579 476Q620 482 621 465Q623 451 611.0 439.5Q599 428 582 423ZM116 448Q111 425 108.0 400.0Q105 375 104.0 351.0Q103 327 104.0 305.0Q105 283 107 267Q141 278 181.5 307.5Q222 337 256 371Q265 381 273.5 386.5Q282 392 290 387Q291 386 291.0 380.0Q291 374 289.5 366.0Q288 358 284.5 349.0Q281 340 275 333Q242 288 208.0 258.0Q174 228 134 206Q118 197 101.5 196.0Q85 195 74 206Q53 228 46.0 265.5Q39 303 40.0 342.0Q41 381 47.5 414.5Q54 448 59 463Q63 474 70.0 478.0Q77 482 85 483Q99 484 109.0 473.0Q119 462 116 448Z" transform="translate(476.2948 348.0) scale(0.025650 -0.025650)" /><path d="M167 706Q171 697 168.5 687.5Q166 678 160.0 669.0Q154 660 147.0 652.0Q140 644 135 640Q146 639 161.5 634.5Q177 630 182 622Q196 597 176 566Q160 541 139.5 514.0Q119 487 108 460Q153 471 200.0 482.0Q247 493 300 498Q308 498 313.0 494.5Q318 491 319 487Q323 473 313.0 463.0Q303 453 287 448Q241 436 200.0 424.0Q159 412 105 395Q76 390 56.5 401.5Q37 413 32 435Q29 448 39.0 468.5Q49 489 63.0 510.5Q77 532 92.0 551.0Q107 570 114 581Q108 581 91.5 579.5Q75 578 68 577Q52 575 39.5 583.5Q27 592 29 608Q30 618 40.5 626.5Q51 635 63.0 643.0Q75 651 86.5 659.5Q98 668 103 678Q110 692 97 699Q84 706 70.0 708.0Q56 710 43 714Q15 722 16 748Q16 756 21.0 760.0Q26 764 32.5 765.5Q39 767 46.5 766.5Q54 766 60 765Q94 760 125.0 744.5Q156 729 167 706ZM330 160Q318 141 296.0 118.0Q274 95 254 78Q265 78 279.0 77.5Q293 77 305.5 74.0Q318 71 326.5 64.0Q335 57 335 44Q335 31 322.0 11.5Q309 -8 292.5 -27.5Q276 -47 259.5 -63.5Q243 -80 237 -87Q278 -79 320.5 -68.0Q363 -57 414 -42Q450 -31 467 -43Q477 -51 475.5 -58.5Q474 -66 466.5 -72.5Q459 -79 450.0 -84.0Q441 -89 437 -91Q410 -104 378.0 -114.5Q346 -125 314.0 -133.5Q282 -142 252.0 -147.5Q222 -153 197 -156Q183 -158 170.0 -153.5Q157 -149 146 -136Q140 -129 140.5 -119.0Q141 -109 148 -101Q175 -72 199.5 -39.5Q224 -7 246 24Q235 23 218.5 21.0Q202 19 192 17Q149 10 143 33Q140 45 145.5 56.0Q151 67 159 73Q190 98 212.0 118.5Q234 139 255 163Q238 162 213.5 153.5Q189 145 173 139Q153 131 145.0 138.0Q137 145 137 154Q137 163 141.5 173.0Q146 183 156 189Q191 212 230.0 218.0Q269 224 301 219Q326 215 334.0 197.5Q342 180 330 160ZM389 349Q394 342 391.5 334.5Q389 327 382.5 321.0Q376 315 367.0 311.0Q358 307 351 306Q323 303 298.0 300.0Q273 297 246.0 292.0Q219 287 186.0 279.0Q153 271 109 259Q85 252 68.5 258.5Q52 265 47 273Q43 280 44.0 287.0Q45 294 48.0 300.0Q51 306 55.5 310.0Q60 314 64 315Q125 333 186.0 347.0Q247 361 306 364Q316 364 329.0 363.5Q342 363 354.0 361.0Q366 359 376.0 356.0Q386 353 389 349Z" transform="translate(492.4286 348.0) scale(0.025650 -0.025650)" /><path d="M119 399Q101 407 92.0 421.0Q83 435 81 451Q75 491 83.5 529.0Q92 567 109 601Q99 599 89.5 596.0Q80 593 70 591Q56 587 44.5 591.0Q33 595 27 613Q25 629 34.0 638.5Q43 648 59 652Q81 659 111.0 665.5Q141 672 173.5 677.0Q206 682 237.0 685.5Q268 689 292 689Q309 689 325.0 684.0Q341 679 342 671Q342 662 335.0 656.0Q328 650 318.0 645.5Q308 641 298.0 638.5Q288 636 281 635Q211 623 139 608Q148 595 152.0 582.0Q156 569 154 558Q151 545 147.5 529.0Q144 513 141.5 496.0Q139 479 139.5 463.0Q140 447 145 435L150 424Q199 471 240 564Q246 578 254.0 584.5Q262 591 276 583Q290 575 292.0 563.0Q294 551 290 537Q279 494 257.5 463.5Q236 433 208 414Q219 417 236.5 420.5Q254 424 273.0 427.0Q292 430 310.5 431.0Q329 432 343 431Q361 429 373.5 423.0Q386 417 387 403Q387 392 377.0 386.0Q367 380 352 379Q325 378 296.5 372.5Q268 367 238.5 360.5Q209 354 180.5 347.0Q152 340 127 335Q120 334 110.0 334.0Q100 334 90.0 336.0Q80 338 73.0 343.5Q66 349 65 360Q64 365 69.5 371.0Q75 377 83 379Q104 387 119 398ZM292 -38Q272 -40 266.5 -28.5Q261 -17 258 -3Q253 19 252.0 50.0Q251 81 252.5 112.5Q254 144 256.5 173.5Q259 203 261 224Q217 217 177.5 210.5Q138 204 108 198Q85 193 63.0 195.0Q41 197 37 212Q35 226 49.0 236.5Q63 247 81 252Q113 260 157.5 269.0Q202 278 248.5 286.0Q295 294 339.0 300.5Q383 307 415 310Q426 311 439.0 309.0Q452 307 452 288Q452 275 441.0 264.0Q430 253 415 250Q392 245 367.5 241.0Q343 237 317 233Q320 227 321.5 220.5Q323 214 324 209Q322 184 320.0 155.0Q318 126 316.5 97.0Q315 68 314.5 41.0Q314 14 316 -6Q318 -18 309.0 -28.0Q300 -38 292 -38Z" transform="translate(510.1271 348.0) scale(0.025650 -0.025650)" /><path d="M240 125Q235 107 230.5 79.5Q226 52 224 26Q245 30 263.0 34.5Q281 39 297.5 44.0Q314 49 330.5 55.0Q347 61 366 69Q377 74 386.5 78.0Q396 82 405 80Q416 78 422.5 71.5Q429 65 421 53Q411 37 402.0 28.5Q393 20 375 9Q314 -27 224 -39Q208 -41 194.5 -38.0Q181 -35 171.5 -28.5Q162 -22 156.5 -13.0Q151 -4 152 6Q154 36 163.0 71.0Q172 106 187 135Q195 149 205.0 158.0Q215 167 226 165Q239 161 241.5 150.0Q244 139 240 125ZM175 640Q166 624 145.5 602.5Q125 581 107 564Q123 567 143 568Q171 570 178.0 553.5Q185 537 174 516Q169 506 161.0 491.5Q153 477 144.5 460.5Q136 444 128.0 427.0Q120 410 114 396Q158 409 202.5 417.5Q247 426 286 428Q301 429 315.0 418.0Q329 407 329 398Q329 389 320.5 380.0Q312 371 300 372Q259 370 211.5 359.0Q164 348 124 337Q109 333 93.5 332.0Q78 331 67 336Q58 341 53.0 351.0Q48 361 52 379Q54 391 60.5 407.0Q67 423 76.0 441.0Q85 459 94.5 476.0Q104 493 113 507Q102 505 92.5 503.0Q83 501 72 499Q57 495 44.5 501.5Q32 508 26 517Q20 526 21.5 537.0Q23 548 34 559Q60 584 81.5 607.5Q103 631 121 657Q108 662 85.5 662.0Q63 662 46 662Q38 662 29.5 669.5Q21 677 20 686Q20 697 28.0 705.5Q36 714 50 716Q70 718 93.0 717.0Q116 716 138 708Q167 697 177.0 678.5Q187 660 175 640ZM104 194Q85 192 66.5 194.5Q48 197 43 217Q42 230 55.0 239.5Q68 249 91 255Q178 276 251.5 288.5Q325 301 397 302Q406 300 411.5 295.0Q417 290 418 284Q419 273 412.5 265.0Q406 257 386 254Q352 247 321.0 241.5Q290 236 257.0 229.0Q224 222 187.0 214.0Q150 206 104 194Z" transform="translate(522.0031 348.0) scale(0.025650 -0.025650)" /><path d="M237 448Q230 436 224.0 424.0Q218 412 211 400Q235 394 263.5 386.5Q292 379 320.5 370.5Q349 362 376.5 352.5Q404 343 428 334Q439 328 446.0 316.5Q453 305 447 291Q442 280 429.0 276.0Q416 272 405 276Q353 295 296.0 311.5Q239 328 176 344Q128 268 72 198Q66 190 55.0 184.5Q44 179 35 184Q26 189 21.0 206.0Q16 223 24 239Q63 296 104.0 352.0Q145 408 174 464Q174 471 163.0 471.0Q152 471 135.5 467.5Q119 464 101.0 457.5Q83 451 68 447Q52 442 40.0 449.5Q28 457 23 468Q13 490 43 507Q66 518 92.0 526.0Q118 534 145 537Q141 583 139.5 626.5Q138 670 143 719Q145 742 154.0 754.5Q163 767 175 765Q189 763 196.5 752.0Q204 741 203 730Q202 684 200.0 634.0Q198 584 194 536Q209 533 220.5 524.0Q232 515 238.0 502.5Q244 490 244.0 475.5Q244 461 237 448ZM198 2Q190 2 179.5 2.5Q169 3 159.5 5.5Q150 8 143.0 13.5Q136 19 136 28Q136 40 146.5 52.0Q157 64 179 66Q187 66 195.5 66.5Q204 67 214 68Q224 119 227.5 160.0Q231 201 234 237Q236 254 247.0 267.0Q258 280 269 280Q284 280 288.5 267.0Q293 254 293 242Q294 194 290.5 155.5Q287 117 278 76Q333 84 390.5 96.0Q448 108 490 119Q497 121 506.5 123.0Q516 125 524.0 125.0Q532 125 537.5 121.5Q543 118 542 108Q540 99 524.0 84.5Q508 70 482 59Q451 45 414.0 35.5Q377 26 339.0 19.0Q301 12 264.5 8.0Q228 4 198 2Z" transform="translate(539.9068 348.0) scale(0.025650 -0.025650)" /><path d="M121 242Q120 240 117.5 235.0Q115 230 110.5 225.5Q106 221 99.5 218.0Q93 215 84 216Q76 217 72.0 223.0Q68 229 66.5 237.0Q65 245 66.0 254.0Q67 263 69 269Q95 336 131.5 385.5Q168 435 201 473Q163 462 128.5 444.0Q94 426 65 407Q53 399 41.0 398.5Q29 398 21 406Q8 419 14.0 433.5Q20 448 30 456Q46 469 78.0 488.0Q110 507 146.0 520.5Q182 534 216.0 537.0Q250 540 271 522Q282 512 283.5 497.5Q285 483 269 463Q245 434 224.5 408.0Q204 382 186.0 355.5Q168 329 152.0 301.5Q136 274 121 242ZM542 251Q541 247 538 243Q541 242 547 238Q571 219 574.5 192.0Q578 165 569 142Q560 119 543.0 100.0Q526 81 505.0 67.5Q484 54 462.0 48.0Q440 42 422 47Q407 51 397.0 60.0Q387 69 383 79Q374 103 378.5 128.0Q383 153 395.0 176.0Q407 199 425.0 219.5Q443 240 462 255Q467 259 475.5 265.0Q484 271 494.0 275.5Q504 280 513.5 282.0Q523 284 530 280Q540 275 542.0 265.5Q544 256 542 251ZM647 502Q648 494 635.0 483.5Q622 473 607 472Q579 468 542.0 462.5Q505 457 473 451Q475 426 477.0 394.0Q479 362 484 308Q485 295 477.0 287.0Q469 279 462 279Q454 279 442.5 290.0Q431 301 426 319Q421 335 416.5 372.5Q412 410 410.0 454.5Q408 499 409.0 544.0Q410 589 416 619Q420 638 427.0 643.5Q434 649 441 649Q452 649 461.5 639.5Q471 630 471 619Q471 581 470.5 555.0Q470 529 471 509Q506 516 542.0 520.5Q578 525 610 523Q624 521 635.5 515.5Q647 510 647 502ZM181 284Q179 301 181.5 314.5Q184 328 197 329Q213 330 223.0 318.5Q233 307 235 294Q244 248 250.5 202.5Q257 157 260 131Q262 114 252.0 101.0Q242 88 230 86Q222 85 217.0 90.0Q212 95 208.5 102.5Q205 110 203.5 117.0Q202 124 202 127Q198 158 192.5 199.0Q187 240 181 284ZM441 115Q450 115 462.0 118.0Q474 121 485.5 127.5Q497 134 506.5 144.0Q516 154 522 168Q526 179 520.0 191.0Q514 203 509 213Q484 188 465.0 161.5Q446 135 441 115Z" transform="translate(553.5526 348.0) scale(0.025650 -0.025650)" /><path d="M439 222Q431 222 425.0 228.0Q419 234 415.0 243.0Q411 252 408.5 263.0Q406 274 405 285Q400 320 399.0 363.0Q398 406 400 446Q353 431 306.0 414.5Q259 398 229 385Q234 362 228 343Q217 306 186 280Q171 267 153.0 258.5Q135 250 116 249Q95 248 79.0 258.5Q63 269 54 286Q44 303 41.0 324.0Q38 345 41 365Q49 407 70.5 435.0Q92 463 113 485Q128 499 138.0 497.5Q148 496 153 487Q164 469 159 447Q182 448 202 435Q219 442 243.5 451.0Q268 460 296.0 469.5Q324 479 352.0 487.5Q380 496 404 503Q404 510 405 514Q407 537 417.5 553.0Q428 569 443 569Q457 569 464.5 555.5Q472 542 472 531Q464 465 464.5 397.5Q465 330 470 265Q470 242 460.0 232.0Q450 222 439 222ZM584 227Q573 227 565.5 239.0Q558 251 553 267Q546 298 543.5 334.5Q541 371 541.0 408.5Q541 446 543.5 482.5Q546 519 550 549Q552 566 559.5 577.5Q567 589 580 586Q594 581 604.0 562.5Q614 544 611 524Q603 470 602.5 402.5Q602 335 608 268Q610 253 604.0 240.0Q598 227 584 227ZM107 315Q126 322 147.5 336.5Q169 351 178 372Q186 393 168 406Q153 416 137 412Q124 395 114.5 368.0Q105 341 107 315Z" transform="translate(570.2251 348.0) scale(0.025650 -0.025650)" /><path d="M250 6Q239 7 233.5 12.0Q228 17 226.0 24.0Q224 31 224.0 37.0Q224 43 224 45Q227 63 229.0 90.0Q231 117 232.5 147.0Q234 177 234.0 206.0Q234 235 233 257Q194 250 156.5 242.5Q119 235 85 227Q63 224 46.0 228.5Q29 233 26 248Q24 261 38.0 272.0Q52 283 70 288Q103 298 143.5 307.0Q184 316 228.5 323.5Q273 331 319.0 336.0Q365 341 408 342Q427 342 438.0 331.0Q449 320 449 309Q449 304 443.5 296.5Q438 289 422 287Q393 283 362.0 278.0Q331 273 299 268Q301 264 302 261Q303 238 302.0 207.5Q301 177 299.0 146.5Q297 116 294.5 87.5Q292 59 290 40Q289 32 284.0 26.0Q279 20 272.5 15.5Q266 11 260.0 8.5Q254 6 250 6ZM132 615Q129 603 125.5 583.5Q122 564 119.0 541.5Q116 519 115.0 496.5Q114 474 116 456Q150 472 198.5 487.5Q247 503 310 506Q313 506 319.0 506.0Q325 506 330.0 504.5Q335 503 339.5 499.5Q344 496 344 488Q345 475 337.5 466.5Q330 458 321 456Q292 449 268.5 442.5Q245 436 224.0 428.0Q203 420 182.5 411.0Q162 402 139 391Q116 380 92.0 391.0Q68 402 57 430Q49 449 48.5 478.0Q48 507 51.5 537.0Q55 567 61.0 594.5Q67 622 73 640Q78 656 91.5 663.0Q105 670 119 665Q131 660 134.0 647.5Q137 635 132 615Z" transform="translate(594.5926 348.0) scale(0.025650 -0.025650)" /><path d="M224 324Q218 301 200.0 281.0Q182 261 159.5 248.5Q137 236 112.5 233.5Q88 231 68 243Q46 256 41 289Q39 313 45.5 338.5Q52 364 63.5 387.5Q75 411 91.5 431.5Q108 452 128 465Q142 473 156.5 474.0Q171 475 182 465Q189 457 187.5 448.0Q186 439 179 431Q198 418 208.0 403.0Q218 388 222.5 373.5Q227 359 226.5 346.0Q226 333 224 324ZM434 574Q433 523 433.0 478.5Q433 434 434.5 392.5Q436 351 439.0 309.0Q442 267 446 221Q448 204 442.5 191.5Q437 179 427 175Q419 173 412.5 175.5Q406 178 401.0 183.5Q396 189 392.5 195.5Q389 202 388 208Q365 305 363.5 399.0Q362 493 370 577Q372 594 377.5 604.5Q383 615 397 615Q411 615 423.0 603.5Q435 592 434 574ZM107 287Q113 287 122.5 291.5Q132 296 141.0 302.5Q150 309 157.5 318.0Q165 327 167 336Q172 356 164.5 369.5Q157 383 143 396Q104 348 107 287Z" transform="translate(606.6481 348.0) scale(0.025650 -0.025650)" /><path d="M223 521Q205 504 184.5 479.5Q164 455 144.5 426.0Q125 397 108.0 364.0Q91 331 81 296Q79 291 78.5 283.5Q78 276 74.5 269.5Q71 263 63.5 260.0Q56 257 41 262Q21 269 18.5 283.0Q16 297 18 308Q24 337 39.0 372.5Q54 408 75.5 443.0Q97 478 122.0 509.0Q147 540 173 560Q178 564 192.5 570.0Q207 576 221 570Q233 565 237.5 551.5Q242 538 223 521ZM234 389Q236 367 240.0 339.5Q244 312 249.5 283.5Q255 255 261.0 227.5Q267 200 273 179Q278 166 274.5 155.0Q271 144 259 140Q248 137 236.0 145.0Q224 153 219 164Q210 183 203.0 210.0Q196 237 190.0 266.0Q184 295 180.0 323.5Q176 352 174 373Q174 379 174.0 388.0Q174 397 176.0 405.0Q178 413 182.0 418.5Q186 424 194 425Q202 426 215.0 419.5Q228 413 234 389ZM440 157Q423 160 415.0 179.0Q407 198 405 220Q402 259 400.0 304.0Q398 349 398.0 395.0Q398 441 399.5 486.5Q401 532 405 573Q407 596 417.5 612.0Q428 628 443 628Q457 628 464.0 616.5Q471 605 471 594Q464 497 464.5 392.5Q465 288 470 195Q471 175 462.5 165.0Q454 155 440 157Z" transform="translate(619.4987 348.0) scale(0.025650 -0.025650)" /><path d="M639 481Q644 512 652.0 521.5Q660 531 671 531Q682 531 693.0 522.5Q704 514 704 497Q702 473 697.5 442.5Q693 412 690.0 378.0Q687 344 686.0 309.0Q685 274 690 242Q690 231 680.5 220.5Q671 210 659 212Q652 213 646.5 220.0Q641 227 636.5 237.5Q632 248 629.5 259.5Q627 271 626 282Q624 315 625.0 348.0Q626 381 630 413Q595 377 541.5 352.5Q488 328 435 320Q415 317 405.0 323.5Q395 330 391 341Q385 358 389.5 365.0Q394 372 401 374Q489 399 546.5 422.5Q604 446 638 476Q638 478 638.5 478.5Q639 479 639 481ZM282 453Q277 406 260.5 366.0Q244 326 224 287Q256 287 288.0 296.5Q320 306 349 314Q350 314 355.5 315.5Q361 317 366.5 317.0Q372 317 376.0 314.0Q380 311 378 304Q373 288 360.5 275.5Q348 263 331 255Q293 238 256.0 231.0Q219 224 195 224Q182 224 174.0 231.0Q166 238 163.0 248.0Q160 258 160.5 269.0Q161 280 164 287Q170 300 178.5 319.0Q187 338 195.5 358.0Q204 378 210.5 396.5Q217 415 220 428Q225 446 217 451Q210 455 203.0 451.0Q196 447 191 444Q182 438 170.0 430.5Q158 423 151 421Q147 420 142.0 420.5Q137 421 132 429Q123 446 135.0 459.5Q147 473 161 483Q176 494 194.5 502.0Q213 510 232 510Q241 510 251.0 507.0Q261 504 268.5 497.0Q276 490 280.0 479.5Q284 469 282 453ZM111 453Q109 394 106.0 337.5Q103 281 114 227Q116 220 110.0 213.5Q104 207 97 206Q71 203 60 231Q24 330 54 467Q57 480 63.5 489.0Q70 498 81 496Q97 492 104.5 480.0Q112 468 111 453ZM567 494Q567 482 554.5 477.5Q542 473 528 475Q493 479 459.5 472.5Q426 466 390 455Q379 452 370.5 457.5Q362 463 357 471Q353 479 353.0 486.0Q353 493 359 497Q391 513 432.0 526.0Q473 539 512 533Q541 528 554.0 520.0Q567 512 567 494Z" transform="translate(633.0932 348.0) scale(0.025650 -0.025650)" /></g><text x="72" y="396" font-size="20" fill="#303B36" font-family="Noto Serif KR, AppleMyungjo, serif">쉴 만한 물 가으로 인도하시는도다</text><path d="M430 409h350" stroke="#DFE2DB" /><g fill="#476550" data-role="handwriting" data-name="필기 · 쉴 만한 물 가으로 인도하시는도다" aria-label="쉴 만한 물 가으로 인도하시는도다"><title>쉴 만한 물 가으로 인도하시는도다</title><path d="M517 285Q522 270 516.0 249.5Q510 229 498.0 208.0Q486 187 472.0 168.5Q458 150 447 138Q455 141 469.5 144.0Q484 147 499.5 147.5Q515 148 529.5 145.5Q544 143 553 135Q564 124 567.0 104.5Q570 85 558 68Q546 52 532.0 32.5Q518 13 503.5 -7.0Q489 -27 475.0 -46.0Q461 -65 451 -81Q494 -71 539.5 -56.0Q585 -41 619 -26Q630 -21 642.0 -20.5Q654 -20 660 -24Q670 -31 667.5 -44.0Q665 -57 658 -62Q630 -86 592.0 -104.5Q554 -123 515.5 -135.5Q477 -148 442.5 -155.0Q408 -162 389 -163Q381 -163 372.0 -158.5Q363 -154 356.0 -146.5Q349 -139 346.5 -129.0Q344 -119 350 -108Q376 -62 416.5 -11.5Q457 39 496 87Q487 84 473.0 79.0Q459 74 444.5 69.5Q430 65 416.0 61.0Q402 57 392 54Q380 51 365.5 54.5Q351 58 341.5 65.5Q332 73 330.5 83.5Q329 94 342 107Q358 123 375.0 141.0Q392 159 406.5 177.5Q421 196 431.5 214.0Q442 232 447 248Q438 249 420.0 246.0Q402 243 383.0 238.5Q364 234 346.5 229.5Q329 225 320 223Q306 219 293.5 222.5Q281 226 276 243Q273 254 279.5 264.0Q286 274 300 281Q315 288 334.0 294.5Q353 301 374.0 305.5Q395 310 415.5 312.5Q436 315 453 315Q506 317 517 285ZM69 327Q53 322 37.5 327.5Q22 333 15 355Q12 364 18.5 374.5Q25 385 39 390Q69 401 104.5 412.0Q140 423 179.5 431.5Q219 440 260.0 446.0Q301 452 342 452Q350 452 361.5 445.5Q373 439 371 423Q369 414 363.5 407.0Q358 400 347 398Q318 393 290.0 388.0Q262 383 235 376Q233 358 232.0 336.0Q231 314 230.5 292.5Q230 271 230.0 251.0Q230 231 231 216Q232 203 223.5 191.0Q215 179 197 177Q190 176 179.5 184.5Q169 193 166 210Q164 222 163.0 240.0Q162 258 163.0 278.5Q164 299 166.0 320.0Q168 341 171 359Q146 351 121.0 343.5Q96 336 69 327ZM95 513Q93 508 88.5 500.5Q84 493 77.5 486.5Q71 480 63.5 476.0Q56 472 48 474Q41 475 37.5 482.5Q34 490 33.0 499.5Q32 509 33.0 519.0Q34 529 36 536Q50 590 79.0 651.0Q108 712 150 760Q162 774 177.5 777.5Q193 781 205 774Q211 770 212.0 763.0Q213 756 211.0 748.5Q209 741 205.0 733.5Q201 726 198 722Q190 711 182.5 698.5Q175 686 168 673Q184 668 207.0 659.0Q230 650 253.0 639.5Q276 629 296.0 618.5Q316 608 328 600Q335 595 343.0 588.0Q351 581 357.0 574.0Q363 567 365.5 560.5Q368 554 365 548Q359 537 347.0 535.0Q335 533 327 537Q286 556 236.0 577.5Q186 599 139 616Q125 587 114.0 560.5Q103 534 95 513ZM496 416Q495 399 488.5 388.0Q482 377 470 378Q458 378 448.0 387.0Q438 396 436 412Q435 438 435.0 474.0Q435 510 436.5 547.0Q438 584 440.5 618.5Q443 653 448 677Q450 685 458.0 696.0Q466 707 479 705Q495 703 502.5 686.5Q510 670 509 659Q506 637 503.5 604.0Q501 571 499.5 536.0Q498 501 497.5 468.5Q497 436 496 416Z" transform="translate(440.0000 396.0) scale(0.025650 -0.025650)" /><path d="M81 264Q71 264 61.0 269.5Q51 275 48 295Q44 343 41.0 402.0Q38 461 43 519Q45 527 52.5 534.0Q60 541 73 541Q85 541 92.5 531.5Q100 522 101 513V505Q103 507 106.0 508.5Q109 510 111 512Q134 526 165.5 537.0Q197 548 227 547Q257 545 273.5 531.0Q290 517 279 488Q263 456 249.0 414.5Q235 373 224 333Q234 339 246.0 347.0Q258 355 269.5 363.5Q281 372 291.5 379.5Q302 387 309 392Q321 400 327.5 399.0Q334 398 336 395Q341 390 341.0 376.5Q341 363 333 351Q316 328 282.5 302.5Q249 277 209 260Q201 257 191.5 254.5Q182 252 174.0 253.5Q166 255 160.5 261.5Q155 268 155 282Q155 304 159.5 330.0Q164 356 171.0 383.0Q178 410 187.5 435.5Q197 461 206 484Q189 482 169.5 474.0Q150 466 131 458Q117 452 102 460Q104 418 105.5 377.5Q107 337 109 299Q109 264 81 264ZM520 298Q520 287 512.0 281.5Q504 276 495 278Q486 280 479.0 286.5Q472 293 467.5 302.0Q463 311 460.5 320.5Q458 330 458 337Q455 406 456.0 471.5Q457 537 462 600Q464 622 478.0 628.5Q492 635 503 631Q513 627 521.0 615.5Q529 604 527 580Q523 538 521 495Q557 501 599.0 503.0Q641 505 681 500Q693 498 699.5 492.0Q706 486 707 480Q708 475 702.0 468.5Q696 462 685 459Q647 449 603.5 443.5Q560 438 518 435Q517 400 517.5 366.5Q518 333 520 298ZM425 238Q421 208 417.5 173.5Q414 139 414 110Q461 121 500.0 138.5Q539 156 574 174Q589 181 594 171Q597 165 595.0 155.0Q593 145 587 134Q574 111 551.0 97.0Q528 83 501 72Q483 64 458.0 56.5Q433 49 410 48Q388 47 372.0 56.5Q356 66 353 90Q349 128 353.5 167.0Q358 206 365 235Q368 247 374.5 263.5Q381 280 393 283Q410 283 418.0 270.5Q426 258 425 238Z" transform="translate(462.3155 396.0) scale(0.025650 -0.025650)" /><path d="M153 218Q163 218 171.5 223.0Q180 228 186.0 235.5Q192 243 194.5 251.0Q197 259 195 264Q189 281 187.0 294.0Q185 307 194 315Q204 323 216.5 316.0Q229 309 234 300Q248 274 247.5 252.5Q247 231 238.0 213.0Q229 195 214.0 181.5Q199 168 183 160Q167 152 151.0 148.0Q135 144 122.0 148.0Q109 152 101.0 164.5Q93 177 93 201Q93 258 115.5 316.5Q138 375 169 423Q139 425 113.5 421.5Q88 418 59 413Q33 408 18 432Q10 447 23 459Q26 462 45.0 466.5Q64 471 89.0 475.0Q114 479 140.0 480.0Q166 481 183 477Q169 511 149.0 544.0Q129 577 108 612Q105 619 109.0 628.0Q113 637 121 641Q125 643 131.5 644.0Q138 645 144 642Q174 620 190.5 593.5Q207 567 213.5 542.0Q220 517 219.0 495.5Q218 474 213 462Q230 451 230.5 432.5Q231 414 219 392Q197 353 178.0 309.5Q159 266 153 218ZM432 277Q420 281 412.5 290.5Q405 300 404 308Q401 338 399.0 378.5Q397 419 397.5 460.0Q398 501 401.5 538.5Q405 576 411 600Q415 612 420.5 621.5Q426 631 434 629Q443 627 456.0 616.0Q469 605 468 590Q461 539 459 477Q491 483 526.5 484.0Q562 485 589 472Q602 466 607.5 454.0Q613 442 609 434Q607 429 596.5 427.5Q586 426 573 426Q537 426 510.5 423.5Q484 421 458 413Q458 384 459.0 356.5Q460 329 462 306Q463 295 456.5 283.5Q450 272 432 277ZM384 233Q381 212 378.0 178.0Q375 144 377 108Q421 117 466.5 131.5Q512 146 554 158Q561 160 571.5 156.5Q582 153 587.5 146.0Q593 139 590.0 129.0Q587 119 567 109Q547 98 520.5 87.5Q494 77 468.0 68.0Q442 59 419.5 53.0Q397 47 385 44Q347 36 328.0 42.5Q309 49 309 81Q309 93 309.5 111.5Q310 130 311.5 150.5Q313 171 316.0 191.0Q319 211 325 225Q332 242 342.0 252.5Q352 263 369 263Q375 263 380.5 256.5Q386 250 384 233Z" transform="translate(480.5270 396.0) scale(0.025650 -0.025650)" /><path d="M386 189Q375 164 352.5 136.5Q330 109 307 89Q321 93 340.0 92.0Q359 91 370 80Q381 68 380.5 52.5Q380 37 370 20Q350 -12 327.5 -42.5Q305 -73 281 -99Q306 -92 328.5 -84.5Q351 -77 373.5 -70.0Q396 -63 420.0 -56.5Q444 -50 472 -43Q479 -42 488.5 -41.5Q498 -41 506.0 -43.0Q514 -45 519.0 -50.0Q524 -55 523 -65Q521 -76 517.5 -86.5Q514 -97 504 -100Q475 -108 449.0 -115.5Q423 -123 395.5 -131.0Q368 -139 338.5 -148.5Q309 -158 273 -170Q265 -173 253.5 -175.0Q242 -177 230.5 -176.0Q219 -175 208.0 -170.5Q197 -166 190 -156Q183 -147 182.0 -139.0Q181 -131 183.0 -124.0Q185 -117 189.5 -110.5Q194 -104 199 -99Q228 -66 249.0 -37.5Q270 -9 290 23Q274 21 258.0 16.5Q242 12 227 9Q213 6 200.0 14.5Q187 23 187 35Q185 50 203 65Q213 74 228.0 87.0Q243 100 259.0 116.0Q275 132 289.5 149.5Q304 167 312 184Q285 184 252.0 173.5Q219 163 190 154Q187 152 180.0 152.0Q173 152 165.0 153.5Q157 155 150.0 159.0Q143 163 140 170Q137 180 139.5 188.0Q142 196 148.0 202.0Q154 208 161.5 212.0Q169 216 174 218Q180 219 187 223Q201 246 213.0 273.0Q225 300 235.0 326.5Q245 353 254.0 377.5Q263 402 272 420Q222 408 175.5 395.5Q129 383 86 375Q71 372 59.5 384.0Q48 396 46 407Q44 415 49.5 423.5Q55 432 63 434Q123 453 197.0 469.5Q271 486 347 491Q380 493 407 483Q416 479 416 470Q416 466 412.5 458.5Q409 451 400 449Q379 445 358.5 441.0Q338 437 318 432Q324 423 324 416Q324 405 319.5 385.5Q315 366 308.5 344.5Q302 323 295.0 303.0Q288 283 283 272Q275 255 262 241Q280 244 298.0 246.0Q316 248 335 248Q365 248 379.5 228.5Q394 209 386 189ZM266 686Q260 666 248.0 642.5Q236 619 228 605Q240 608 264.5 613.0Q289 618 315.0 620.0Q341 622 363.0 617.5Q385 613 391 596Q391 576 379.5 574.0Q368 572 354 571Q328 569 298.5 564.0Q269 559 241.5 553.0Q214 547 190.5 541.0Q167 535 153 531Q144 529 135.5 533.0Q127 537 115 551Q106 563 126 581Q153 607 174.5 637.0Q196 667 205 703Q206 711 198.0 714.0Q190 717 178.0 717.5Q166 718 152.5 716.0Q139 714 127 713Q116 711 110.0 713.0Q104 715 97 721Q93 682 94.5 633.5Q96 585 101 537Q102 526 94.0 517.5Q86 509 75 507Q68 506 60.5 512.0Q53 518 51 523Q34 571 30.5 621.0Q27 671 27 731Q27 742 35.0 753.5Q43 765 65 766Q76 766 85.0 761.5Q94 757 96 751Q102 757 115 761Q130 765 148.5 767.0Q167 769 186.0 767.0Q205 765 223.0 758.5Q241 752 256 739Q268 728 269.5 714.5Q271 701 266 686Z" transform="translate(503.4325 396.0) scale(0.025650 -0.025650)" /><path d="M461 599Q459 557 459.5 517.0Q460 477 462 435Q474 438 492.0 441.0Q510 444 530.0 446.0Q550 448 570.0 449.0Q590 450 607 449Q627 447 641.5 439.0Q656 431 656 419Q656 407 637.5 401.0Q619 395 603 394Q590 393 572.5 391.0Q555 389 536.0 385.5Q517 382 498.5 377.5Q480 373 466 368Q469 337 473.0 306.5Q477 276 482 245Q483 237 481.0 228.5Q479 220 475.0 213.0Q471 206 466.0 201.0Q461 196 457 195Q449 193 443.5 196.0Q438 199 434.0 204.0Q430 209 427.5 215.5Q425 222 424 227Q416 258 409.0 302.0Q402 346 398.5 397.0Q395 448 394.5 502.5Q394 557 399 610Q402 639 422 644Q429 645 436.5 641.0Q444 637 449.5 629.5Q455 622 458.0 613.5Q461 605 461 599ZM264 423Q260 406 254.0 372.5Q248 339 243.5 299.5Q239 260 237.0 221.5Q235 183 238 157Q240 136 227.0 130.0Q214 124 205 126Q197 127 191.5 132.5Q186 138 183.0 145.0Q180 152 178.5 159.0Q177 166 176 172Q174 190 175.0 223.0Q176 256 179.5 294.0Q183 332 188.5 368.0Q194 404 201 428Q188 425 170.0 419.0Q152 413 133.5 405.5Q115 398 98.0 390.0Q81 382 70 377Q58 371 47.0 380.0Q36 389 32 397Q29 403 28.5 413.0Q28 423 42 431Q52 437 71.0 447.0Q90 457 112.5 467.0Q135 477 159.0 484.0Q183 491 203 491Q240 491 256.0 471.5Q272 452 264 423Z" transform="translate(522.4135 396.0) scale(0.025650 -0.025650)" /><path d="M229 420Q212 394 183.5 376.5Q155 359 121 357Q86 355 66.0 375.5Q46 396 48 425Q50 448 62.5 472.0Q75 496 93 516Q102 525 112.0 530.5Q122 536 133 541Q146 546 158.5 546.0Q171 546 177 541Q181 536 180.5 530.0Q180 524 172 515Q164 505 156.0 495.0Q148 485 144 480Q138 471 132.0 461.0Q126 451 122.5 441.5Q119 432 119.5 424.5Q120 417 127 415Q133 413 142.0 417.0Q151 421 160.0 428.5Q169 436 177.0 445.5Q185 455 188 464Q178 475 173.0 483.5Q168 492 179 502Q186 508 195.0 508.5Q204 509 210 507Q222 503 229.5 493.5Q237 484 239.5 471.5Q242 459 239.5 445.5Q237 432 229 420ZM81 169Q73 168 63.0 168.5Q53 169 43.0 171.5Q33 174 26.0 179.0Q19 184 18 193Q17 206 29.5 216.0Q42 226 59 228Q93 233 134.0 243.0Q175 253 214.0 264.0Q253 275 286.0 285.0Q319 295 338 300Q345 302 355.0 303.5Q365 305 374.0 304.0Q383 303 389.5 299.0Q396 295 397 285Q398 280 395.0 270.0Q392 260 383 254Q376 249 346.0 237.5Q316 226 273.0 212.5Q230 199 179.5 187.0Q129 175 81 169Z" transform="translate(539.4707 396.0) scale(0.025650 -0.025650)" /><path d="M174 546Q166 531 154.5 512.0Q143 493 131 473Q140 475 152.5 476.5Q165 478 176 479Q205 481 212.0 464.5Q219 448 208 427Q196 404 179.5 379.0Q163 354 151 321Q165 323 181.0 324.5Q197 326 211 325Q238 323 251.5 304.5Q265 286 258 258Q249 223 229.5 193.5Q210 164 187 141Q221 143 249.0 145.0Q277 147 302.5 150.0Q328 153 354.0 157.0Q380 161 410 166Q430 168 436.0 163.5Q442 159 445 149Q445 132 436.0 122.5Q427 113 408 108Q275 71 136 74Q111 75 100.0 86.5Q89 98 91 110Q91 118 95.5 125.0Q100 132 108 138Q119 147 133.0 161.0Q147 175 159.5 192.0Q172 209 182.5 227.5Q193 246 197 264Q182 262 155.5 257.0Q129 252 106 260Q95 265 89.5 278.0Q84 291 87 308Q92 332 108.5 363.0Q125 394 144 418Q132 416 115.0 412.0Q98 408 85 404Q70 401 59.5 407.0Q49 413 44 422Q34 443 47 461Q70 493 86.0 518.0Q102 543 113 567Q100 572 79.0 572.5Q58 573 41 573Q33 573 24.5 580.5Q16 588 15 597Q15 608 23.0 617.0Q31 626 45 628Q65 630 89.5 628.0Q114 626 137 617Q166 606 175.5 587.0Q185 568 174 546Z" transform="translate(549.9359 396.0) scale(0.025650 -0.025650)" /><path d="M174 523Q175 518 174.0 507.5Q173 497 168 488Q175 490 184.5 490.0Q194 490 204.0 486.5Q214 483 222.5 475.0Q231 467 236 454Q249 419 247.5 389.0Q246 359 236 332Q230 314 217.0 291.0Q204 268 185.5 249.0Q167 230 145.0 219.5Q123 209 99 216Q83 220 72.0 230.5Q61 241 54.5 253.5Q48 266 44.5 279.0Q41 292 41 302Q38 373 65.0 433.0Q92 493 134 544Q140 551 146.5 551.0Q153 551 159.0 547.0Q165 543 169.0 536.0Q173 529 174 523ZM116 278Q133 285 150.0 310.0Q167 335 175 357Q185 386 182.0 417.5Q179 449 160 473Q146 450 133.5 423.5Q121 397 115 368Q110 348 110.0 321.5Q110 295 116 278ZM459 237Q447 242 441.5 252.0Q436 262 434 270Q431 298 431.5 345.5Q432 393 434 447Q436 501 440.5 550.5Q445 600 451 630Q459 659 477 657Q491 655 500.5 638.5Q510 622 508 607Q503 575 500.0 528.5Q497 482 495 434Q493 386 492.0 341.0Q491 296 492 266Q491 260 489.5 254.0Q488 248 484 243Q476 231 459 237ZM384 225Q378 189 374.0 155.5Q370 122 372 88Q421 102 465.0 120.0Q509 138 551 163Q566 172 577.0 178.0Q588 184 593 173Q598 160 588.0 138.0Q578 116 557 101Q524 79 475.0 56.0Q426 33 377 22Q371 21 359.0 19.5Q347 18 335 22Q323 26 314.0 37.0Q305 48 305 72Q305 107 310.0 149.5Q315 192 329 230Q332 238 341.0 247.0Q350 256 361 256Q379 256 382.5 247.0Q386 238 384 225Z" transform="translate(568.1474 396.0) scale(0.025650 -0.025650)" /><path d="M396 160Q358 157 324.5 153.0Q291 149 258.0 144.5Q225 140 190.5 135.0Q156 130 118 124Q96 121 80.0 127.0Q64 133 61 145Q54 170 95 181Q113 185 133.0 188.5Q153 192 173 195Q183 221 196.5 260.5Q210 300 212 335Q190 331 165.0 326.0Q140 321 114 319Q101 318 88.5 319.5Q76 321 66.5 327.5Q57 334 51.5 346.0Q46 358 46 377Q46 392 49.0 411.0Q52 430 56.5 450.5Q61 471 67.0 491.5Q73 512 79 529Q72 528 66.0 527.5Q60 527 54 527Q31 525 22.0 537.0Q13 549 13 561Q13 580 41 586Q76 594 117.0 600.0Q158 606 194 608Q213 610 227.0 604.0Q241 598 242 581Q243 566 231.5 559.0Q220 552 211 550Q181 544 145 538Q134 502 124.5 459.0Q115 416 113 385Q138 387 170.0 393.0Q202 399 225 402Q260 407 276.0 390.5Q292 374 287 348Q284 335 279.5 317.0Q275 299 268.5 279.5Q262 260 254.5 240.5Q247 221 240 205Q313 214 398 217Q413 217 424.5 210.0Q436 203 436 192Q436 178 422.5 170.0Q409 162 396 160Z" transform="translate(582.7679 396.0) scale(0.025650 -0.025650)" /><path d="M234 425Q225 396 215.5 366.5Q206 337 197 308Q228 307 250.5 292.0Q273 277 279 257Q285 240 282.5 221.5Q280 203 271.5 185.0Q263 167 250.0 150.5Q237 134 221 122Q211 114 189.5 105.5Q168 97 150 100Q121 105 111.0 133.5Q101 162 106 194Q111 228 117.5 254.5Q124 281 131.5 306.0Q139 331 148.0 357.0Q157 383 168 417Q138 413 110.0 402.0Q82 391 62 379Q49 371 33.5 376.0Q18 381 18 401Q16 417 35.0 432.0Q54 447 82.0 457.5Q110 468 140.0 473.5Q170 479 190 477Q218 474 227.5 458.5Q237 443 234 425ZM469 426Q514 449 556.5 451.0Q599 453 633 442Q642 439 645.5 434.0Q649 429 649.5 424.5Q650 420 649.0 416.5Q648 413 648 412Q637 394 622 394Q601 394 585.5 393.5Q570 393 557.5 391.5Q545 390 533.5 387.0Q522 384 508 380Q499 377 493.5 378.5Q488 380 484.0 382.5Q480 385 477.5 387.0Q475 389 472 388Q470 387 470 377Q470 330 473.5 290.0Q477 250 480 212Q481 199 473.5 185.0Q466 171 452 173Q442 175 431.0 187.0Q420 199 418 212Q403 308 404.5 406.0Q406 504 417 589Q418 599 424.5 603.5Q431 608 438.5 608.5Q446 609 454.0 606.5Q462 604 467 600Q471 597 477.0 588.5Q483 580 481 572Q475 538 472.0 499.5Q469 461 469 426ZM238 555Q241 547 243.5 534.5Q246 522 245.5 511.5Q245 501 239.0 494.5Q233 488 218 492Q209 495 205.0 502.5Q201 510 196 518Q176 557 149.0 594.5Q122 632 93 662Q77 676 73.0 690.5Q69 705 83 716Q96 724 109.5 719.5Q123 715 134 705Q152 688 169.0 668.0Q186 648 199.5 627.5Q213 607 223.0 588.5Q233 570 238 555ZM166 164Q177 170 188.5 178.0Q200 186 209.0 196.0Q218 206 222.0 217.5Q226 229 222 241Q218 253 208.5 259.0Q199 265 187 269Q180 243 174.5 216.5Q169 190 166 164Z" transform="translate(593.9513 396.0) scale(0.025650 -0.025650)" /><path d="M223 521Q205 504 184.5 479.5Q164 455 144.5 426.0Q125 397 108.0 364.0Q91 331 81 296Q79 291 78.5 283.5Q78 276 74.5 269.5Q71 263 63.5 260.0Q56 257 41 262Q21 269 18.5 283.0Q16 297 18 308Q24 337 39.0 372.5Q54 408 75.5 443.0Q97 478 122.0 509.0Q147 540 173 560Q178 564 192.5 570.0Q207 576 221 570Q233 565 237.5 551.5Q242 538 223 521ZM234 389Q236 367 240.0 339.5Q244 312 249.5 283.5Q255 255 261.0 227.5Q267 200 273 179Q278 166 274.5 155.0Q271 144 259 140Q248 137 236.0 145.0Q224 153 219 164Q210 183 203.0 210.0Q196 237 190.0 266.0Q184 295 180.0 323.5Q176 352 174 373Q174 379 174.0 388.0Q174 397 176.0 405.0Q178 413 182.0 418.5Q186 424 194 425Q202 426 215.0 419.5Q228 413 234 389ZM440 157Q423 160 415.0 179.0Q407 198 405 220Q402 259 400.0 304.0Q398 349 398.0 395.0Q398 441 399.5 486.5Q401 532 405 573Q407 596 417.5 612.0Q428 628 443 628Q457 628 464.0 616.5Q471 605 471 594Q464 497 464.5 392.5Q465 288 470 195Q471 175 462.5 165.0Q454 155 440 157Z" transform="translate(610.6238 396.0) scale(0.025650 -0.025650)" /><path d="M125 483Q153 489 183.5 496.0Q214 503 244.5 508.0Q275 513 305.5 515.0Q336 517 364 512Q375 509 379.5 501.5Q384 494 381 485Q378 475 363.5 471.0Q349 467 334 464Q305 459 281.5 454.5Q258 450 237.0 445.5Q216 441 195.5 436.0Q175 431 151 425Q120 417 102.0 424.5Q84 432 79 437Q69 447 65.5 458.5Q62 470 60 484Q58 501 58.5 522.0Q59 543 62.0 564.0Q65 585 69.0 603.5Q73 622 78 634Q81 643 90.0 646.0Q99 649 110 645Q122 640 129.5 625.5Q137 611 135 603Q128 574 125.0 543.0Q122 512 125 483ZM78 262Q59 261 41.0 267.0Q23 273 19 293Q19 306 33.0 314.5Q47 323 70 327Q159 341 233.0 347.0Q307 353 379 347Q398 342 398 328Q398 317 391.0 309.5Q384 302 364 300Q328 295 296.5 291.0Q265 287 232.0 283.0Q199 279 161.5 274.0Q124 269 78 262ZM186 243Q190 243 196.5 240.0Q203 237 209.0 231.0Q215 225 219.0 217.5Q223 210 223 201Q222 190 220.0 177.0Q218 164 215.5 150.5Q213 137 211.5 124.0Q210 111 209 101Q265 106 316.5 120.5Q368 135 413 149Q421 152 430.0 147.0Q439 142 444 135Q450 126 445.0 115.0Q440 104 434 101Q410 87 380.5 75.0Q351 63 319.5 54.5Q288 46 257.0 40.0Q226 34 200 32Q178 30 165.5 35.5Q153 41 147.0 50.0Q141 59 139.5 71.0Q138 83 140 95Q145 130 149.0 160.5Q153 191 161 222Q163 233 170.0 238.0Q177 243 186 243Z" transform="translate(624.2183 396.0) scale(0.025650 -0.025650)" /><path d="M396 160Q358 157 324.5 153.0Q291 149 258.0 144.5Q225 140 190.5 135.0Q156 130 118 124Q96 121 80.0 127.0Q64 133 61 145Q54 170 95 181Q113 185 133.0 188.5Q153 192 173 195Q183 221 196.5 260.5Q210 300 212 335Q190 331 165.0 326.0Q140 321 114 319Q101 318 88.5 319.5Q76 321 66.5 327.5Q57 334 51.5 346.0Q46 358 46 377Q46 392 49.0 411.0Q52 430 56.5 450.5Q61 471 67.0 491.5Q73 512 79 529Q72 528 66.0 527.5Q60 527 54 527Q31 525 22.0 537.0Q13 549 13 561Q13 580 41 586Q76 594 117.0 600.0Q158 606 194 608Q213 610 227.0 604.0Q241 598 242 581Q243 566 231.5 559.0Q220 552 211 550Q181 544 145 538Q134 502 124.5 459.0Q115 416 113 385Q138 387 170.0 393.0Q202 399 225 402Q260 407 276.0 390.5Q292 374 287 348Q284 335 279.5 317.0Q275 299 268.5 279.5Q262 260 254.5 240.5Q247 221 240 205Q313 214 398 217Q413 217 424.5 210.0Q436 203 436 192Q436 178 422.5 170.0Q409 162 396 160Z" transform="translate(634.9913 396.0) scale(0.025650 -0.025650)" /><path d="M245 474Q240 466 223.5 461.5Q207 457 186.0 455.0Q165 453 143.5 452.5Q122 452 108 453Q121 443 119 430Q113 385 110.5 335.0Q108 285 113 240Q146 249 198.0 272.5Q250 296 303 341Q323 359 332 353Q339 348 335.5 337.5Q332 327 326 317Q314 296 293.0 273.5Q272 251 245.5 230.5Q219 210 188.5 192.5Q158 175 126 164Q109 159 95.5 163.0Q82 167 72.5 176.5Q63 186 56.5 199.5Q50 213 49 228Q43 285 46.0 344.5Q49 404 57 455Q36 457 24.5 467.5Q13 478 13 491Q13 495 15.5 499.5Q18 504 29 507Q36 509 58.0 512.0Q80 515 108.0 516.0Q136 517 165.5 516.0Q195 515 217 509Q234 504 242.0 493.5Q250 483 245 474ZM460 207Q460 190 448.0 184.0Q436 178 423 180Q415 182 406.0 190.0Q397 198 395 213Q392 262 390.5 313.0Q389 364 389.0 412.0Q389 460 390.0 503.5Q391 547 393 581Q393 590 400.5 598.0Q408 606 419 606Q438 606 448.5 590.0Q459 574 459 560Q457 528 456.0 495.0Q455 462 454 428Q491 441 535.0 446.5Q579 452 637 447Q653 445 667.5 437.0Q682 429 682 417Q677 400 663.0 395.0Q649 390 633 391Q623 391 607.5 390.0Q592 389 574.0 386.5Q556 384 536.0 380.0Q516 376 498 372Q485 369 474.0 372.0Q463 375 454 381Q454 289 460 207Z" transform="translate(646.1747 396.0) scale(0.025650 -0.025650)" /></g><text x="38" y="456" font-size="11" fill="#476550" font-family="Noto Sans KR, Apple SD Gothic Neo, sans-serif">03</text><text x="72" y="474" font-size="20" fill="#303B36" font-family="Noto Serif KR, AppleMyungjo, serif">내 영혼을 소생시키시고</text><path d="M430 487h350" stroke="#DFE2DB" /><text x="72" y="522" font-size="20" fill="#303B36" font-family="Noto Serif KR, AppleMyungjo, serif">자기 이름을 위하여</text><path d="M430 535h350" stroke="#DFE2DB" /><text x="72" y="570" font-size="20" fill="#303B36" font-family="Noto Serif KR, AppleMyungjo, serif">의의 길로 인도하시는도다</text><path d="M430 583h350" stroke="#DFE2DB" /></g><g id="도구 팔레트" data-name="도구 팔레트"><g id="surface-g2401" data-name="표면 (불투명 · iOS 26 미만 폴백 · 유리로 쓰려면 채우기 80% + Background blur 20)"><path d="M178.0 1070h464a20 20 0 0 1 20 20v24a20 20 0 0 1 -20 20h-464a20 20 0 0 1 -20 -20v-24a20 20 0 0 1 20 -20z" fill="#F0EFEA" /></g><g id="hl-g2401" data-name="유리 하이라이트 (iOS 26)"><path d="M178.0 1070h464a20 20 0 0 1 20 20v24a20 20 0 0 1 -20 20h-464a20 20 0 0 1 -20 -20v-24a20 20 0 0 1 20 -20z" fill="url(#spec)" /><path d="M178.0 1070h464a20 20 0 0 1 20 20v24a20 20 0 0 1 -20 20h-464a20 20 0 0 1 -20 -20v-24a20 20 0 0 1 20 -20z" fill="none" stroke="#FFFFFF" stroke-width="1" opacity="0.65" /><path d="M178.0 1070h464a20 20 0 0 1 20 20v24a20 20 0 0 1 -20 20h-464a20 20 0 0 1 -20 -20v-24a20 20 0 0 1 20 -20z" fill="none" stroke="#303B36" stroke-width="1" opacity="0.10" /></g><rect x="170.0" y="1080" width="44" height="44" rx="12" fill="#FAF9F6" opacity="0.75" /><g transform="translate(180.0 1090) scale(1)" fill="none" stroke="#303B36" stroke-width="1.7" stroke-linecap="round" stroke-linejoin="round"><title>펜</title><path d="m4 20 1-5L16 4a2.12 2.12 0 0 1 3 3L8 18l-4 2Zm10-14 4 4M5 15l3 3" /></g><g transform="translate(228.0 1090) scale(1)" fill="none" stroke="#303B36" stroke-width="1.7" stroke-linecap="round" stroke-linejoin="round"><title>지우개</title><path d="m9 19-5-5a2 2 0 0 1 0-3l8-8a2 2 0 0 1 3 0l6 6a2 2 0 0 1 0 3l-7 7H9Zm-2-11 9 9M9 19h12" /></g><g transform="translate(276.0 1090) scale(1)" fill="none" stroke="#303B36" stroke-width="1.7" stroke-linecap="round" stroke-linejoin="round"><title>올가미</title><path d="M7 16C0 14 0 3 12 3s14 14 0 14H9m0-2c-3 0-4 2-3 4s5 1 5-1c0-2-2-2-2 0v2c0 2 3 3 5 1" /></g><text x="334.0" y="1107" font-size="14" fill="#303B36" font-family="Noto Sans KR, Apple SD Gothic Neo, sans-serif">0.5 mm</text><circle cx="438.0" cy="1102" r="15" fill="none" stroke="#303B36" stroke-width="2" opacity="0.35" /><circle cx="438.0" cy="1102" r="10" fill="#303B36" /><circle cx="474.0" cy="1102" r="10" fill="#476550" /><circle cx="510.0" cy="1102" r="10" fill="#9D7967" /><g transform="translate(564.0 1090) scale(1)" fill="none" stroke="#303B36" stroke-width="1.7" stroke-linecap="round" stroke-linejoin="round"><title>실행 취소</title><path d="m8 4-5 5 5 5M3 9h11a6 6 0 0 1 0 12" /></g><g transform="translate(612.0 1090) scale(1)" fill="none" stroke="#303B36" stroke-width="1.7" stroke-linecap="round" stroke-linejoin="round"><title>다시 실행</title><path d="m16 4 5 5-5 5m5-5H10a6 6 0 0 0 0 12" /></g><text x="410.0" y="1160" font-size="12" fill="#5F6862" font-family="Noto Sans KR, Apple SD Gothic Neo, sans-serif" text-anchor="middle">두 손가락으로 스크롤 · Apple Pencil로 필사</text></g></svg>