<svg xmlns="http://www.w3.org/2000/svg" width="1180" height="1840" viewBox="0 0 1180 1840"><defs><linearGradient id="sh" x1="0" x2="1"><stop offset="0" stop-color="#303B36" stop-opacity="0.13"/><stop offset="1" stop-color="#303B36" stop-opacity="0"/></linearGradient><clipPath id="pop"><rect x="300" y="134" width="580" height="566" rx="20"/></clipPath></defs><rect x="0" y="0" width="1180" height="1840" rx="0" fill="#E8E9E3"/><text x="32" y="28" font-size="18" fill="#303B36" font-family="Noto Sans KR, Apple SD Gothic Neo, sans-serif" font-weight="600">안 A · 오버레이 사이드바 400pt + push 계층</text><text x="1148" y="30" font-size="13" fill="#5F6862" font-family="Noto Sans KR, Apple SD Gothic Neo, sans-serif" text-anchor="end">한 컬럼 = 한 스크롤. 사이드바는 필사 폭을 밀지 않는다.</text><g transform="translate(0 48)"><rect x="0" y="0" width="1180" height="820" rx="24" fill="#FAF9F6"/><text x="28" y="24" font-size="12" fill="#303B36" font-family="Noto Sans KR, Apple SD Gothic Neo, sans-serif">9:41</text><text x="1152" y="24" font-size="12" fill="#303B36" font-family="Noto Sans KR, Apple SD Gothic Neo, sans-serif" text-anchor="end">Wi-Fi  100%</text><rect x="32" y="52" width="64" height="44" rx="12" fill="#F0EFEA"/><text x="64" y="80" font-size="14" fill="#303B36" font-family="Noto Sans KR, Apple SD Gothic Neo, sans-serif" text-anchor="middle">서재</text><text x="590" y="84" font-size="26" fill="#303B36" font-family="Noto Serif KR, AppleMyungjo, serif" text-anchor="middle">시편 23편</text><text x="590" y="108" font-size="12" fill="#5F6862" font-family="Noto Sans KR, Apple SD Gothic Neo, sans-serif" text-anchor="middle">개역한글</text><rect x="922" y="52" width="64" height="44" rx="12" fill="#F0EFEA"/><text x="954" y="80" font-size="14" fill="#303B36" font-family="Noto Sans KR, Apple SD Gothic Neo, sans-serif" text-anchor="middle">이전</text><rect x="994" y="52" width="64" height="44" rx="12" fill="#F0EFEA"/><text x="1026" y="80" font-size="14" fill="#303B36" font-family="Noto Sans KR, Apple SD Gothic Neo, sans-serif" text-anchor="middle">다음</text><rect x="1066" y="52" width="64" height="44" rx="12" fill="#F0EFEA"/><text x="1098" y="80" font-size="14" fill="#303B36" font-family="Noto Sans KR, Apple SD Gothic Neo, sans-serif" text-anchor="middle">설정</text><text x="44" y="166" font-size="13" fill="#5F6862" font-family="Noto Sans KR, Apple SD Gothic Neo, sans-serif">말씀</text><text x="620" y="166" font-size="13" fill="#5F6862" font-family="Noto Sans KR, Apple SD Gothic Neo, sans-serif">나의 필사</text><text x="44" y="222" font-size="13" fill="#476550" font-family="Noto Sans KR, Apple SD Gothic Neo, sans-serif">01</text><text x="78" y="222" font-size="20" fill="#303B36" font-family="Noto Serif KR, AppleMyungjo, serif">여호와는 나의 목자시니</text><path d="M620 235h516" stroke="#DFE2DB"/><text x="630" y="222" font-size="20" fill="#476550" font-family="Noto Serif KR, AppleMyungjo, serif">여호와는 나의 목자시니</text><text x="78" y="270" font-size="20" fill="#303B36" font-family="Noto Serif KR, AppleMyungjo, serif">내가 부족함이 없으리로다</text><path d="M620 283h516" stroke="#DFE2DB"/><text x="630" y="270" font-size="20" fill="#476550" font-family="Noto Serif KR, AppleMyungjo, serif">내가 부족함이 없으리로다</text><text x="44" y="342" font-size="13" fill="#476550" font-family="Noto Sans KR, Apple SD Gothic Neo, sans-serif">02</text><text x="78" y="342" font-size="20" fill="#303B36" font-family="Noto Serif KR, AppleMyungjo, serif">그가 나를 푸른 초장에 누이시며</text><path d="M620 355h516" stroke="#DFE2DB"/><text x="78" y="390" font-size="20" fill="#303B36" font-family="Noto Serif KR, AppleMyungjo, serif">쉴 만한 물 가으로 인도하시는도다</text><path d="M620 403h516" stroke="#DFE2DB"/><text x="44" y="462" font-size="13" fill="#476550" font-family="Noto Sans KR, Apple SD Gothic Neo, sans-serif">03</text><text x="78" y="462" font-size="20" fill="#303B36" font-family="Noto Serif KR, AppleMyungjo, serif">내 영혼을 소생시키시고 자기 이름을</text><path d="M620 475h516" stroke="#DFE2DB"/><text x="78" y="510" font-size="20" fill="#303B36" font-family="Noto Serif KR, AppleMyungjo, serif">위하여 의의 길로 인도하시는도다</text><path d="M620 523h516" stroke="#DFE2DB"/><text x="44" y="582" font-size="13" fill="#476550" font-family="Noto Sans KR, Apple SD Gothic Neo, sans-serif">04</text><text x="78" y="582" font-size="20" fill="#303B36" font-family="Noto Serif KR, AppleMyungjo, serif">내가 사망의 음침한 골짜기로 다닐지라도</text><path d="M620 595h516" stroke="#DFE2DB"/><text x="78" y="630" font-size="20" fill="#303B36" font-family="Noto Serif KR, AppleMyungjo, serif">해를 두려워하지 않을 것은 주께서 나와</text><path d="M620 643h516" stroke="#DFE2DB"/><text x="78" y="678" font-size="20" fill="#303B36" font-family="Noto Serif KR, AppleMyungjo, serif">함께 하심이라 주의 지팡이와 막대기가</text><path d="M620 691h516" stroke="#DFE2DB"/><rect x="538.0" y="710" width="504" height="64" rx="20" fill="#F0EFEA"/><rect x="550.0" y="720" width="44" height="44" rx="12" fill="#E4EBE2"/><g transform="translate(560.0 730)" fill="none" stroke="#303B36" stroke-width="1.7" stroke-linecap="round" stroke-linejoin="round"><title>펜</title><path d="m4 20 1-5L16 4a2.12 2.12 0 0 1 3 3L8 18l-4 2Zm10-14 4 4M5 15l3 3"/></g><g transform="translate(608.0 730)" fill="none" stroke="#303B36" stroke-width="1.7" stroke-linecap="round" stroke-linejoin="round"><title>지우개</title><path d="m9 19-5-5a2 2 0 0 1 0-3l8-8a2 2 0 0 1 3 0l6 6a2 2 0 0 1 0 3l-7 7H9Zm-2-11 9 9M9 19h12"/></g><g transform="translate(656.0 730)" fill="none" stroke="#303B36" stroke-width="1.7" stroke-linecap="round" stroke-linejoin="round"><title>올가미</title><path d="M7 16C0 14 0 3 12 3s14 14 0 14H9m0-2c-3 0-4 2-3 4s5 1 5-1c0-2-2-2-2 0v2c0 2 3 3 5 1"/></g><text x="714.0" y="747" font-size="14" fill="#303B36" font-family="Noto Sans KR, Apple SD Gothic Neo, sans-serif">0.5 mm</text><circle cx="818.0" cy="742" r="15" fill="none" stroke="#DFE2DB" stroke-width="2"/><circle cx="818.0" cy="742" r="10" fill="#303B36"/><circle cx="854.0" cy="742" r="10" fill="#476550"/><circle cx="890.0" cy="742" r="10" fill="#9D7967"/><g transform="translate(944.0 730)" fill="none" stroke="#303B36" stroke-width="1.7" stroke-linecap="round" stroke-linejoin="round"><title>실행 취소</title><path d="m8 4-5 5 5 5M3 9h11a6 6 0 0 1 0 12"/></g><g transform="translate(992.0 730)" fill="none" stroke="#303B36" stroke-width="1.7" stroke-linecap="round" stroke-linejoin="round"><title>다시 실행</title><path d="m16 4 5 5-5 5m5-5H10a6 6 0 0 0 0 12"/></g><text x="790.0" y="800" font-size="12" fill="#5F6862" font-family="Noto Sans KR, Apple SD Gothic Neo, sans-serif" text-anchor="middle">두 손가락으로 스크롤 · Apple Pencil로 필사</text><rect x="0" y="0" width="1180" height="820" rx="24" fill="#303B36" opacity="0.12"/><rect x="400" y="0" width="18" height="820" fill="url(#sh)"/><path d="M24 0h376v820H24a24 24 0 0 1-24-24V24A24 24 0 0 1 24 0Z" fill="#F0EFEA"/><text x="28" y="44" font-size="22" fill="#303B36" font-family="Noto Serif KR, AppleMyungjo, serif">새기다</text><rect x="316" y="16" width="64" height="44" rx="12" fill="#FAF9F6"/><text x="348" y="44" font-size="13" fill="#303B36" font-family="Noto Sans KR, Apple SD Gothic Neo, sans-serif" text-anchor="middle">닫기</text><rect x="20" y="72" width="360" height="44" rx="12" fill="#FAF9F6" stroke="#DFE2DB"/><g transform="translate(38 86)" fill="none" stroke="#5F6862" stroke-width="1.6" stroke-linecap="round"><circle cx="7" cy="7" r="6"/><path d="m11.5 11.5 4 4"/></g><text x="66" y="101" font-size="14" fill="#5F6862" font-family="Noto Sans KR, Apple SD Gothic Neo, sans-serif">성경 · 장 검색   예) 시 23</text><rect x="20" y="132" width="360" height="44" rx="12" fill="#FAF9F6" stroke="#DFE2DB"/><rect x="24" y="136" width="176.0" height="36" rx="9" fill="#E4EBE2"/><text x="112.0" y="160" font-size="14" fill="#303B36" font-family="Noto Sans KR, Apple SD Gothic Neo, sans-serif" text-anchor="middle">구약</text><text x="288.0" y="160" font-size="14" fill="#5F6862" font-family="Noto Sans KR, Apple SD Gothic Neo, sans-serif" text-anchor="middle">신약</text><text x="24" y="210" font-size="12" fill="#5F6862" font-family="Noto Sans KR, Apple SD Gothic Neo, sans-serif">성경</text><text x="32" y="254" font-size="16" fill="#303B36" font-family="Noto Sans KR, Apple SD Gothic Neo, sans-serif">에스라</text><g transform="translate(364 248)" fill="none" stroke="#5F6862" stroke-width="1.6" stroke-linecap="round" stroke-linejoin="round"><path d="m0-5 5 5-5 5"/></g><text x="32" y="298" font-size="16" fill="#303B36" font-family="Noto Sans KR, Apple SD Gothic Neo, sans-serif">느헤미야</text><g transform="translate(364 292)" fill="none" stroke="#5F6862" stroke-width="1.6" stroke-linecap="round" stroke-linejoin="round"><path d="m0-5 5 5-5 5"/></g><text x="32" y="342" font-size="16" fill="#303B36" font-family="Noto Sans KR, Apple SD Gothic Neo, sans-serif">에스더</text><g transform="translate(364 336)" fill="none" stroke="#5F6862" stroke-width="1.6" stroke-linecap="round" stroke-linejoin="round"><path d="m0-5 5 5-5 5"/></g><text x="32" y="386" font-size="16" fill="#303B36" font-family="Noto Sans KR, Apple SD Gothic Neo, sans-serif">욥기</text><g transform="translate(364 380)" fill="none" stroke="#5F6862" stroke-width="1.6" stroke-linecap="round" stroke-linejoin="round"><path d="m0-5 5 5-5 5"/></g><rect x="16" y="402" width="368" height="44" rx="12" fill="#E4EBE2"/><text x="32" y="430" font-size="16" fill="#303B36" font-family="Noto Sans KR, Apple SD Gothic Neo, sans-serif">시편</text><text x="356" y="430" font-size="13" fill="#476550" font-family="Noto Sans KR, Apple SD Gothic Neo, sans-serif" text-anchor="end">23장</text><g transform="translate(364 424)" fill="none" stroke="#5F6862" stroke-width="1.6" stroke-linecap="round" stroke-linejoin="round"><path d="m0-5 5 5-5 5"/></g><text x="32" y="474" font-size="16" fill="#303B36" font-family="Noto Sans KR, Apple SD Gothic Neo, sans-serif">잠언</text><g transform="translate(364 468)" fill="none" stroke="#5F6862" stroke-width="1.6" stroke-linecap="round" stroke-linejoin="round"><path d="m0-5 5 5-5 5"/></g><text x="32" y="518" font-size="16" fill="#303B36" font-family="Noto Sans KR, Apple SD Gothic Neo, sans-serif">전도서</text><g transform="translate(364 512)" fill="none" stroke="#5F6862" stroke-width="1.6" stroke-linecap="round" stroke-linejoin="round"><path d="m0-5 5 5-5 5"/></g><text x="32" y="562" font-size="16" fill="#303B36" font-family="Noto Sans KR, Apple SD Gothic Neo, sans-serif">아가</text><g transform="translate(364 556)" fill="none" stroke="#5F6862" stroke-width="1.6" stroke-linecap="round" stroke-linejoin="round"><path d="m0-5 5 5-5 5"/></g><text x="32" y="606" font-size="16" fill="#303B36" font-family="Noto Sans KR, Apple SD Gothic Neo, sans-serif">이사야</text><g transform="translate(364 600)" fill="none" stroke="#5F6862" stroke-width="1.6" stroke-linecap="round" stroke-linejoin="round"><path d="m0-5 5 5-5 5"/></g><text x="32" y="650" font-size="16" fill="#303B36" font-family="Noto Sans KR, Apple SD Gothic Neo, sans-serif">예레미야</text><g transform="translate(364 644)" fill="none" stroke="#5F6862" stroke-width="1.6" stroke-linecap="round" stroke-linejoin="round"><path d="m0-5 5 5-5 5"/></g><text x="32" y="694" font-size="16" fill="#303B36" font-family="Noto Sans KR, Apple SD Gothic Neo, sans-serif">예레미야애가</text><g transform="translate(364 688)" fill="none" stroke="#5F6862" stroke-width="1.6" stroke-linecap="round" stroke-linejoin="round"><path d="m0-5 5 5-5 5"/></g><text x="32" y="738" font-size="16" fill="#303B36" font-family="Noto Sans KR, Apple SD Gothic Neo, sans-serif">에스겔</text><g transform="translate(364 732)" fill="none" stroke="#5F6862" stroke-width="1.6" stroke-linecap="round" stroke-linejoin="round"><path d="m0-5 5 5-5 5"/></g><text x="32" y="782" font-size="16" fill="#303B36" font-family="Noto Sans KR, Apple SD Gothic Neo, sans-serif">다니엘</text><g transform="translate(364 776)" fill="none" stroke="#5F6862" stroke-width="1.6" stroke-linecap="round" stroke-linejoin="round"><path d="m0-5 5 5-5 5"/></g><rect x="0" y="764" width="400" height="56" fill="#F0EFEA"/><path d="M0 764h400" stroke="#DFE2DB"/><rect x="20" y="770" width="116" height="44" rx="12" fill="#FAF9F6"/><text x="78" y="798" font-size="13" fill="#303B36" font-family="Noto Sans KR, Apple SD Gothic Neo, sans-serif" text-anchor="middle">개역한글 ⌄</text><rect x="256" y="770" width="60" height="44" rx="12" fill="#FAF9F6"/><text x="286" y="798" font-size="13" fill="#303B36" font-family="Noto Sans KR, Apple SD Gothic Neo, sans-serif" text-anchor="middle">차트</text><rect x="324" y="770" width="60" height="44" rx="12" fill="#FAF9F6"/><text x="354" y="798" font-size="13" fill="#303B36" font-family="Noto Sans KR, Apple SD Gothic Neo, sans-serif" text-anchor="middle">설정</text></g><text x="32" y="896" font-size="13" fill="#5F6862" font-family="Noto Sans KR, Apple SD Gothic Neo, sans-serif">1단계 — 성경 목록이 사이드바 전 높이(12행)를 쓴다. 뒤의 필사 화면은 전체 폭 그대로다(오버레이).</text><g transform="translate(0 958)"><rect x="0" y="0" width="1180" height="820" rx="24" fill="#FAF9F6"/><text x="28" y="24" font-size="12" fill="#303B36" font-family="Noto Sans KR, Apple SD Gothic Neo, sans-serif">9:41</text><text x="1152" y="24" font-size="12" fill="#303B36" font-family="Noto Sans KR, Apple SD Gothic Neo, sans-serif" text-anchor="end">Wi-Fi  100%</text><rect x="32" y="52" width="64" height="44" rx="12" fill="#F0EFEA"/><text x="64" y="80" font-size="14" fill="#303B36" font-family="Noto Sans KR, Apple SD Gothic Neo, sans-serif" text-anchor="middle">서재</text><text x="590" y="84" font-size="26" fill="#303B36" font-family="Noto Serif KR, AppleMyungjo, serif" text-anchor="middle">시편 23편</text><text x="590" y="108" font-size="12" fill="#5F6862" font-family="Noto Sans KR, Apple SD Gothic Neo, sans-serif" text-anchor="middle">개역한글</text><rect x="922" y="52" width="64" height="44" rx="12" fill="#F0EFEA"/><text x="954" y="80" font-size="14" fill="#303B36" font-family="Noto Sans KR, Apple SD Gothic Neo, sans-serif" text-anchor="middle">이전</text><rect x="994" y="52" width="64" height="44" rx="12" fill="#F0EFEA"/><text x="1026" y="80" font-size="14" fill="#303B36" font-family="Noto Sans KR, Apple SD Gothic Neo, sans-serif" text-anchor="middle">다음</text><rect x="1066" y="52" width="64" height="44" rx="12" fill="#F0EFEA"/><text x="1098" y="80" font-size="14" fill="#303B36" font-family="Noto Sans KR, Apple SD Gothic Neo, sans-serif" text-anchor="middle">설정</text><text x="44" y="166" font-size="13" fill="#5F6862" font-family="Noto Sans KR, Apple SD Gothic Neo, sans-serif">말씀</text><text x="620" y="166" font-size="13" fill="#5F6862" font-family="Noto Sans KR, Apple SD Gothic Neo, sans-serif">나의 필사</text><text x="44" y="222" font-size="13" fill="#476550" font-family="Noto Sans KR, Apple SD Gothic Neo, sans-serif">01</text><text x="78" y="222" font-size="20" fill="#303B36" font-family="Noto Serif KR, AppleMyungjo, serif">여호와는 나의 목자시니</text><path d="M620 235h516" stroke="#DFE2DB"/><text x="630" y="222" font-size="20" fill="#476550" font-family="Noto Serif KR, AppleMyungjo, serif">여호와는 나의 목자시니</text><text x="78" y="270" font-size="20" fill="#303B36" font-family="Noto Serif KR, AppleMyungjo, serif">내가 부족함이 없으리로다</text><path d="M620 283h516" stroke="#DFE2DB"/><text x="630" y="270" font-size="20" fill="#476550" font-family="Noto Serif KR, AppleMyungjo, serif">내가 부족함이 없으리로다</text><text x="44" y="342" font-size="13" fill="#476550" font-family="Noto Sans KR, Apple SD Gothic Neo, sans-serif">02</text><text x="78" y="342" font-size="20" fill="#303B36" font-family="Noto Serif KR, AppleMyungjo, serif">그가 나를 푸른 초장에 누이시며</text><path d="M620 355h516" stroke="#DFE2DB"/><text x="78" y="390" font-size="20" fill="#303B36" font-family="Noto Serif KR, AppleMyungjo, serif">쉴 만한 물 가으로 인도하시는도다</text><path d="M620 403h516" stroke="#DFE2DB"/><text x="44" y="462" font-size="13" fill="#476550" font-family="Noto Sans KR, Apple SD Gothic Neo, sans-serif">03</text><text x="78" y="462" font-size="20" fill="#303B36" font-family="Noto Serif KR, AppleMyungjo, serif">내 영혼을 소생시키시고 자기 이름을</text><path d="M620 475h516" stroke="#DFE2DB"/><text x="78" y="510" font-size="20" fill="#303B36" font-family="Noto Serif KR, AppleMyungjo, serif">위하여 의의 길로 인도하시는도다</text><path d="M620 523h516" stroke="#DFE2DB"/><text x="44" y="582" font-size="13" fill="#476550" font-family="Noto Sans KR, Apple SD Gothic Neo, sans-serif">04</text><text x="78" y="582" font-size="20" fill="#303B36" font-family="Noto Serif KR, AppleMyungjo, serif">내가 사망의 음침한 골짜기로 다닐지라도</text><path d="M620 595h516" stroke="#DFE2DB"/><text x="78" y="630" font-size="20" fill="#303B36" font-family="Noto Serif KR, AppleMyungjo, serif">해를 두려워하지 않을 것은 주께서 나와</text><path d="M620 643h516" stroke="#DFE2DB"/><text x="78" y="678" font-size="20" fill="#303B36" font-family="Noto Serif KR, AppleMyungjo, serif">함께 하심이라 주의 지팡이와 막대기가</text><path d="M620 691h516" stroke="#DFE2DB"/><rect x="538.0" y="710" width="504" height="64" rx="20" fill="#F0EFEA"/><rect x="550.0" y="720" width="44" height="44" rx="12" fill="#E4EBE2"/><g transform="translate(560.0 730)" fill="none" stroke="#303B36" stroke-width="1.7" stroke-linecap="round" stroke-linejoin="round"><title>펜</title><path d="m4 20 1-5L16 4a2.12 2.12 0 0 1 3 3L8 18l-4 2Zm10-14 4 4M5 15l3 3"/></g><g transform="translate(608.0 730)" fill="none" stroke="#303B36" stroke-width="1.7" stroke-linecap="round" stroke-linejoin="round"><title>지우개</title><path d="m9 19-5-5a2 2 0 0 1 0-3l8-8a2 2 0 0 1 3 0l6 6a2 2 0 0 1 0 3l-7 7H9Zm-2-11 9 9M9 19h12"/></g><g transform="translate(656.0 730)" fill="none" stroke="#303B36" stroke-width="1.7" stroke-linecap="round" stroke-linejoin="round"><title>올가미</title><path d="M7 16C0 14 0 3 12 3s14 14 0 14H9m0-2c-3 0-4 2-3 4s5 1 5-1c0-2-2-2-2 0v2c0 2 3 3 5 1"/></g><text x="714.0" y="747" font-size="14" fill="#303B36" font-family="Noto Sans KR, Apple SD Gothic Neo, sans-serif">0.5 mm</text><circle cx="818.0" cy="742" r="15" fill="none" stroke="#DFE2DB" stroke-width="2"/><circle cx="818.0" cy="742" r="10" fill="#303B36"/><circle cx="854.0" cy="742" r="10" fill="#476550"/><circle cx="890.0" cy="742" r="10" fill="#9D7967"/><g transform="translate(944.0 730)" fill="none" stroke="#303B36" stroke-width="1.7" stroke-linecap="round" stroke-linejoin="round"><title>실행 취소</title><path d="m8 4-5 5 5 5M3 9h11a6 6 0 0 1 0 12"/></g><g transform="translate(992.0 730)" fill="none" stroke="#303B36" stroke-width="1.7" stroke-linecap="round" stroke-linejoin="round"><title>다시 실행</title><path d="m16 4 5 5-5 5m5-5H10a6 6 0 0 0 0 12"/></g><text x="790.0" y="800" font-size="12" fill="#5F6862" font-family="Noto Sans KR, Apple SD Gothic Neo, sans-serif" text-anchor="middle">두 손가락으로 스크롤 · Apple Pencil로 필사</text><rect x="0" y="0" width="1180" height="820" rx="24" fill="#303B36" opacity="0.12"/><rect x="400" y="0" width="18" height="820" fill="url(#sh)"/><path d="M24 0h376v820H24a24 24 0 0 1-24-24V24A24 24 0 0 1 24 0Z" fill="#F0EFEA"/><rect x="16" y="16" width="96" height="44" rx="12" fill="#FAF9F6"/><g transform="translate(34 32)" fill="none" stroke="#303B36" stroke-width="1.7" stroke-linecap="round" stroke-linejoin="round"><path d="m5 1-5 5 5 5"/></g><text x="52" y="44" font-size="13" fill="#303B36" font-family="Noto Sans KR, Apple SD Gothic Neo, sans-serif">성경</text><rect x="316" y="16" width="64" height="44" rx="12" fill="#FAF9F6"/><text x="348" y="44" font-size="13" fill="#303B36" font-family="Noto Sans KR, Apple SD Gothic Neo, sans-serif" text-anchor="middle">닫기</text><text x="24" y="96" font-size="22" fill="#303B36" font-family="Noto Serif KR, AppleMyungjo, serif">시편</text><text x="82" y="96" font-size="13" fill="#5F6862" font-family="Noto Sans KR, Apple SD Gothic Neo, sans-serif">150장</text><rect x="20" y="112" width="360" height="44" rx="12" fill="#FAF9F6" stroke="#DFE2DB"/><text x="40" y="141" font-size="14" fill="#5F6862" font-family="Noto Sans KR, Apple SD Gothic Neo, sans-serif">장 검색</text><rect x="19" y="170" width="44" height="44" rx="12" fill="#FAF9F6"/><text x="41.0" y="197.0" font-size="15" fill="#303B36" font-family="Noto Sans KR, Apple SD Gothic Neo, sans-serif" text-anchor="middle">1</text><rect x="72" y="170" width="44" height="44" rx="12" fill="#FAF9F6"/><text x="94.0" y="197.0" font-size="15" fill="#303B36" font-family="Noto Sans KR, Apple SD Gothic Neo, sans-serif" text-anchor="middle">2</text><rect x="125" y="170" width="44" height="44" rx="12" fill="#FAF9F6"/><text x="147.0" y="197.0" font-size="15" fill="#303B36" font-family="Noto Sans KR, Apple SD Gothic Neo, sans-serif" text-anchor="middle">3</text><rect x="178" y="170" width="44" height="44" rx="12" fill="#FAF9F6"/><text x="200.0" y="197.0" font-size="15" fill="#303B36" font-family="Noto Sans KR, Apple SD Gothic Neo, sans-serif" text-anchor="middle">4</text><rect x="231" y="170" width="44" height="44" rx="12" fill="#FAF9F6"/><text x="253.0" y="197.0" font-size="15" fill="#303B36" font-family="Noto Sans KR, Apple SD Gothic Neo, sans-serif" text-anchor="middle">5</text><rect x="284" y="170" width="44" height="44" rx="12" fill="#FAF9F6"/><text x="306.0" y="197.0" font-size="15" fill="#303B36" font-family="Noto Sans KR, Apple SD Gothic Neo, sans-serif" text-anchor="middle">6</text><rect x="337" y="170" width="44" height="44" rx="12" fill="#FAF9F6"/><text x="359.0" y="197.0" font-size="15" fill="#303B36" font-family="Noto Sans KR, Apple SD Gothic Neo, sans-serif" text-anchor="middle">7</text><rect x="19" y="223" width="44" height="44" rx="12" fill="#FAF9F6"/><text x="41.0" y="250.0" font-size="15" fill="#303B36" font-family="Noto Sans KR, Apple SD Gothic Neo, sans-serif" text-anchor="middle">8</text><rect x="72" y="223" width="44" height="44" rx="12" fill="#FAF9F6"/><text x="94.0" y="250.0" font-size="15" fill="#303B36" font-family="Noto Sans KR, Apple SD Gothic Neo, sans-serif" text-anchor="middle">9</text><rect x="125" y="223" width="44" height="44" rx="12" fill="#FAF9F6"/><text x="147.0" y="250.0" font-size="15" fill="#303B36" font-family="Noto Sans KR, Apple SD Gothic Neo, sans-serif" text-anchor="middle">10</text><rect x="178" y="223" width="44" height="44" rx="12" fill="#FAF9F6"/><text x="200.0" y="250.0" font-size="15" fill="#303B36" font-family="Noto Sans KR, Apple SD Gothic Neo, sans-serif" text-anchor="middle">11</text><rect x="231" y="223" width="44" height="44" rx="12" fill="#FAF9F6"/><text x="253.0" y="250.0" font-size="15" fill="#303B36" font-family="Noto Sans KR, Apple SD Gothic Neo, sans-serif" text-anchor="middle">12</text><rect x="284" y="223" width="44" height="44" rx="12" fill="#FAF9F6"/><text x="306.0" y="250.0" font-size="15" fill="#303B36" font-family="Noto Sans KR, Apple SD Gothic Neo, sans-serif" text-anchor="middle">13</text><rect x="337" y="223" width="44" height="44" rx="12" fill="#FAF9F6"/><text x="359.0" y="250.0" font-size="15" fill="#303B36" font-family="Noto Sans KR, Apple SD Gothic Neo, sans-serif" text-anchor="middle">14</text><rect x="19" y="276" width="44" height="44" rx="12" fill="#FAF9F6"/><text x="41.0" y="303.0" font-size="15" fill="#303B36" font-family="Noto Sans KR, Apple SD Gothic Neo, sans-serif" text-anchor="middle">15</text><rect x="72" y="276" width="44" height="44" rx="12" fill="#FAF9F6"/><text x="94.0" y="303.0" font-size="15" fill="#303B36" font-family="Noto Sans KR, Apple SD Gothic Neo, sans-serif" text-anchor="middle">16</text><rect x="125" y="276" width="44" height="44" rx="12" fill="#FAF9F6"/><text x="147.0" y="303.0" font-size="15" fill="#303B36" font-family="Noto Sans KR, Apple SD Gothic Neo, sans-serif" text-anchor="middle">17</text><rect x="178" y="276" width="44" height="44" rx="12" fill="#FAF9F6"/><text x="200.0" y="303.0" font-size="15" fill="#303B36" font-family="Noto Sans KR, Apple SD Gothic Neo, sans-serif" text-anchor="middle">18</text><rect x="231" y="276" width="44" height="44" rx="12" fill="#FAF9F6"/><text x="253.0" y="303.0" font-size="15" fill="#303B36" font-family="Noto Sans KR, Apple SD Gothic Neo, sans-serif" text-anchor="middle">19</text><rect x="284" y="276" width="44" height="44" rx="12" fill="#FAF9F6"/><text x="306.0" y="303.0" font-size="15" fill="#303B36" font-family="Noto Sans KR, Apple SD Gothic Neo, sans-serif" text-anchor="middle">20</text><rect x="337" y="276" width="44" height="44" rx="12" fill="#FAF9F6"/><text x="359.0" y="303.0" font-size="15" fill="#303B36" font-family="Noto Sans KR, Apple SD Gothic Neo, sans-serif" text-anchor="middle">21</text><rect x="19" y="329" width="44" height="44" rx="12" fill="#FAF9F6"/><text x="41.0" y="356.0" font-size="15" fill="#303B36" font-family="Noto Sans KR, Apple SD Gothic Neo, sans-serif" text-anchor="middle">22</text><rect x="72" y="329" width="44" height="44" rx="12" fill="#476550"/><text x="94.0" y="356.0" font-size="15" fill="#FAF9F6" font-family="Noto Sans KR, Apple SD Gothic Neo, sans-serif" text-anchor="middle">23</text><rect x="125" y="329" width="44" height="44" rx="12" fill="#FAF9F6"/><text x="147.0" y="356.0" font-size="15" fill="#303B36" font-family="Noto Sans KR, Apple SD Gothic Neo, sans-serif" text-anchor="middle">24</text><rect x="178" y="329" width="44" height="44" rx="12" fill="#FAF9F6"/><text x="200.0" y="356.0" font-size="15" fill="#303B36" font-family="Noto Sans KR, Apple SD Gothic Neo, sans-serif" text-anchor="middle">25</text><rect x="231" y="329" width="44" height="44" rx="12" fill="#FAF9F6"/><text x="253.0" y="356.0" font-size="15" fill="#303B36" font-family="Noto Sans KR, Apple SD Gothic Neo, sans-serif" text-anchor="middle">26</text><rect x="284" y="329" width="44" height="44" rx="12" fill="#FAF9F6"/><text x="306.0" y="356.0" font-size="15" fill="#303B36" font-family="Noto Sans KR, Apple SD Gothic Neo, sans-serif" text-anchor="middle">27</text><rect x="337" y="329" width="44" height="44" rx="12" fill="#FAF9F6"/><text x="359.0" y="356.0" font-size="15" fill="#303B36" font-family="Noto Sans KR, Apple SD Gothic Neo, sans-serif" text-anchor="middle">28</text><rect x="19" y="382" width="44" height="44" rx="12" fill="#FAF9F6"/><text x="41.0" y="409.0" font-size="15" fill="#303B36" font-family="Noto Sans KR, Apple SD Gothic Neo, sans-serif" text-anchor="middle">29</text><rect x="72" y="382" width="44" height="44" rx="12" fill="#FAF9F6"/><text x="94.0" y="409.0" font-size="15" fill="#303B36" font-family="Noto Sans KR, Apple SD Gothic Neo, sans-serif" text-anchor="middle">30</text><rect x="125" y="382" width="44" height="44" rx="12" fill="#FAF9F6"/><text x="147.0" y="409.0" font-size="15" fill="#303B36" font-family="Noto Sans KR, Apple SD Gothic Neo, sans-serif" text-anchor="middle">31</text><rect x="178" y="382" width="44" height="44" rx="12" fill="#FAF9F6"/><text x="200.0" y="409.0" font-size="15" fill="#303B36" font-family="Noto Sans KR, Apple SD Gothic Neo, sans-serif" text-anchor="middle">32</text><rect x="231" y="382" width="44" height="44" rx="12" fill="#FAF9F6"/><text x="253.0" y="409.0" font-size="15" fill="#303B36" font-family="Noto Sans KR, Apple SD Gothic Neo, sans-serif" text-anchor="middle">33</text><rect x="284" y="382" width="44" height="44" rx="12" fill="#FAF9F6"/><text x="306.0" y="409.0" font-size="15" fill="#303B36" font-family="Noto Sans KR, Apple SD Gothic Neo, sans-serif" text-anchor="middle">34</text><rect x="337" y="382" width="44" height="44" rx="12" fill="#FAF9F6"/><text x="359.0" y="409.0" font-size="15" fill="#303B36" font-family="Noto Sans KR, Apple SD Gothic Neo, sans-serif" text-anchor="middle">35</text><rect x="19" y="435" width="44" height="44" rx="12" fill="#FAF9F6"/><text x="41.0" y="462.0" font-size="15" fill="#303B36" font-family="Noto Sans KR, Apple SD Gothic Neo, sans-serif" text-anchor="middle">36</text><rect x="72" y="435" width="44" height="44" rx="12" fill="#FAF9F6"/><text x="94.0" y="462.0" font-size="15" fill="#303B36" font-family="Noto Sans KR, Apple SD Gothic Neo, sans-serif" text-anchor="middle">37</text><rect x="125" y="435" width="44" height="44" rx="12" fill="#FAF9F6"/><text x="147.0" y="462.0" font-size="15" fill="#303B36" font-family="Noto Sans KR, Apple SD Gothic Neo, sans-serif" text-anchor="middle">38</text><rect x="178" y="435" width="44" height="44" rx="12" fill="#FAF9F6"/><text x="200.0" y="462.0" font-size="15" fill="#303B36" font-family="Noto Sans KR, Apple SD Gothic Neo, sans-serif" text-anchor="middle">39</text><rect x="231" y="435" width="44" height="44" rx="12" fill="#FAF9F6"/><text x="253.0" y="462.0" font-size="15" fill="#303B36" font-family="Noto Sans KR, Apple SD Gothic Neo, sans-serif" text-anchor="middle">40</text><rect x="284" y="435" width="44" height="44" rx="12" fill="#FAF9F6"/><text x="306.0" y="462.0" font-size="15" fill="#303B36" font-family="Noto Sans KR, Apple SD Gothic Neo, sans-serif" text-anchor="middle">41</text><rect x="337" y="435" width="44" height="44" rx="12" fill="#FAF9F6"/><text x="359.0" y="462.0" font-size="15" fill="#303B36" font-family="Noto Sans KR, Apple SD Gothic Neo, sans-serif" text-anchor="middle">42</text><rect x="19" y="488" width="44" height="44" rx="12" fill="#FAF9F6"/><text x="41.0" y="515.0" font-size="15" fill="#303B36" font-family="Noto Sans KR, Apple SD Gothic Neo, sans-serif" text-anchor="middle">43</text><rect x="72" y="488" width="44" height="44" rx="12" fill="#FAF9F6"/><text x="94.0" y="515.0" font-size="15" fill="#303B36" font-family="Noto Sans KR, Apple SD Gothic Neo, sans-serif" text-anchor="middle">44</text><rect x="125" y="488" width="44" height="44" rx="12" fill="#FAF9F6"/><text x="147.0" y="515.0" font-size="15" fill="#303B36" font-family="Noto Sans KR, Apple SD Gothic Neo, sans-serif" text-anchor="middle">45</text><rect x="178" y="488" width="44" height="44" rx="12" fill="#FAF9F6"/><text x="200.0" y="515.0" font-size="15" fill="#303B36" font-family="Noto Sans KR, Apple SD Gothic Neo, sans-serif" text-anchor="middle">46</text><rect x="231" y="488" width="44" height="44" rx="12" fill="#FAF9F6"/><text x="253.0" y="515.0" font-size="15" fill="#303B36" font-family="Noto Sans KR, Apple SD Gothic Neo, sans-serif" text-anchor="middle">47</text><rect x="284" y="488" width="44" height="44" rx="12" fill="#FAF9F6"/><text x="306.0" y="515.0" font-size="15" fill="#303B36" font-family="Noto Sans KR, Apple SD Gothic Neo, sans-serif" text-anchor="middle">48</text><rect x="337" y="488" width="44" height="44" rx="12" fill="#FAF9F6"/><text x="359.0" y="515.0" font-size="15" fill="#303B36" font-family="Noto Sans KR, Apple SD Gothic Neo, sans-serif" text-anchor="middle">49</text><rect x="19" y="541" width="44" height="44" rx="12" fill="#FAF9F6"/><text x="41.0" y="568.0" font-size="15" fill="#303B36" font-family="Noto Sans KR, Apple SD Gothic Neo, sans-serif" text-anchor="middle">50</text><rect x="72" y="541" width="44" height="44" rx="12" fill="#FAF9F6"/><text x="94.0" y="568.0" font-size="15" fill="#303B36" font-family="Noto Sans KR, Apple SD Gothic Neo, sans-serif" text-anchor="middle">51</text><rect x="125" y="541" width="44" height="44" rx="12" fill="#FAF9F6"/><text x="147.0" y="568.0" font-size="15" fill="#303B36" font-family="Noto Sans KR, Apple SD Gothic Neo, sans-serif" text-anchor="middle">52</text><rect x="178" y="541" width="44" height="44" rx="12" fill="#FAF9F6"/><text x="200.0" y="568.0" font-size="15" fill="#303B36" font-family="Noto Sans KR, Apple SD Gothic Neo, sans-serif" text-anchor="middle">53</text><rect x="231" y="541" width="44" height="44" rx="12" fill="#FAF9F6"/><text x="253.0" y="568.0" font-size="15" fill="#303B36" font-family="Noto Sans KR, Apple SD Gothic Neo, sans-serif" text-anchor="middle">54</text><rect x="284" y="541" width="44" height="44" rx="12" fill="#FAF9F6"/><text x="306.0" y="568.0" font-size="15" fill="#303B36" font-family="Noto Sans KR, Apple SD Gothic Neo, sans-serif" text-anchor="middle">55</text><rect x="337" y="541" width="44" height="44" rx="12" fill="#FAF9F6"/><text x="359.0" y="568.0" font-size="15" fill="#303B36" font-family="Noto Sans KR, Apple SD Gothic Neo, sans-serif" text-anchor="middle">56</text><rect x="19" y="594" width="44" height="44" rx="12" fill="#FAF9F6"/><text x="41.0" y="621.0" font-size="15" fill="#303B36" font-family="Noto Sans KR, Apple SD Gothic Neo, sans-serif" text-anchor="middle">57</text><rect x="72" y="594" width="44" height="44" rx="12" fill="#FAF9F6"/><text x="94.0" y="621.0" font-size="15" fill="#303B36" font-family="Noto Sans KR, Apple SD Gothic Neo, sans-serif" text-anchor="middle">58</text><rect x="125" y="594" width="44" height="44" rx="12" fill="#FAF9F6"/><text x="147.0" y="621.0" font-size="15" fill="#303B36" font-family="Noto Sans KR, Apple SD Gothic Neo, sans-serif" text-anchor="middle">59</text><rect x="178" y="594" width="44" height="44" rx="12" fill="#FAF9F6"/><text x="200.0" y="621.0" font-size="15" fill="#303B36" font-family="Noto Sans KR, Apple SD Gothic Neo, sans-serif" text-anchor="middle">60</text><rect x="231" y="594" width="44" height="44" rx="12" fill="#FAF9F6"/><text x="253.0" y="621.0" font-size="15" fill="#303B36" font-family="Noto Sans KR, Apple SD Gothic Neo, sans-serif" text-anchor="middle">61</text><rect x="284" y="594" width="44" height="44" rx="12" fill="#FAF9F6"/><text x="306.0" y="621.0" font-size="15" fill="#303B36" font-family="Noto Sans KR, Apple SD Gothic Neo, sans-serif" text-anchor="middle">62</text><rect x="337" y="594" width="44" height="44" rx="12" fill="#FAF9F6"/><text x="359.0" y="621.0" font-size="15" fill="#303B36" font-family="Noto Sans KR, Apple SD Gothic Neo, sans-serif" text-anchor="middle">63</text><rect x="19" y="647" width="44" height="44" rx="12" fill="#FAF9F6"/><text x="41.0" y="674.0" font-size="15" fill="#303B36" font-family="Noto Sans KR, Apple SD Gothic Neo, sans-serif" text-anchor="middle">64</text><rect x="72" y="647" width="44" height="44" rx="12" fill="#FAF9F6"/><text x="94.0" y="674.0" font-size="15" fill="#303B36" font-family="Noto Sans KR, Apple SD Gothic Neo, sans-serif" text-anchor="middle">65</text><rect x="125" y="647" width="44" height="44" rx="12" fill="#FAF9F6"/><text x="147.0" y="674.0" font-size="15" fill="#303B36" font-family="Noto Sans KR, Apple SD Gothic Neo, sans-serif" text-anchor="middle">66</text><rect x="178" y="647" width="44" height="44" rx="12" fill="#FAF9F6"/><text x="200.0" y="674.0" font-size="15" fill="#303B36" font-family="Noto Sans KR, Apple SD Gothic Neo, sans-serif" text-anchor="middle">67</text><rect x="231" y="647" width="44" height="44" rx="12" fill="#FAF9F6"/><text x="253.0" y="674.0" font-size="15" fill="#303B36" font-family="Noto Sans KR, Apple SD Gothic Neo, sans-serif" text-anchor="middle">68</text><rect x="284" y="647" width="44" height="44" rx="12" fill="#FAF9F6"/><text x="306.0" y="674.0" font-size="15" fill="#303B36" font-family="Noto Sans KR, Apple SD Gothic Neo, sans-serif" text-anchor="middle">69</text><rect x="337" y="647" width="44" height="44" rx="12" fill="#FAF9F6"/><text x="359.0" y="674.0" font-size="15" fill="#303B36" font-family="Noto Sans KR, Apple SD Gothic Neo, sans-serif" text-anchor="middle">70</text><rect x="19" y="700" width="44" height="44" rx="12" fill="#FAF9F6"/><text x="41.0" y="727.0" font-size="15" fill="#303B36" font-family="Noto Sans KR, Apple SD Gothic Neo, sans-serif" text-anchor="middle">71</text><rect x="72" y="700" width="44" height="44" rx="12" fill="#FAF9F6"/><text x="94.0" y="727.0" font-size="15" fill="#303B36" font-family="Noto Sans KR, Apple SD Gothic Neo, sans-serif" text-anchor="middle">72</text><rect x="125" y="700" width="44" height="44" rx="12" fill="#FAF9F6"/><text x="147.0" y="727.0" font-size="15" fill="#303B36" font-family="Noto Sans KR, Apple SD Gothic Neo, sans-serif" text-anchor="middle">73</text><rect x="178" y="700" width="44" height="44" rx="12" fill="#FAF9F6"/><text x="200.0" y="727.0" font-size="15" fill="#303B36" font-family="Noto Sans KR, Apple SD Gothic Neo, sans-serif" text-anchor="middle">74</text><rect x="231" y="700" width="44" height="44" rx="12" fill="#FAF9F6"/><text x="253.0" y="727.0" font-size="15" fill="#303B36" font-family="Noto Sans KR, Apple SD Gothic Neo, sans-serif" text-anchor="middle">75</text><rect x="284" y="700" width="44" height="44" rx="12" fill="#FAF9F6"/><text x="306.0" y="727.0" font-size="15" fill="#303B36" font-family="Noto Sans KR, Apple SD Gothic Neo, sans-serif" text-anchor="middle">76</text><rect x="337" y="700" width="44" height="44" rx="12" fill="#FAF9F6"/><text x="359.0" y="727.0" font-size="15" fill="#303B36" font-family="Noto Sans KR, Apple SD Gothic Neo, sans-serif" text-anchor="middle">77</text><rect x="19" y="753" width="44" height="44" rx="12" fill="#FAF9F6"/><text x="41.0" y="780.0" font-size="15" fill="#303B36" font-family="Noto Sans KR, Apple SD Gothic Neo, sans-serif" text-anchor="middle">78</text><rect x="72" y="753" width="44" height="44" rx="12" fill="#FAF9F6"/><text x="94.0" y="780.0" font-size="15" fill="#303B36" font-family="Noto Sans KR, Apple SD Gothic Neo, sans-serif" text-anchor="middle">79</text><rect x="125" y="753" width="44" height="44" rx="12" fill="#FAF9F6"/><text x="147.0" y="780.0" font-size="15" fill="#303B36" font-family="Noto Sans KR, Apple SD Gothic Neo, sans-serif" text-anchor="middle">80</text><rect x="178" y="753" width="44" height="44" rx="12" fill="#FAF9F6"/><text x="200.0" y="780.0" font-size="15" fill="#303B36" font-family="Noto Sans KR, Apple SD Gothic Neo, sans-serif" text-anchor="middle">81</text><rect x="231" y="753" width="44" height="44" rx="12" fill="#FAF9F6"/><text x="253.0" y="780.0" font-size="15" fill="#303B36" font-family="Noto Sans KR, Apple SD Gothic Neo, sans-serif" text-anchor="middle">82</text><rect x="284" y="753" width="44" height="44" rx="12" fill="#FAF9F6"/><text x="306.0" y="780.0" font-size="15" fill="#303B36" font-family="Noto Sans KR, Apple SD Gothic Neo, sans-serif" text-anchor="middle">83</text><rect x="337" y="753" width="44" height="44" rx="12" fill="#FAF9F6"/><text x="359.0" y="780.0" font-size="15" fill="#303B36" font-family="Noto Sans KR, Apple SD Gothic Neo, sans-serif" text-anchor="middle">84</text><rect x="0" y="764" width="400" height="56" fill="#F0EFEA"/><path d="M0 764h400" stroke="#DFE2DB"/><rect x="20" y="770" width="116" height="44" rx="12" fill="#FAF9F6"/><text x="78" y="798" font-size="13" fill="#303B36" font-family="Noto Sans KR, Apple SD Gothic Neo, sans-serif" text-anchor="middle">개역한글 ⌄</text><rect x="256" y="770" width="60" height="44" rx="12" fill="#FAF9F6"/><text x="286" y="798" font-size="13" fill="#303B36" font-family="Noto Sans KR, Apple SD Gothic Neo, sans-serif" text-anchor="middle">차트</text><rect x="324" y="770" width="60" height="44" rx="12" fill="#FAF9F6"/><text x="354" y="798" font-size="13" fill="#303B36" font-family="Noto Sans KR, Apple SD Gothic Neo, sans-serif" text-anchor="middle">설정</text></g><text x="32" y="1806" font-size="13" fill="#5F6862" font-family="Noto Sans KR, Apple SD Gothic Neo, sans-serif">2단계 — 성경을 탭하면 장 그리드로 push. 7열 × 11행 = 한 화면 77장. 시편 150장이 2.0화면.</text></svg>